<mxfile host="Electron" modified="2023-07-27T08:38:36.484Z" agent="Mozilla/5.0 (X11; Linux x86_64) AppleWebKit/537.36 (KHTML, like Gecko) draw.io/21.6.5 Chrome/114.0.5735.243 Electron/25.3.1 Safari/537.36" etag="08z15wPlbDq9NQHqYAz9" version="21.6.5" type="device">
  <diagram name="Page-1" id="TkmSOEO_PxTDCCX6g1YR">
    <mxGraphModel dx="781" dy="487" grid="0" gridSize="10" guides="1" tooltips="1" connect="1" arrows="1" fold="1" page="1" pageScale="1" pageWidth="850" pageHeight="1100" math="1" shadow="0">
      <root>
        <mxCell id="0" />
        <mxCell id="1" parent="0" />
        <mxCell id="knneP4lm7KSKpU0izsp5-28" value="" style="endArrow=classic;html=1;rounded=0;exitX=0;exitY=1;exitDx=0;exitDy=0;entryX=0.75;entryY=0;entryDx=0;entryDy=0;dashed=1;fillColor=#d5e8d4;strokeColor=#82b366;" parent="1" source="knneP4lm7KSKpU0izsp5-13" target="knneP4lm7KSKpU0izsp5-8" edge="1">
          <mxGeometry width="50" height="50" relative="1" as="geometry">
            <mxPoint x="1399" y="739" as="sourcePoint" />
            <mxPoint x="1449" y="689" as="targetPoint" />
          </mxGeometry>
        </mxCell>
        <mxCell id="knneP4lm7KSKpU0izsp5-29" value="" style="endArrow=classic;html=1;rounded=0;exitX=0.5;exitY=1;exitDx=0;exitDy=0;entryX=0.5;entryY=0;entryDx=0;entryDy=0;dashed=1;fillColor=#d5e8d4;strokeColor=#82b366;" parent="1" source="knneP4lm7KSKpU0izsp5-17" target="knneP4lm7KSKpU0izsp5-8" edge="1">
          <mxGeometry width="50" height="50" relative="1" as="geometry">
            <mxPoint x="1369" y="824" as="sourcePoint" />
            <mxPoint x="1263" y="892" as="targetPoint" />
          </mxGeometry>
        </mxCell>
        <mxCell id="knneP4lm7KSKpU0izsp5-30" value="" style="endArrow=classic;html=1;rounded=0;exitX=0.5;exitY=1;exitDx=0;exitDy=0;entryX=0.25;entryY=0;entryDx=0;entryDy=0;dashed=1;fillColor=#d5e8d4;strokeColor=#82b366;" parent="1" source="knneP4lm7KSKpU0izsp5-18" target="knneP4lm7KSKpU0izsp5-8" edge="1">
          <mxGeometry width="50" height="50" relative="1" as="geometry">
            <mxPoint x="1316" y="713" as="sourcePoint" />
            <mxPoint x="1273" y="902" as="targetPoint" />
          </mxGeometry>
        </mxCell>
        <mxCell id="KwuSKgM6P_t5SUQghaQt-34" value="" style="group" parent="1" vertex="1" connectable="0">
          <mxGeometry x="70" y="680" width="630" height="211" as="geometry" />
        </mxCell>
        <mxCell id="KwuSKgM6P_t5SUQghaQt-35" value="Experiment" style="html=1;fillColor=none;strokeColor=none;fontSize=11;align=left;fontColor=#000000;whiteSpace=wrap;sketch=1;hachureGap=4;pointerEvents=0;fontFamily=Architects Daughter;fontSource=https%3A%2F%2Ffonts.googleapis.com%2Fcss%3Ffamily%3DArchitects%2BDaughter;labelBackgroundColor=none;container=0;" parent="KwuSKgM6P_t5SUQghaQt-34" vertex="1">
          <mxGeometry width="150" height="20" as="geometry" />
        </mxCell>
        <mxCell id="KwuSKgM6P_t5SUQghaQt-36" value="Data" style="html=1;fillColor=none;strokeColor=none;fontSize=11;align=left;fontColor=#000000;whiteSpace=wrap;sketch=1;hachureGap=4;pointerEvents=0;fontFamily=Architects Daughter;fontSource=https%3A%2F%2Ffonts.googleapis.com%2Fcss%3Ffamily%3DArchitects%2BDaughter;labelBackgroundColor=none;container=0;" parent="KwuSKgM6P_t5SUQghaQt-34" vertex="1">
          <mxGeometry x="260" width="40" height="20" as="geometry" />
        </mxCell>
        <mxCell id="KwuSKgM6P_t5SUQghaQt-37" value="EPE" style="html=1;fillColor=none;strokeColor=none;fontSize=11;align=left;fontColor=#000000;whiteSpace=wrap;sketch=1;hachureGap=4;pointerEvents=0;fontFamily=Architects Daughter;fontSource=https%3A%2F%2Ffonts.googleapis.com%2Fcss%3Ffamily%3DArchitects%2BDaughter;labelBackgroundColor=none;container=0;" parent="KwuSKgM6P_t5SUQghaQt-34" vertex="1">
          <mxGeometry x="360" width="90" height="20" as="geometry" />
        </mxCell>
        <mxCell id="KwuSKgM6P_t5SUQghaQt-38" value="Notes" style="html=1;fillColor=none;strokeColor=none;fontSize=11;align=center;fontColor=#000000;whiteSpace=wrap;sketch=1;hachureGap=4;pointerEvents=0;fontFamily=Architects Daughter;fontSource=https%3A%2F%2Ffonts.googleapis.com%2Fcss%3Ffamily%3DArchitects%2BDaughter;labelBackgroundColor=none;container=0;" parent="KwuSKgM6P_t5SUQghaQt-34" vertex="1">
          <mxGeometry x="450" width="90" height="20" as="geometry" />
        </mxCell>
        <mxCell id="KwuSKgM6P_t5SUQghaQt-39" value="Builds" style="html=1;fillColor=none;strokeColor=none;fontSize=11;align=center;fontColor=#000000;whiteSpace=wrap;sketch=1;hachureGap=4;pointerEvents=0;fontFamily=Architects Daughter;fontSource=https%3A%2F%2Ffonts.googleapis.com%2Fcss%3Ffamily%3DArchitects%2BDaughter;labelBackgroundColor=none;container=0;" parent="KwuSKgM6P_t5SUQghaQt-34" vertex="1">
          <mxGeometry x="540" width="40" height="20" as="geometry" />
        </mxCell>
        <mxCell id="KwuSKgM6P_t5SUQghaQt-40" value="" style="shape=line;strokeWidth=2;html=1;strokeColor=#DFE1E5;resizeWidth=1;sketch=1;hachureGap=4;pointerEvents=0;fontFamily=Architects Daughter;fontSource=https%3A%2F%2Ffonts.googleapis.com%2Fcss%3Ffamily%3DArchitects%2BDaughter;fontSize=20;container=0;" parent="KwuSKgM6P_t5SUQghaQt-34" vertex="1">
          <mxGeometry y="20" width="630" height="10" as="geometry" />
        </mxCell>
        <mxCell id="KwuSKgM6P_t5SUQghaQt-41" value="K32 SCOOP" style="strokeColor=none;fillColor=none;fontSize=12;fontColor=#000000;align=left;html=1;sketch=1;hachureGap=4;pointerEvents=0;fontFamily=Verdana;labelBackgroundColor=none;container=0;" parent="KwuSKgM6P_t5SUQghaQt-34" vertex="1">
          <mxGeometry y="31" width="110" height="20" as="geometry" />
        </mxCell>
        <mxCell id="KwuSKgM6P_t5SUQghaQt-42" value="0.0290" style="strokeColor=none;fillColor=none;fontSize=12;fontColor=#000000;align=left;html=1;sketch=1;hachureGap=4;pointerEvents=0;fontFamily=Verdana;labelBackgroundColor=none;container=0;" parent="KwuSKgM6P_t5SUQghaQt-34" vertex="1">
          <mxGeometry x="350" y="30" width="50" height="20" as="geometry" />
        </mxCell>
        <mxCell id="KwuSKgM6P_t5SUQghaQt-43" value="K32 SCOOP + Normals" style="strokeColor=none;fillColor=none;fontSize=12;fontColor=#000000;align=left;html=1;sketch=1;hachureGap=4;pointerEvents=0;fontFamily=Verdana;labelBackgroundColor=none;container=0;" parent="KwuSKgM6P_t5SUQghaQt-34" vertex="1">
          <mxGeometry y="61" width="240" height="20" as="geometry" />
        </mxCell>
        <mxCell id="KwuSKgM6P_t5SUQghaQt-44" value="K32 SCOOP + Normals + Visibility" style="strokeColor=none;fillColor=none;fontSize=12;fontColor=#000000;align=left;html=1;sketch=1;hachureGap=4;pointerEvents=0;fontFamily=Verdana;labelBackgroundColor=none;container=0;" parent="KwuSKgM6P_t5SUQghaQt-34" vertex="1">
          <mxGeometry y="91" width="240" height="20" as="geometry" />
        </mxCell>
        <mxCell id="KwuSKgM6P_t5SUQghaQt-45" value="" style="html=1;shadow=0;dashed=0;shape=mxgraph.atlassian.checkbox;fillColor=#008465;strokeColor=none;fontColor=#000000;align=center;verticalAlign=middle;whiteSpace=wrap;fontSize=10;fontStyle=0;html=1;sketch=0;hachureGap=4;pointerEvents=0;fontFamily=Architects Daughter;fontSource=https%3A%2F%2Ffonts.googleapis.com%2Fcss%3Ffamily%3DArchitects%2BDaughter;labelBackgroundColor=none;container=0;" parent="KwuSKgM6P_t5SUQghaQt-34" vertex="1">
          <mxGeometry x="552" y="33" width="16" height="16" as="geometry" />
        </mxCell>
        <mxCell id="KwuSKgM6P_t5SUQghaQt-46" value="" style="shape=line;strokeWidth=2;html=1;strokeColor=#DFE1E5;resizeWidth=1;sketch=1;hachureGap=4;pointerEvents=0;fontFamily=Architects Daughter;fontSource=https%3A%2F%2Ffonts.googleapis.com%2Fcss%3Ffamily%3DArchitects%2BDaughter;fontSize=20;container=0;" parent="KwuSKgM6P_t5SUQghaQt-34" vertex="1">
          <mxGeometry y="201" width="630" height="10" as="geometry" />
        </mxCell>
        <mxCell id="KwuSKgM6P_t5SUQghaQt-47" value="" style="html=1;shadow=0;dashed=0;shape=mxgraph.atlassian.checkbox;fillColor=#008465;strokeColor=none;fontColor=#000000;align=center;verticalAlign=middle;whiteSpace=wrap;fontSize=10;fontStyle=0;html=1;sketch=0;hachureGap=4;pointerEvents=0;fontFamily=Architects Daughter;fontSource=https%3A%2F%2Ffonts.googleapis.com%2Fcss%3Ffamily%3DArchitects%2BDaughter;labelBackgroundColor=none;container=0;" parent="KwuSKgM6P_t5SUQghaQt-34" vertex="1">
          <mxGeometry x="552" y="63" width="16" height="16" as="geometry" />
        </mxCell>
        <mxCell id="KwuSKgM6P_t5SUQghaQt-48" value="" style="html=1;shadow=0;dashed=0;shape=mxgraph.atlassian.checkbox;fillColor=#008465;strokeColor=none;fontColor=#000000;align=center;verticalAlign=middle;whiteSpace=wrap;fontSize=10;fontStyle=0;html=1;sketch=0;hachureGap=4;pointerEvents=0;fontFamily=Architects Daughter;fontSource=https%3A%2F%2Ffonts.googleapis.com%2Fcss%3Ffamily%3DArchitects%2BDaughter;labelBackgroundColor=none;container=0;" parent="KwuSKgM6P_t5SUQghaQt-34" vertex="1">
          <mxGeometry x="552" y="93" width="16" height="16" as="geometry" />
        </mxCell>
        <mxCell id="KwuSKgM6P_t5SUQghaQt-49" value="" style="html=1;shadow=0;dashed=0;shape=mxgraph.atlassian.checkbox;fillColor=#008465;strokeColor=none;fontColor=#000000;align=center;verticalAlign=middle;whiteSpace=wrap;fontSize=10;fontStyle=0;html=1;sketch=0;hachureGap=4;pointerEvents=0;fontFamily=Architects Daughter;fontSource=https%3A%2F%2Ffonts.googleapis.com%2Fcss%3Ffamily%3DArchitects%2BDaughter;labelBackgroundColor=none;container=0;" parent="KwuSKgM6P_t5SUQghaQt-34" vertex="1">
          <mxGeometry x="552" y="123" width="16" height="16" as="geometry" />
        </mxCell>
        <mxCell id="KwuSKgM6P_t5SUQghaQt-50" value="" style="html=1;shadow=0;dashed=0;shape=mxgraph.atlassian.checkbox;fillColor=#008465;strokeColor=none;fontColor=#000000;align=center;verticalAlign=middle;whiteSpace=wrap;fontSize=10;fontStyle=0;html=1;sketch=0;hachureGap=4;pointerEvents=0;fontFamily=Architects Daughter;fontSource=https%3A%2F%2Ffonts.googleapis.com%2Fcss%3Ffamily%3DArchitects%2BDaughter;labelBackgroundColor=none;container=0;" parent="KwuSKgM6P_t5SUQghaQt-34" vertex="1">
          <mxGeometry x="552" y="153" width="16" height="16" as="geometry" />
        </mxCell>
        <mxCell id="KwuSKgM6P_t5SUQghaQt-51" value="K64 SCOOP" style="strokeColor=none;fillColor=none;fontSize=12;fontColor=#000000;align=left;html=1;sketch=1;hachureGap=4;pointerEvents=0;fontFamily=Verdana;labelBackgroundColor=none;container=0;" parent="KwuSKgM6P_t5SUQghaQt-34" vertex="1">
          <mxGeometry y="121" width="110" height="20" as="geometry" />
        </mxCell>
        <mxCell id="KwuSKgM6P_t5SUQghaQt-52" value="K64 SCOOP + Normals" style="strokeColor=none;fillColor=none;fontSize=12;fontColor=#000000;align=left;html=1;sketch=1;hachureGap=4;pointerEvents=0;fontFamily=Verdana;labelBackgroundColor=none;container=0;" parent="KwuSKgM6P_t5SUQghaQt-34" vertex="1">
          <mxGeometry y="151" width="240" height="20" as="geometry" />
        </mxCell>
        <mxCell id="KwuSKgM6P_t5SUQghaQt-53" value="K64 SCOOP + Normals + Visibility" style="strokeColor=none;fillColor=none;fontSize=12;fontColor=#000000;align=left;html=1;sketch=1;hachureGap=4;pointerEvents=0;fontFamily=Verdana;labelBackgroundColor=none;container=0;" parent="KwuSKgM6P_t5SUQghaQt-34" vertex="1">
          <mxGeometry y="181" width="240" height="20" as="geometry" />
        </mxCell>
        <mxCell id="KwuSKgM6P_t5SUQghaQt-54" value="" style="html=1;shadow=0;dashed=0;shape=mxgraph.atlassian.checkbox;fillColor=#008465;strokeColor=none;fontColor=#000000;align=center;verticalAlign=middle;whiteSpace=wrap;fontSize=10;fontStyle=0;html=1;sketch=0;hachureGap=4;pointerEvents=0;fontFamily=Architects Daughter;fontSource=https%3A%2F%2Ffonts.googleapis.com%2Fcss%3Ffamily%3DArchitects%2BDaughter;labelBackgroundColor=none;container=0;" parent="KwuSKgM6P_t5SUQghaQt-34" vertex="1">
          <mxGeometry x="552" y="181" width="16" height="16" as="geometry" />
        </mxCell>
        <mxCell id="KwuSKgM6P_t5SUQghaQt-55" style="edgeStyle=orthogonalEdgeStyle;rounded=0;orthogonalLoop=1;jettySize=auto;html=1;labelBackgroundColor=none;fontColor=#000000;" parent="KwuSKgM6P_t5SUQghaQt-34" source="KwuSKgM6P_t5SUQghaQt-57" edge="1">
          <mxGeometry relative="1" as="geometry">
            <mxPoint x="280" y="40" as="targetPoint" />
          </mxGeometry>
        </mxCell>
        <mxCell id="KwuSKgM6P_t5SUQghaQt-56" style="edgeStyle=orthogonalEdgeStyle;rounded=0;orthogonalLoop=1;jettySize=auto;html=1;labelBackgroundColor=none;fontColor=#000000;" parent="KwuSKgM6P_t5SUQghaQt-34" source="KwuSKgM6P_t5SUQghaQt-57" edge="1">
          <mxGeometry relative="1" as="geometry">
            <mxPoint x="280" y="200" as="targetPoint" />
          </mxGeometry>
        </mxCell>
        <mxCell id="KwuSKgM6P_t5SUQghaQt-57" value="KITTI_T" style="strokeColor=none;fillColor=none;fontSize=12;fontColor=#000000;align=left;html=1;sketch=1;hachureGap=4;pointerEvents=0;fontFamily=Verdana;labelBackgroundColor=none;container=0;" parent="KwuSKgM6P_t5SUQghaQt-34" vertex="1">
          <mxGeometry x="245" y="109" width="70" height="19" as="geometry" />
        </mxCell>
        <mxCell id="KwuSKgM6P_t5SUQghaQt-58" value="0.0262" style="strokeColor=none;fillColor=none;fontSize=12;fontColor=#000000;align=left;html=1;sketch=1;hachureGap=4;pointerEvents=0;fontFamily=Verdana;fontStyle=1;labelBackgroundColor=none;container=0;" parent="KwuSKgM6P_t5SUQghaQt-34" vertex="1">
          <mxGeometry x="350" y="61" width="50" height="20" as="geometry" />
        </mxCell>
        <mxCell id="KwuSKgM6P_t5SUQghaQt-59" value="0.0259" style="strokeColor=none;fillColor=none;fontSize=12;fontColor=#000000;align=left;html=1;sketch=1;hachureGap=4;pointerEvents=0;fontFamily=Verdana;fontStyle=1;labelBackgroundColor=none;container=0;" parent="KwuSKgM6P_t5SUQghaQt-34" vertex="1">
          <mxGeometry x="350" y="91" width="50" height="20" as="geometry" />
        </mxCell>
        <mxCell id="KwuSKgM6P_t5SUQghaQt-60" value="0.0267" style="strokeColor=none;fillColor=none;fontSize=12;fontColor=#000000;align=left;html=1;sketch=1;hachureGap=4;pointerEvents=0;fontFamily=Verdana;labelBackgroundColor=none;container=0;" parent="KwuSKgM6P_t5SUQghaQt-34" vertex="1">
          <mxGeometry x="350" y="121" width="50" height="20" as="geometry" />
        </mxCell>
        <mxCell id="KwuSKgM6P_t5SUQghaQt-61" value="0.0214" style="strokeColor=none;fillColor=none;fontSize=12;fontColor=#000000;align=left;html=1;sketch=1;hachureGap=4;pointerEvents=0;fontFamily=Verdana;fontStyle=1;labelBackgroundColor=none;container=0;" parent="KwuSKgM6P_t5SUQghaQt-34" vertex="1">
          <mxGeometry x="350" y="149" width="50" height="20" as="geometry" />
        </mxCell>
        <mxCell id="KwuSKgM6P_t5SUQghaQt-62" value="0.0209" style="strokeColor=none;fillColor=none;fontSize=12;fontColor=#000000;align=left;html=1;sketch=1;hachureGap=4;pointerEvents=0;fontFamily=Verdana;fontStyle=1;labelBackgroundColor=none;container=0;" parent="KwuSKgM6P_t5SUQghaQt-34" vertex="1">
          <mxGeometry x="350" y="181" width="50" height="20" as="geometry" />
        </mxCell>
        <mxCell id="KwuSKgM6P_t5SUQghaQt-63" style="edgeStyle=orthogonalEdgeStyle;rounded=0;orthogonalLoop=1;jettySize=auto;html=1;labelBackgroundColor=none;fontColor=#000000;" parent="KwuSKgM6P_t5SUQghaQt-34" source="KwuSKgM6P_t5SUQghaQt-65" edge="1">
          <mxGeometry relative="1" as="geometry">
            <mxPoint x="495" y="200" as="targetPoint" />
          </mxGeometry>
        </mxCell>
        <mxCell id="KwuSKgM6P_t5SUQghaQt-64" style="edgeStyle=orthogonalEdgeStyle;rounded=0;orthogonalLoop=1;jettySize=auto;html=1;labelBackgroundColor=none;fontColor=#000000;" parent="KwuSKgM6P_t5SUQghaQt-34" source="KwuSKgM6P_t5SUQghaQt-65" edge="1">
          <mxGeometry relative="1" as="geometry">
            <mxPoint x="495" y="40" as="targetPoint" />
          </mxGeometry>
        </mxCell>
        <mxCell id="KwuSKgM6P_t5SUQghaQt-65" value="Normals NN =8" style="strokeColor=none;fillColor=none;fontSize=12;fontColor=#000000;align=left;html=1;sketch=1;hachureGap=4;pointerEvents=0;fontFamily=Verdana;labelBackgroundColor=none;container=0;" parent="KwuSKgM6P_t5SUQghaQt-34" vertex="1">
          <mxGeometry x="460" y="109" width="70" height="19" as="geometry" />
        </mxCell>
        <mxCell id="KwuSKgM6P_t5SUQghaQt-96" value="" style="group" parent="1" vertex="1" connectable="0">
          <mxGeometry x="990" y="150" width="580" height="178.75" as="geometry" />
        </mxCell>
        <mxCell id="KwuSKgM6P_t5SUQghaQt-67" value="" style="rounded=0;whiteSpace=wrap;html=1;movable=0;resizable=0;rotatable=0;deletable=0;editable=0;locked=1;connectable=0;" parent="KwuSKgM6P_t5SUQghaQt-96" vertex="1">
          <mxGeometry y="38.46000000000001" width="290" height="140.29" as="geometry" />
        </mxCell>
        <mxCell id="KwuSKgM6P_t5SUQghaQt-68" value="Visibility" style="text;html=1;strokeColor=none;fillColor=none;align=center;verticalAlign=middle;whiteSpace=wrap;rounded=0;" parent="KwuSKgM6P_t5SUQghaQt-96" vertex="1">
          <mxGeometry x="30" width="60" height="30" as="geometry" />
        </mxCell>
        <mxCell id="KwuSKgM6P_t5SUQghaQt-69" value="" style="triangle;whiteSpace=wrap;html=1;rotation=-200;fillColor=#dae8fc;strokeColor=#6c8ebf;direction=east;" parent="KwuSKgM6P_t5SUQghaQt-96" vertex="1">
          <mxGeometry x="60" y="100" width="40" height="42.25" as="geometry" />
        </mxCell>
        <mxCell id="KwuSKgM6P_t5SUQghaQt-70" value="" style="ellipse;whiteSpace=wrap;html=1;aspect=fixed;fillColor=#f8cecc;strokeColor=#b85450;direction=south;" parent="KwuSKgM6P_t5SUQghaQt-96" vertex="1">
          <mxGeometry x="199.99650429449548" y="66.5" width="10" height="10" as="geometry" />
        </mxCell>
        <mxCell id="KwuSKgM6P_t5SUQghaQt-71" value="" style="ellipse;whiteSpace=wrap;html=1;aspect=fixed;fillColor=#f8cecc;strokeColor=#b85450;" parent="KwuSKgM6P_t5SUQghaQt-96" vertex="1">
          <mxGeometry x="189.99650429449548" y="60" width="10" height="10" as="geometry" />
        </mxCell>
        <mxCell id="KwuSKgM6P_t5SUQghaQt-72" value="" style="ellipse;whiteSpace=wrap;html=1;aspect=fixed;fillColor=#f8cecc;strokeColor=#b85450;" parent="KwuSKgM6P_t5SUQghaQt-96" vertex="1">
          <mxGeometry x="179.99650429449548" y="50" width="10" height="10" as="geometry" />
        </mxCell>
        <mxCell id="KwuSKgM6P_t5SUQghaQt-73" value="" style="ellipse;whiteSpace=wrap;html=1;aspect=fixed;fillColor=#f8cecc;strokeColor=#b85450;" parent="KwuSKgM6P_t5SUQghaQt-96" vertex="1">
          <mxGeometry x="169.99650429449548" y="45" width="10" height="10" as="geometry" />
        </mxCell>
        <mxCell id="KwuSKgM6P_t5SUQghaQt-74" value="" style="ellipse;whiteSpace=wrap;html=1;aspect=fixed;fillColor=#fff2cc;strokeColor=#d6b656;" parent="KwuSKgM6P_t5SUQghaQt-96" vertex="1">
          <mxGeometry x="199.99650429449548" y="111.43" width="10" height="10" as="geometry" />
        </mxCell>
        <mxCell id="KwuSKgM6P_t5SUQghaQt-75" value="" style="ellipse;whiteSpace=wrap;html=1;aspect=fixed;fillColor=#fff2cc;strokeColor=#d6b656;" parent="KwuSKgM6P_t5SUQghaQt-96" vertex="1">
          <mxGeometry x="207.74650429449548" y="101.43" width="10" height="10" as="geometry" />
        </mxCell>
        <mxCell id="KwuSKgM6P_t5SUQghaQt-76" value="" style="ellipse;whiteSpace=wrap;html=1;aspect=fixed;fillColor=#dae8fc;strokeColor=#6c8ebf;" parent="KwuSKgM6P_t5SUQghaQt-96" vertex="1">
          <mxGeometry x="219.99650429449548" y="95.31" width="10" height="10" as="geometry" />
        </mxCell>
        <mxCell id="KwuSKgM6P_t5SUQghaQt-77" value="" style="ellipse;whiteSpace=wrap;html=1;aspect=fixed;fillColor=#fff2cc;strokeColor=#d6b656;" parent="KwuSKgM6P_t5SUQghaQt-96" vertex="1">
          <mxGeometry x="197.74650429449548" y="130" width="10" height="10" as="geometry" />
        </mxCell>
        <mxCell id="KwuSKgM6P_t5SUQghaQt-78" value="" style="ellipse;whiteSpace=wrap;html=1;aspect=fixed;fillColor=#fff2cc;strokeColor=#d6b656;" parent="KwuSKgM6P_t5SUQghaQt-96" vertex="1">
          <mxGeometry x="190" y="119.69" width="7.75" height="7.75" as="geometry" />
        </mxCell>
        <mxCell id="KwuSKgM6P_t5SUQghaQt-79" value="" style="ellipse;whiteSpace=wrap;html=1;aspect=fixed;fillColor=#f5f5f5;strokeColor=#666666;fontColor=#333333;" parent="KwuSKgM6P_t5SUQghaQt-96" vertex="1">
          <mxGeometry x="269.9965042944955" y="47.69" width="10" height="10" as="geometry" />
        </mxCell>
        <mxCell id="KwuSKgM6P_t5SUQghaQt-80" value="" style="ellipse;whiteSpace=wrap;html=1;aspect=fixed;fillColor=#f5f5f5;strokeColor=#666666;fontColor=#333333;" parent="KwuSKgM6P_t5SUQghaQt-96" vertex="1">
          <mxGeometry x="269.9965042944955" y="57.69" width="10" height="10" as="geometry" />
        </mxCell>
        <mxCell id="KwuSKgM6P_t5SUQghaQt-81" value="" style="ellipse;whiteSpace=wrap;html=1;aspect=fixed;fillColor=#f5f5f5;strokeColor=#666666;fontColor=#333333;" parent="KwuSKgM6P_t5SUQghaQt-96" vertex="1">
          <mxGeometry x="269.9965042944955" y="67.69" width="10" height="10" as="geometry" />
        </mxCell>
        <mxCell id="KwuSKgM6P_t5SUQghaQt-82" value="" style="ellipse;whiteSpace=wrap;html=1;aspect=fixed;fillColor=#f5f5f5;strokeColor=#666666;fontColor=#333333;" parent="KwuSKgM6P_t5SUQghaQt-96" vertex="1">
          <mxGeometry x="259.9965042944955" y="45" width="10" height="10" as="geometry" />
        </mxCell>
        <mxCell id="KwuSKgM6P_t5SUQghaQt-83" value="" style="ellipse;whiteSpace=wrap;html=1;aspect=fixed;fillColor=#f5f5f5;strokeColor=#666666;fontColor=#333333;" parent="KwuSKgM6P_t5SUQghaQt-96" vertex="1">
          <mxGeometry x="269.9965042944955" y="76.5" width="10" height="10" as="geometry" />
        </mxCell>
        <mxCell id="KwuSKgM6P_t5SUQghaQt-84" value="$$ q_i $$" style="endArrow=classic;html=1;rounded=0;exitX=0;exitY=0;exitDx=0;exitDy=0;entryX=1;entryY=0;entryDx=0;entryDy=0;" parent="KwuSKgM6P_t5SUQghaQt-96" source="KwuSKgM6P_t5SUQghaQt-76" target="KwuSKgM6P_t5SUQghaQt-70" edge="1">
          <mxGeometry x="0.235" y="-13" width="50" height="50" relative="1" as="geometry">
            <mxPoint x="130" y="86.5" as="sourcePoint" />
            <mxPoint x="180" y="36.5" as="targetPoint" />
            <mxPoint as="offset" />
          </mxGeometry>
        </mxCell>
        <mxCell id="KwuSKgM6P_t5SUQghaQt-85" value="$$q_k$$" style="endArrow=classic;html=1;rounded=0;exitX=0.5;exitY=1;exitDx=0;exitDy=0;entryX=1;entryY=0.5;entryDx=0;entryDy=0;dashed=1;" parent="KwuSKgM6P_t5SUQghaQt-96" source="KwuSKgM6P_t5SUQghaQt-76" target="KwuSKgM6P_t5SUQghaQt-77" edge="1">
          <mxGeometry x="0.0672" y="11" width="50" height="50" relative="1" as="geometry">
            <mxPoint x="242" y="142.43" as="sourcePoint" />
            <mxPoint x="230" y="121.43" as="targetPoint" />
            <mxPoint as="offset" />
          </mxGeometry>
        </mxCell>
        <mxCell id="KwuSKgM6P_t5SUQghaQt-86" value="" style="ellipse;whiteSpace=wrap;html=1;aspect=fixed;fillColor=#f8cecc;strokeColor=#b85450;" parent="KwuSKgM6P_t5SUQghaQt-96" vertex="1">
          <mxGeometry x="209.99650429449548" y="56.5" width="10" height="10" as="geometry" />
        </mxCell>
        <mxCell id="KwuSKgM6P_t5SUQghaQt-87" value="$$d_h$$" style="endArrow=classic;html=1;rounded=0;exitX=0;exitY=0.5;exitDx=0;exitDy=0;entryX=0;entryY=1;entryDx=0;entryDy=0;fillColor=#f5f5f5;strokeColor=#666666;dashed=1;dashPattern=1 1;labelBackgroundColor=none;" parent="KwuSKgM6P_t5SUQghaQt-96" source="KwuSKgM6P_t5SUQghaQt-69" target="KwuSKgM6P_t5SUQghaQt-81" edge="1">
          <mxGeometry x="-0.4999" y="9" width="50" height="50" relative="1" as="geometry">
            <mxPoint x="130" y="86.5" as="sourcePoint" />
            <mxPoint x="180" y="36.5" as="targetPoint" />
            <mxPoint as="offset" />
          </mxGeometry>
        </mxCell>
        <mxCell id="KwuSKgM6P_t5SUQghaQt-88" value="$$KNN:&amp;nbsp; |q_i - p_j| &amp;lt; |q_k - p_j| $$" style="text;html=1;strokeColor=none;fillColor=none;align=center;verticalAlign=middle;whiteSpace=wrap;rounded=0;" parent="KwuSKgM6P_t5SUQghaQt-96" vertex="1">
          <mxGeometry x="360" y="37.69" width="60" height="30" as="geometry" />
        </mxCell>
        <mxCell id="KwuSKgM6P_t5SUQghaQt-89" value="$$ Visibility: || q_i, p_j|| \in || d_h||&lt;br&gt;\\&lt;br&gt;;s.t.&amp;nbsp; ~outside~ r(m) $$" style="text;html=1;strokeColor=none;fillColor=none;align=center;verticalAlign=middle;whiteSpace=wrap;rounded=0;" parent="KwuSKgM6P_t5SUQghaQt-96" vertex="1">
          <mxGeometry x="300" y="71.43" width="280" height="30" as="geometry" />
        </mxCell>
        <mxCell id="KwuSKgM6P_t5SUQghaQt-90" value="$$m $$" style="endArrow=classic;startArrow=classic;html=1;rounded=0;labelBackgroundColor=none;" parent="KwuSKgM6P_t5SUQghaQt-96" edge="1">
          <mxGeometry x="-0.3333" y="10" width="50" height="50" relative="1" as="geometry">
            <mxPoint x="243" y="70" as="sourcePoint" />
            <mxPoint x="270" y="70" as="targetPoint" />
            <mxPoint as="offset" />
          </mxGeometry>
        </mxCell>
        <mxCell id="KwuSKgM6P_t5SUQghaQt-91" value="$$ p_j$$" style="text;html=1;strokeColor=none;fillColor=none;align=center;verticalAlign=middle;whiteSpace=wrap;rounded=0;" parent="KwuSKgM6P_t5SUQghaQt-96" vertex="1">
          <mxGeometry x="230" y="104.66000000000003" width="10" height="7.89" as="geometry" />
        </mxCell>
        <mxCell id="KwuSKgM6P_t5SUQghaQt-92" value="$$ d_{margin} = max(d_{NN}) $$" style="text;html=1;strokeColor=none;fillColor=none;align=center;verticalAlign=middle;whiteSpace=wrap;rounded=0;" parent="KwuSKgM6P_t5SUQghaQt-96" vertex="1">
          <mxGeometry x="300" y="105.31" width="280" height="30" as="geometry" />
        </mxCell>
        <mxCell id="KwuSKgM6P_t5SUQghaQt-93" value="" style="ellipse;whiteSpace=wrap;html=1;aspect=fixed;fillColor=#fff2cc;strokeColor=#d6b656;" parent="KwuSKgM6P_t5SUQghaQt-96" vertex="1">
          <mxGeometry x="239.99650429449548" y="86.21000000000001" width="10" height="10" as="geometry" />
        </mxCell>
        <mxCell id="KwuSKgM6P_t5SUQghaQt-94" value="" style="endArrow=classic;html=1;rounded=0;exitX=1;exitY=0;exitDx=0;exitDy=0;entryX=0;entryY=0.5;entryDx=0;entryDy=0;" parent="KwuSKgM6P_t5SUQghaQt-96" source="KwuSKgM6P_t5SUQghaQt-76" target="KwuSKgM6P_t5SUQghaQt-93" edge="1">
          <mxGeometry width="50" height="50" relative="1" as="geometry">
            <mxPoint x="200" y="116.5" as="sourcePoint" />
            <mxPoint x="250" y="66.5" as="targetPoint" />
          </mxGeometry>
        </mxCell>
        <mxCell id="KwuSKgM6P_t5SUQghaQt-95" value="$$d_{margin}$$" style="endArrow=classic;html=1;rounded=0;exitX=0;exitY=0.5;exitDx=0;exitDy=0;entryX=0.838;entryY=0.338;entryDx=0;entryDy=0;fillColor=#f5f5f5;strokeColor=#B5739D;dashed=1;dashPattern=1 1;labelBackgroundColor=none;entryPerimeter=0;" parent="KwuSKgM6P_t5SUQghaQt-96" source="KwuSKgM6P_t5SUQghaQt-69" target="KwuSKgM6P_t5SUQghaQt-93" edge="1">
          <mxGeometry x="-0.2076" y="-12" width="50" height="50" relative="1" as="geometry">
            <mxPoint x="109" y="124.5" as="sourcePoint" />
            <mxPoint x="281" y="86.5" as="targetPoint" />
            <mxPoint as="offset" />
          </mxGeometry>
        </mxCell>
        <mxCell id="KwuSKgM6P_t5SUQghaQt-133" value="" style="endArrow=classic;html=1;rounded=0;exitX=0.5;exitY=0;exitDx=0;exitDy=0;fillColor=#d5e8d4;strokeColor=#82b366;" parent="1" source="KwuSKgM6P_t5SUQghaQt-93" edge="1">
          <mxGeometry width="50" height="50" relative="1" as="geometry">
            <mxPoint x="1080" y="330" as="sourcePoint" />
            <mxPoint x="1240" y="230" as="targetPoint" />
          </mxGeometry>
        </mxCell>
        <mxCell id="5Tq4xa8M-31e6nzvc0rk-1" value="" style="shape=image;aspect=fixed;image=data:image/PNG,iVBORw0KGgoAAAANSUhEUgAABwgAAAPoCAYAAADKmKoXAAAACGFjVEwAAAABAAAAALQt6aAAAAAaZmNUTAAAAAAAAAcIAAAD6AAAAAAAAAAAAAAD6AAAs8ifywAA2IFJREFUeJzs3XmclVX9B/DPhQEGUNxAWQQR3PcCUZTNDdJcQC3DDVTMrUXJzDW31DQzl1QyF9Byy61UUkiBNHBHWzRTQSlFERQwlf3+/pjfTI4zKCB4lft+v17zwnue7znPee4cf/nz4zlPoVgsFgMAAAAAAACUhQalngAAAAAAAADw+REQAgAAAAAAQBkREAIAAAAAAEAZERACAAAAAABAGREQAgAAAAAAQBkREAIAAAAAAEAZERACAAAAAABAGREQAgAAAAAAQBkREAIAAAAAAEAZERACAAAAAABAGREQAgAAAAAAQBkREAIAAAAAAEAZERACAAAAAABAGREQAgAAAAAAQBkREAIAAAAAAEAZERACAAAAAABAGREQAgAAAAAAQBkREAIAAAAAAEAZERACAAAAAABAGREQAgAAAAAAQBkREAIAAAAAAEAZERACAAAAAABAGREQAgAAAAAAQBkREAIAAAAAAEAZERACAAAAAABAGREQAgAAAAAAQBkREAIAAAAAAEAZERACAAAAAABAGREQAgAAAAAAQBkREAIAAAAAAEAZERACAAAAAABAGREQAgAAAAAAQBkREAIAAAAAAEAZERACAAAAAABAGREQAgAAAAAAQBkREAIAAAAAAEAZERACAAAAAABAGREQAgAAAAAAQBkREAIAAAAAAEAZERACAAAAAABAGREQAgAAAAAAQBkREAIAAAAAAEAZERACAAAAAABAGREQAgAAAAAAQBkREAIAAAAAAEAZERACAAAAAABAGREQAgAAAAAAQBkREAIAAAAAAEAZERACAAAAAABAGREQAgAAAAAAQBkREAIAAAAAAEAZERACAAAAAABAGREQAgAAAAAAQBkREAIAAAAAAEAZERACAAAAAABAGREQAgAAAAAAQBkREAIAAAAAAEAZERACAAAAAABAGREQAgAAAAAAQBkREAIAAAAAAEAZERACAAAAAABAGREQAgAAAAAAQBkREAIAAAAAAEAZERACAAAAAABAGREQAgAAAAAAQBkREAIAAAAAAEAZERACAAAAAABAGREQAgAAAAAAQBkREAIAAAAAAEAZERACAAAAAABAGREQAgAAAAAAQBkREAIAAAAAAEAZERACAAAAAABAGREQAgAAAAAAQBkREAIAAAAAAEAZERACAAAAAABAGREQAgAAAAAAQBkREAIAAAAAAEAZERACAAAAAABAGREQAgAAAAAAQBkREAIAAAAAAEAZERACAAAAAABAGREQAgAAAAAAQBkREAIAAAAAAEAZERACAAAAAABAGREQAgAAAAAAQBkREAIAAAAAAEAZERACAAAAAABAGREQAgAAAAAAQBkREAIAAAAAAEAZERACAAAAAABAGREQAgAAAAAAQBkREAIAAAAAAEAZERACAAAAAABAGREQAgAAAAAAQBkREAIAAAAAAEAZERACAAAAAABAGREQAgAAAAAAQBkREAIAAAAAAEAZERACAADUY/jw4SkUCikUChk7dmyd68ViMRtssEEKhUL69OmzXO9dKBRy1llnLXW/V199NYVCIcOHD1+u81kebrvttmy++eZp2rRpCoVCnn322VJPCQAAoGwJCAEAAD7Bqquumuuuu65O+7hx4/LKK69k1VVXLcGsvlzefvvtHHLIIencuXMeeOCBTJgwIRtttFGppwUAAFC2BIQAAACf4IADDsidd96Z2bNn12q/7rrr0r1793To0KFEM/vi+/DDD1MsFvOvf/0r8+fPz8EHH5zevXtn++23T7NmzT7T2B988MFymiUAAED5ERACAAB8goEDByZJbrnllpq2WbNm5c4778zhhx9eb5933nknxx57bNq1a5fGjRunU6dOOe200zJ37txadbNnz86RRx6ZtdZaK6usskq+9rWv5V//+le9Y7700ks58MADs/baa6dJkybZdNNNc+WVVy7TM40dOzaFQiG/+c1vMnTo0LRu3TpNmzZN7969M3HixDr1Tz31VPbee++sueaaqayszFe+8pXcfvvttWqqj2QdNWpUDj/88LRq1SrNmjXLwIED06NHjyRVYevHj2T9wx/+kO7du6dZs2ZZddVVs9tuu2XChAm1xj7rrLNSKBTyzDPPZP/9988aa6yRzp07J0k6duyYPffcM/fdd1++8pWvpGnTptl0001z33331cxr0003TfPmzdOtW7c89dRTdZ7tW9/6Vjp27JimTZumY8eOGThwYF577bV6n2/MmDE55phj0rJly6y11lrZd99988Ybb9T5zm6++eZ07949q6yySlZZZZVss802dXai/ulPf8ouu+ySFi1apFmzZtlxxx3z0EMPfdKvDgAAYLkQEAIAAHyCFi1aZP/998/1119f03bLLbekQYMGOeCAA+rUz5kzJzvttFNuvPHGDB06NPfff38OPvjgXHTRRdl3331r6orFYvr375+bbropP/jBD3L33Xdn++23z+67715nzOeffz7bbrtt/v73v+fnP/957rvvvnz961/P9773vZx99tnL/GynnnpqJk2alGuvvTbXXntt3njjjfTp0yeTJk2qqRkzZkx23HHHzJw5M8OGDcvvf//7bLPNNjnggAPqfdfh4YcfnkaNGuWmm27KHXfckfPOO68myDz//PMzYcKEXHXVVUmqQrR99tknLVq0yC233JLrrrsu7777bvr06ZNHH320ztj77rtvNthgg/zud7/LsGHDatqfe+65nHLKKfnRj36Uu+66K6uttlr23XffnHnmmbn22mtz/vnn57e//W1mzZqVPffcMx9++GFN31dffTUbb7xxLr300jz44IO58MILM3Xq1Gy77baZPn16nTkMGTIkjRo1ys0335yLLrooY8eOzcEHH1yr5sc//nEOOuigtG3bNsOHD8/dd9+dQYMG1Qodf/Ob36Rv375p0aJFRowYkdtvvz1rrrlm+vXrJyQEAABWvCIAAAB13HDDDcUkxSeffLI4ZsyYYpLi3//+92KxWCxuu+22xcGDBxeLxWJx8803L/bu3bum37Bhw4pJirfffnut8S688MJikuKoUaOKxWKx+Mc//rGYpHjZZZfVqjvvvPOKSYpnnnlmTVu/fv2K6667bnHWrFm1ar/zne8UKysri++8806xWCwWJ0+eXExSvOGGGz7x2aqf56tf/Wpx0aJFNe2vvvpqsVGjRsUhQ4bUtG2yySbFr3zlK8X58+fXGmPPPfcstmnTprhw4cJa39ehhx662Pv97ne/q2lbuHBhsW3btsUtt9yyZoxisVh87733imuvvXZxhx12qGk788wzi0mKP/7xj+uMvd566xWbNm1a/M9//lPT9uyzzxaTFNu0aVN8//33a9rvueeeYpLiH/7wh8V+NwsWLCj+97//LTZv3rzW76b6+Y499tha9RdddFExSXHq1KnFYrFYnDRpUrFhw4bFgw46aLH3eP/994trrrlmca+99qrVvnDhwuLWW29d7Nat22L7AgAALA92EAIAAHyK3r17p3Pnzrn++uvzt7/9LU8++eRijxd9+OGH07x58+y///612gcPHpwkNbvDxowZkyQ56KCDatUdeOCBtT7PmTMnDz30UAYMGJBmzZplwYIFNT977LFH5syZk8cee2yZnuvAAw9MoVCo+bzeeutlhx12qJnbyy+/nH/+8581c/z4vadOnZoXX3yx1pj77bffEt37xRdfzBtvvJFDDjkkDRr87/81XWWVVbLffvvlscceq/OewcWNvc0226Rdu3Y1nzfddNMkSZ8+fWq967C6/aM7+f773//mRz/6UTbYYINUVFSkoqIiq6yySt5///288MILde6199571/q81VZb1Rpz9OjRWbhwYY477rjFPvv48ePzzjvvZNCgQbW+00WLFuVrX/tannzyybz//vuL7Q8AAPBZVZR6AgAAAF90hUIhhx12WC6//PLMmTMnG220UXr27Flv7YwZM9K6detawVuSrL322qmoqMiMGTNq6ioqKrLWWmvVqmvdunWd8RYsWJArrrgiV1xxRb33rO8ozCXx8XtVtz333HNJkrfeeitJcuKJJ+bEE09conu3adNmie5d/T3UV9+2bdssWrQo7777bq2Ab3Fjr7nmmrU+N27c+BPb58yZU9N24IEH5qGHHsoZZ5yRbbfdNi1atEihUMgee+xR6yjSah//fTVp0iRJamrffvvtJMm6665b71yT/32vHw+RP+qdd95J8+bNF3sdAADgsxAQAgAALIHBgwfnxz/+cYYNG5bzzjtvsXVrrbVWHn/88RSLxVoh4bRp07JgwYK0bNmypm7BggWZMWNGrdDpzTffrDXeGmuskYYNG+aQQw5Z7K609ddff5me6eP3qm6rnk/1XE855ZRa70/8qI033rjW548Ho4tTfY+pU6fWufbGG2+kQYMGWWONNZZp7CU1a9as3HfffTnzzDNz8skn17TPnTs377zzzjKN2apVqyTJf/7zn7Rv377emurv9Yorrsj2229fb80666yzTPcHAABYEgJCAACAJdCuXbv88Ic/zD//+c8MGjRosXW77LJLbr/99txzzz0ZMGBATfuNN95Ycz1Jdtppp1x00UX57W9/m+9973s1dTfffHOt8Zo1a5addtopEydOzFZbbVWzC255uOWWWzJ06NCa4O21117L+PHjc+ihhyapCv823HDDPPfcczn//POX232rx27Xrl1uvvnmnHjiiTVzeP/993PnnXeme/futXYPrgiFQiHFYrFmF2C1a6+9NgsXLlymMfv27ZuGDRvm6quvTvfu3eut2XHHHbP66qvn+eefz3e+851lug8AAMBnISAEAABYQj/96U8/tebQQw/NlVdemUGDBuXVV1/NlltumUcffTTnn39+9thjj+y6665JqoKkXr165aSTTsr777+frl275i9/+UtuuummOmNedtll6dGjR3r27JljjjkmHTt2zHvvvZeXX3459957bx5++OFlep5p06ZlwIABOfLIIzNr1qyceeaZqayszCmnnFJT86tf/Sq77757+vXrl8GDB6ddu3Z555138sILL+SZZ57J7373u2W6d4MGDXLRRRfloIMOyp577pmjjjoqc+fOzc9+9rPMnDlzib7rz6pFixbp1atXfvazn6Vly5bp2LFjxo0bl+uuuy6rr776Mo3ZsWPHnHrqqTn33HPz4YcfZuDAgVlttdXy/PPPZ/r06Tn77LOzyiqr5IorrsigQYPyzjvvZP/998/aa6+dt99+O88991zefvvtXH311cv3YQEAAD5CQAgAALAcVVZWZsyYMTnttNPys5/9LG+//XbatWuXE088MWeeeWZNXYMGDfKHP/whQ4cOzUUXXZR58+Zlxx13zMiRI7PJJpvUGnOzzTbLM888k3PPPTenn356pk2bltVXXz0bbrhh9thjj2We6/nnn58nn3wyhx12WGbPnp1u3brl1ltvTefOnWtqdtpppzzxxBM577zzcvzxx+fdd9/NWmutlc022yzf/OY3l/neSdX7/5o3b54LLrggBxxwQBo2bJjtt98+Y8aMyQ477PCZxl5SN998c77//e/npJNOyoIFC7Ljjjtm9OjR+frXv77MY55zzjnZcMMNc8UVV+Sggw5KRUVFNtxww1o7RQ8++OB06NAhF110UY466qi89957WXvttbPNNttk8ODBy+HJAAAAFq9QLBaLpZ4EAAAAn5+xY8dmp512yu9+97vsv//+pZ4OAAAAn7MGpZ4AAAAAAAAA8PkREAIAAAAAAEAZccQoAAAAAAAAlBE7CAEAAAAAAKCMCAgBAAAAAACgjAgIAQAAAAAAoIxUlHoCUM4WLVqUN954I6uuumoKhUKppwMAAAAAQD2KxWLee++9tG3bNg0a2HvFl5+AEErojTfeSPv27Us9DQAAAAAAlsC///3vrLvuuqWeBnxmAkIooVVXXTVJ1f+otGjRosSzYWUyf/78jBo1Kn379k2jRo1KPR3KkDVIqVmDlJL1R6lZg5SS9UepWYOUkvW3cps9e3bat29f8+904ctOQAglVH2saIsWLQSELFfz589Ps2bN0qJFC/9ASklYg5SaNUgpWX+UmjVIKVl/lJo1SClZf+XBq6JYWTgoFwAAAAAAAMqIgBAAAAAAAADKiIAQAAAAAAAAyoiAEAAAAAAAAMqIgBAAAAAAAADKiIAQAAAAAAAAyoiAEAAAAAAAAMqIgBAAAAAAAADKiIAQAAAAAAAAyoiAEAAAAAAAAMqIgBAAAAAAAADKiIAQAAAAAAAAyoiAEAAAAAAAAMqIgBAAAAAAAADKiIAQAAAAAAAAyoiAEAAAAAAAAMqIgBAAAAAAAOAjhg8fnkKhkLPOOqvUU4EVQkAIAAAAAACUlbPOOiuFQiHDhw8v9VSgJASEAAAAAABAkmTixKRfv+TZZ0s9E2BFEhACAAAAAABJkttvT0aNqvoTWHkJCAEAAAAAgCTJ3Xf/788XXnghhxxySDp37pzKysq0atUq22yzTY4//vhMnTo1STJ27NgUCoUMHjw406ZNyxFHHJHWrVtnlVVWSY8ePTJ+/PiasYcNG5atttoqTZs2Tfv27XP22Wdn0aJF9c7j+eefz0EHHZQ2bdqkcePGadeuXQ499NC8+OKLi537yJEjs9tuu2WNNdZIZWVlNt5445x88smZOXNmrbqOHTvm7LPPTpIcdthhKRQKNT9jx46tM+6UKVNyxBFHJEnWWWeddO3aNffee2+duo9+F++8806OOeaYtGnTJk2aNMkWW2yR66+/frFzf/XVV3PUUUelY8eOadKkSVq1apX9998/f/3rX+utf/DBB9OvX7+su+66adKkSdq2bZsePXrUPFe1YrGYW2+9Nb169Urr1q1TWVmZ9u3bZ9ddd82VV1652Pmw8qso9QQAAAAAAIDSmzw5qc7f/vnPZ/LVr/bI3Llz0q1bt3Tr1i3vvfdeJk2alMsuuyz9+/dPmzZtavq+++676d69e+bMmZPu3btn6tSp+ctf/pLddtstTzzxRK655ppcc8012W677bLrrrtm3LhxOeusszJv3rycd955tebx0EMPZa+99sqHH36Yr371q+nTp0/++c9/5qabbsrdd9+dkSNHpmfPnrX6XHDBBTn11FNTUVGR3r17p2XLlvnLX/6SCy+8MHfffXf+/Oc/Z5111kmS7L///vnTn/6U5557LjvuuGM22GCDmnFat25da9xXX3012267bZo0aZIk2WqrrfLEE0+kf//++eMf/5i+ffvW+R5nzpyZ7t27Z9asWenWrVv++9//5s9//nOOOOKILFq0KEOGDKlV/+ijj+brX/96Zs+enc033zx77713Xn/99dx1110ZOXJk7r///uy000419cOGDcsxxxyTJk2apGfPnunVq1fefvvtvPDCCznrrLNy5pln1tSecsopufDCC7PqqqumR48eWX311TN16tQ899xzefnll3Pcccd96rpgJVUESmbWrFnFJMVZs2aVeiqsZObNm1e85557ivPmzSv1VChT1iClZg1SStYfpWYNUkrWH6VmDVJKK8P6u/zyYrFBg2IxKRaTQcUkxTvvvLNO3fPPP1984403isVisThmzJhikmKS4gEHHFD88MMPa+rOPPPMYpLiZpttVmzXrl3x73//e821f/zjH8XGjRsXmzVrVnzvvfdq2v/73/8W11lnnWKS4tVXX13rvpdcckkxSXHdddctzpkzp6b9iSeeKDZo0KC46qqrFh9//PGa9jlz5hS/8Y1vFJMUv/GNb9Qaq3puN9xwQ73fxQ033FDzXN/97neLM2bMqPl3uZdeemkxSbFnz561+nz0u9hvv/2K//3vf2uu3XPPPcUkxQ4dOtTqM2vWrGLr1q2LjRo1Kv7ud7+rdW306NHFxo0bF9u1a1ecO3duTft6661XbNGiRXHy5Mm16hctWlR8+OGHaz5/+OGHxSZNmhQ7duxYnDFjRq3a+fPnF8eNG1fvs1MeHDEKAAAAAADk97//6KdpSZKdd965Tt2mm25aa/dgkqy22moZNmxYKisra9qGDh2aQqGQ559/Pueee24233zzmmubbbZZvv71r+eDDz7IU089VdN+++2356233krPnj1z9NFH17rHCSeckC5duuQ///lP7q4+CzXJL3/5yyxatCjHH398unXrVtPepEmT/PKXv0zTpk1z55135vXXX1+q7yNJOnXqlJ///OepqPjfgYzHHXdc1lhjjTz22GOZN29enT4tWrTINddck+bNm9e07bPPPtlyyy0zZcqUvPrqqzXt119/fd58882ceOKJ2X///WuNs+uuu+bYY4/N66+/nvvuu6+mfdq0aVl//fXTsWPHWvWFQqHWTsPZs2dn7ty52XrrrbPmmmvWqq2oqEivXr2W6rtg5SIgBAAAAACAMjd7djJuXPK/VwJ2SZIceOCheeKJJxb7rsBqXbt2zeqrr16rrUWLFllrrbWSJLvttludPp07d06SmvcZJskjjzySJDnooIPqvc/BBx9cq+7T+qy99trp27dvFi1aVOt9iEuqT58+adSoUa22ioqKdOrUKfPnz8+MGTPq9OnatWudQC5JNtpooyS1n3f06NFJkv79+9d7/x49eiRJnnzyyZq2Ll265LnnnsvJJ5+cV155ZbFzX3vttbPuuuvm/vvvz89+9rO88cYbi62l/AgIAQAAAACgzI0alSxY8NGWHybpkz/+8d5st912WXPNNdOvX79cccUVee+99+r0b9euXb3jVu+iq+969bW5c+fWtFWHWB/fHVetuv2jYdcbb7yRQqGQ9dZbb4n7LKl111233vZVVlklSe25L0uf6t2E2223XQqFQp2f6l2F06dPr+lz5ZVXZv3118+FF16YDTbYIO3atcu3vvWt3HHHHXWC3BEjRmSNNdbISSedlHbt2qVTp04ZPHhwRo0atYTfACurik8vAQAAAAAAVmb33ptUVHw0JGyRhg0fzm67/SVbbXVvxo4dm4ceeiijRo3KBRdckEceeaRmB2BSdbzlJ/m060tbv7TjfVH7LFy4MEnyjW98I82aNVts3XbbbVfz11tttVWef/75PPDAAxk5cmTGjRuX2267Lbfddlt69OiRhx56KI0bN05SdUTsyy+/nPvuuy8PPPBAxo0blxEjRmTEiBH55je/mdtuu22pn4+Vg4AQAAAAAABWUq+/nrz11ifXFIvJH/7w8R2EycKFhTz2WI/85Cc9csABybvvvp2f/ez7efDBW3LMMafmpz+9Lf/6V1XtBx8sn/m2bds2STJ58uR6r7/22mtJUusdiG3bts3kyZPz2muvZeONN16iPl8U6667bl588cWcfvrp2WqrrZa4X2VlZfr3719zNOnzzz+fgQMH5tFHH811112XY445pqa2RYsWOfDAA3PggQcmSR577LF84xvfyO23357Bgwdn9913X67PxJeDI0YBAAAAAGAlNXBg0qXLJ/907ZrMmlV//1mzqq536ZLsumurPPjgWUmS0aP/li5dkqOOqqr785+Xz3x79uyZJPntb39b7/Xq9uq6T+vz9ttvZ9SoUWnQoEF22GGHmvbqHXYLPp6Kfs523XXXJMk999zzmcbZbLPNctxxxyVJ/va3v31i7fbbb59DDjlkiWpZeQkIAQAAAABgJTVkSFJZmXzaqZfF4sdbhiWZXE/7H///zw61WjfccJmnWMs3v/nNrLPOOnnkkUdyzTXX1Lp2+eWX58knn8y6666bAQMG1LQfd9xxadCgQS677LI89dRTNe3z5s3Ld7/73XzwwQfZd999a70HsXqn4osvvrh8Jr6MjjrqqLRq1Srnn39+brjhhhQ/9oW///77ufHGG/Of//wnSfLBBx/k8ssvz8yZM2vVLVq0qOa9gh06VP1upkyZkuHDh+eDj23vnDt3bsaMGVOrlvLjiFEAAAAAAFhJHXpo1Q7AAQOSl19OFi1a0p7DkhyTZLMkm6YqTngxybNJmiY5Mw0aJO3aJf/+d/KR1xF+Js2bN89vf/vb7LXXXjnqqKNyzTXXZKONNso///nPTJw4Mc2bN8/NN9+cJk2a1PTp1q1bzj333Jx22mnp3r17+vTpk5YtW+Yvf/lL/v3vf2fDDTfML3/5y1r36du3byorK/OLX/wif//739O2bdsUCoX88Ic/rPeY0hVljTXWyN1335299947hx9+eM4+++xsscUWadKkSaZMmZIXXngh77//fiZOnJh111038+bNy/e///388Ic/zFe/+tV07Ngx8+bNy1NPPZUpU6akU6dOOer/t3W+8847Oeyww3Lcccela9euWXfddfP+++9n/Pjxefvtt9OtW7fsu+++n9uz8sViByEAAAAAAKzENtsseeaZqrBwyZ2b5PAkhSQPJbk3yQdJvp3kr0m6Z9Cg5GOb/JaLXXbZJU8++WQGDhyY//znP7njjjvy5ptv5uCDD87TTz9d63jRaqeeemruu+++9O7dO08++WTuuuuuNGnSJCeddFIef/zxrLPOOrXq27Ztm9///vfZfvvt8+ijj+b666/Pddddl6lTpy7/B/oUO+64Y/72t7/lBz/4QZo2bZqHH344o0aNyuzZs7Pnnnvmtttuy2abbZYkWWWVVXLllVdmzz33zNtvv50//OEPefjhh7PGGmvk3HPPzdNPP5011lgjSdK5c+dcfPHF6dOnT6ZMmZK77rorf/nLX9KxY8dcfvnlGTt2bM1Rq5SfQvHj+1WBz83s2bOz2mqrZdasWWnRokWpp8NKZP78+Rk5cmT22GOPNGrUqNTToQxZg5SaNUgpWX+UmjVIKVl/lJo1SCl9WdbfiBHJ0Ucn8+cnCxcuff+KiqqfX/1qaQPHLzf/LpeVjR2EAAAAAABQJgYNSp5+uupI0AZLmRA0aFDVb+l3IwJfNAJCAAAAAAAoI9VHjg4YsHT9Bgyo6rfppitmXsDnR0AIAAAAAABlpnnzpG3bquNCl0RFRdKuXdKs2YqdF/D5EBACAAAAAECZWbQoue22ZMGCJatfsCC59daqfsCXn4AQAAAAAADKzPjxybRpS9dn2rRkwoQVMx/g8yUgBAAAAACAMnP77XWPF62oSCorkxNOqPqzYcO612+//fObI7DiCAgBAAAAAKCM1He8aIMGSefOydNPJ5dcUvVn585V7dUcMworDwEhAAAAAACUkfqOFx00KHnmmWSzzao+b7ZZ1edDD61d55hRWDkICAEAAAAAoIxUHxPasGHVUaIjRiTXX580a1a7rnnz5IYbkuHDax856phR+PITEAIAAAAAQJmoPl40STbYoOoo0Y/vEvy4QYP+d+Ro4phRWBkICAEAAAAAoEx8+GFV0HfYYbWPFP001UeODh5c1f/DD1foNIEVrKLUEwAAAAAAAD4fzZsnjz6aNFiG7UPVR44uWrRs/YEvDn8LAwAAAABAGfms4Z5wEL78/G0MAAAAAAAAZURACAAAAAAAAGVEQAgAAAAAAABlREAIAAAAAAAAZURACAAAAAAAAGVEQAgAAAAAAABlREAIAAAAAAAAZURACAAAAAAAAGVEQAgAAAAAAABlREAIAAAAAAAAZURACAAAAAAAAGVEQAgAAAAAAABlREAIAAAAAAAAZURACAAAAAAAAGVEQAgAAAAAAABlREAIAAAAAAAAZURACAAAAAAAAGVEQAgAAAAAAABlREAIAAAAAAAAZURACAAAAAAAAGVEQAgAAAAAAABlREAIAAAAAAAAZURACAAAAAAAAGVEQAgAAAAAAABlREAIAAAAAAAAZURACAAAAAAAAGVEQAgAAAAAAABlREDISuGqq67K+uuvn8rKynTp0iWPPPLIJ9aPGzcuXbp0SWVlZTp16pRhw4bVuj5//vycc8456dy5cyorK7P11lvngQceqFVz1llnpVAo1Ppp3br1cn82AAAAAACA5UlAyJfebbfdluOPPz6nnXZaJk6cmJ49e2b33XfPlClT6q2fPHly9thjj/Ts2TMTJ07Mqaeemu9973u58847a2pOP/30/OpXv8oVV1yR559/PkcffXQGDBiQiRMn1hpr8803z9SpU2t+/va3v63QZwUAAAAAAPisBIR86V1yySU54ogjMmTIkGy66aa59NJL0759+1x99dX11g8bNiwdOnTIpZdemk033TRDhgzJ4Ycfnosvvrim5qabbsqpp56aPfbYI506dcoxxxyTfv365ec//3mtsSoqKtK6deuan1atWq3QZwUAAAAAAPisBIR8qc2bNy9PP/10+vbtW6u9b9++GT9+fL19JkyYUKe+X79+eeqppzJ//vwkydy5c1NZWVmrpmnTpnn00Udrtb300ktp27Zt1l9//XzrW9/KpEmTPusjAQAAAAAArFAVpZ4AfBbTp0/PwoULs84669RqX2eddfLmm2/W2+fNN9+st37BggWZPn162rRpk379+uWSSy5Jr1690rlz5zz00EP5/e9/n4ULF9b02W677XLjjTdmo402yltvvZWf/OQn2WGHHfKPf/wja621Vr33njt3bubOnVvzefbs2Umq3nlYHU7C8lC9nqwrSsUapNSsQUrJ+qPUrEFKyfqj1KxBSsn6W7n5vbKyERCyUigUCrU+F4vFOm2fVv/R9ssuuyxHHnlkNtlkkxQKhXTu3DmHHXZYbrjhhpo+u+++e81fb7nllunevXs6d+6cESNGZOjQofXe94ILLsjZZ59dp33UqFFp1qzZpzwlLL3Ro0eXegqUOWuQUrMGKSXrj1KzBikl649SswYpJetv5fTBBx+UegqwXAkI+VJr2bJlGjZsWGe34LRp0+rsEqzWunXreusrKipqdv61atUq99xzT+bMmZMZM2akbdu2Ofnkk7P++usvdi7NmzfPlltumZdeemmxNaecckqt8HD27Nlp3759+vbtmxYtWnzq88KSmj9/fkaPHp3ddtstjRo1KvV0KEPWIKVmDVJK1h+lZg1SStYfpWYNUkrW38qt+jQ4WFkICPlSa9y4cbp06ZLRo0dnwIABNe2jR4/OPvvsU2+f7t275957763VNmrUqHTt2rXO/3BXVlamXbt2mT9/fu68885885vfXOxc5s6dmxdeeCE9e/ZcbE2TJk3SpEmTOu2NGjXyDw2sENYWpWYNUmrWIKVk/VFq1iClZP1RatYgpWT9rZz8TlnZNCj1BOCzGjp0aK699tpcf/31eeGFF3LCCSdkypQpOfroo5NU7do79NBDa+qPPvrovPbaaxk6dGheeOGFXH/99bnuuuty4okn1tQ8/vjjueuuuzJp0qQ88sgj+drXvpZFixblpJNOqqk58cQTM27cuEyePDmPP/549t9//8yePTuDBg36/B4eAAAAAABgKdlByJfeAQcckBkzZuScc87J1KlTs8UWW2TkyJFZb731kiRTp07NlClTaurXX3/9jBw5MieccEKuvPLKtG3bNpdffnn222+/mpo5c+bk9NNPz6RJk7LKKqtkjz32yE033ZTVV1+9puY///lPBg4cmOnTp6dVq1bZfvvt89hjj9XcFwAAAAAA4ItIQMhK4dhjj82xxx5b77Xhw4fXaevdu3eeeeaZxY7Xu3fvPP/88594z1tvvXWp5ggAAAAAAPBF4IhRAAAAAAAAKCMCQgAAAAAAACgjAkIAAAAAAAAoIwJCAAAAAAAAKCMCQgAAAAAAACgjAkIAAAAAAAAoIwJCAAAAAAAAKCMCQgAAAAAAACgjAkIAAAAAAAAoIwJCAAAAAAAAKCMCQgAAAAAAACgjAkIAAAAAAAAoIwJCAAAAAAAAKCMCQgAAAAAAACgjAkIAAAAAAAAoIwJCAAAAAAAAKCMCQgAAAAAAACgjAkIAAAAAAAAoIwJCAAAAAAAAKCMCQgAAAAAAACgjAkIAAAAAAAAoIwJCAAAAAAAAKCMCQgAAAAAAACgjAkIAAAAAAAAoIwJCAAAAAAAAKCMCQgAAAGC5ufzyy7P55punSZMmKRQK6dOnT6mn9IXSsWPHFAqFzzTG008/nb59+2b11VdPoVBIoVDIq6++mrFjx6ZQKGTw4MHLZ7IAAKy0Kko9AQAAAGDlcNddd+X73/9+1lhjjey9995p3rx5Ntlkk1JPa6Xy3nvvZe+9987UqVPTp0+ftG/fPoVCIausskqppwYAwJeIgBAAAABYNhMnJiefnFx4YbLNNrnnnnuSJHfccUd23nnn0s5tJfXkk0/mjTfeyCGHHJIbb7yx1NMBAOBLyhGjAAAAwLK5/fZk1KiqP5P85z//SZJ06tSplLNaqfmOAQBYHgSEAAAAwLK5++4kyVnXXJNCoZAxY8YkSdZff/2ad+ONHTs2STJjxoz88Ic/zIYbbpjKysqsueaa+drXvpZRo0bVO3ShUEjHjh0zb968nHPOOdlkk03SpEmT9O/fP2PGjEmhUMhhhx1Wq8/ChQuz2mqrpVAo5Oyzz6517e23306DBg2y7bbb1rTNmTMn1113XfbZZ5906tQpTZs2zeqrr55evXrl1ltvrXdegwcPrnmuBx98MDvttFPNuwBnzpyZJFmwYEEuuOCCmmft1KlTzjjjjMybN2+pv+Jqr776agqFQgYNGpQkOfvss2u+4yV55+CCBQtyxRVXpEuXLllllVWyyiqrpFu3brn66quzcOHCWrWDBg1KoVDIuHHjarXfcccdtd55+FEXX3xxCoVCrr766mV+RgAAPj+OGAUAAACW3uTJyYsvJkm2mTEjg/bbLw88+mjeeuut7LfffjXvxGvdunVef/319OrVK5MmTUqHDh3Sv3//vP322/nTn/6UBx98MJdccklOOOGEOrdYtGhR+vfvnz//+c/p3bt3ttpqq6y11lrp3r17mjRpUhNIVps4cWJmz56dJBkzZkzOPPPMmmvjxo1LsVhM7969a9peffXVDBkyJOuss0422WSTdOvWLW+++WbGjx+fRx55JP/85z9z1lln1fv4N998c6699tp07do1u+++e1555ZUUCoUkycCBA3PHHXdklVVWyde+9rUUi8VccsklmThxYorF4jJ93ausskoGDRqUl19+OX/5y1+y9dZbZ5tttkmS9OjR4xP7Lly4MPvss09GjhyZFi1aZNddd02SPPzwwzn22GMzevTo3HHHHWnQoOq/I+/Tp09uvPHGjBkzptb3VR32Vv/1R4PJ6ms9e/bMlClTlukZAQD4/AgIAQAAgKV3331JgwbJokXpXyikf58+6TN9et56661cfPHF6dixY03pXnvtlUmTJuWQQw7Jddddl0aNGiVJHn300fTr1y8//OEPs8suu2SrrbaqdYt///vfadKkSV588cW0a9eu1rXtttsuf/7zn/Pqq6/W3Ks6pNp8883z2GOPZc6cOamsrKx1rU+fPjVjtGrVKg8++GB23XXXmnAsSSZPnpydd9455557bgYPHlzrWar9+te/zq233poDDjigVvstt9ySO+64I506dcqf//znmnlPnjw5vXr1qjkidGm1bNkyw4cPz/Dhw/OXv/wl/fv3X2x4+XGXXnppRo4cmS233DJ/+tOfsvbaaydJpk6dmp122il33313hg0blmOPPTbJ/76jjwaC1Z833HDDvPbaa7UCwkWLFuXRRx9Ny5Yts/nmmwsIAQC+BBwxCgAAACy93//+f39dKNT+/BGTJk3KfffdlxYtWuTyyy+vCQeTqp1vRx99dBYuXJirrrqq3v4XXHBBnXAwSc3Oto+GWOPGjcvqq6+e733ve5k7d24ee+yxWtcaNGiQnj171rSttdZa6du3b61wMKk6IvW0007LokWLcu+999Y7r69//et1wsEkNUdsnnvuubXmvf766+eMM86od6wV7fLLL09SFRRWh4NJ0qZNm/zsZz+rVZNUzbVDhw41IWuSTJ8+Pc8//3y+9rWvZdttt631vU+cODGzZs1K7969a3ZRAgDwxSYgBAAAAJbO7NnJuHHJokVVnxctSsaOTT72Lrukapdgkuyxxx5ZffXV61w/5JBDkiSPPPJInWuFQiF77bVXvVP4+C636l1sPXv2zM4771zr2vTp0/OPf/wj22yzTVZbbbV65/iTn/wkxxxzTA477LAMHjw4v/vd75IkL730Ur3333vvveu0zZ8/P48//ngaNGiQ/fffv871gQMH1jvWijRlypRMmTIlrVu3rvlePmrPPffM6quvnhdffDFvv/12TXvv3r1rhazVR7T26dMnffr0yWuvvVbzHsLq7/mjx5ECAPDF5ohRAAAAYOmMGpUsWFC7bcGC5J136pS+8cYbSVLvMZ0fba+u+6i11147TZo0qbdf9+7d07hx45pwauLEiZk5c2Z22mmnbLDBBll33XVrrn003PqoWbNmZd99983DDz9c/3Mmee+99+pt79ChQ522GTNmZN68eWnTpk0aN25c5/qqq66a1VdfPTNnzlzs/Za3T/v+C4VC1ltvvcycOTNvvPFGWrVqlaQqgL3pppsyduzY9OnTJ2PHjk2hUEjv3r3TokWLnHfeeTXHjNZ3fCsAAF9sdhACAAAAS+fee5OKj/03xxUVyYwZi+2yuKMnq9vru179/sD6NG3aNN26davZyTZu3Lgk/wupevfuXXNE5sevVfvRj36Uhx9+OL169crYsWMzffr0LFiwIMViMQ8++GCSpFgs1nv/+uZWXftFPGZzSeb00ZqPH+E6bty4bLnllllrrbWy44471oSz1Ts311prrWyxxRYrZO4AACx/dhACAAAAVV5/PXnrrU+uKRaTP/yh/h2E06dX/fXf/16zm7DtvHlJksnPPJM880zV9XXWSf7//XzVx1S2adNmqafbp0+fPProoxk7dmzGjh2bNdZYI1tvvXXNtd/+9rd57LHHMnbs2DrvH0ySu+++Ow0bNswf/vCHOkePTpo0aann07JlyzRu3Dhvvvlm5s2bV2cX4Xvvvfe57h5MkrZt2yZJJk+evNiaKVOmJKn9O+jcuXPat2+fxx57LK+//nr+/ve/57vf/W6SqnC2+j2Ezz77bGbOnJkBAwZ8IYNRAADqZwchAAAAUGXgwKRLl0/+6do1mTWr/v7V7yDca6+a+h5nnpkkuf/BBzOzeowDD6zp8pvf/CZJ6oR3S6J6R+DDDz+cRx55JL169UqDBg1qXbvzzjvz97//PVtvvXWddyC+++67WXXVVet9L+Htt9++1PNp1KhRunXrlkWLFuXOO++sc/3WW29d6jE/qw4dOqRDhw5588036z1K9f7778+7776bjTfeuOZ40WrV7yG88MILUywWs9NOO9Vcq34P4fDhw2s+AwDw5SEgBAAAAKoMGZJUViafthNsMcdu1qdTkq8neS/J95PMb9IkOeKIJMmECRNy9dVXp2HDhjn22GOXero77LBDGjdunN/97neZOXNmrZCq+j2E1157bb3vH0ySjTbaKDNnzsxtt91Wq/0Xv/hFxowZs9TzSZKjjjoqSfLjH/84U6dOrWl/7bXXcu655y7TmJ9V9c6/E044IW+//XZN+5tvvpkf/vCHtWo+qvqY0V//+tcpFArp1atXzbXq7/PXv/51rc8AAHw5CAgBAACAKocemjz9dLLhhkmD5fevDH6VZP0kNybZcK21MvCPf8yuu+6anj175v33389FF12UrbbaaqnHrT7qcs6cOUnqhlS9e/euuVYddn3UKaeckiT51re+lV69euXAAw/M5ptvnhNPPDEnnHDCUs8nSQ466KAMGDAgL7/8cjbeeOMMGDAg/fv3z+abb54tt9wyHTp0WKZxP4sTTjghu+++e/76179mww03zL777psBAwZko402ygsvvJD+/fvnmGOOqdOv+vucM2dOttpqq6y55po116rD2Tlz5mTNNdfMlltu+Xk9DgAAy4GAEAAAAPifzTarelfgoYcutyHbJXly4MD84HvfS0XTprnrrrvy9NNPZ5dddsmDDz6YoUOHLvPY1SHWGmusUSdkrL728d1v1Q466KDcf//92X777fPss8/mj3/8Y9q2bZuHH344e++99zLNp1Ao5Lbbbst5552XVq1aZeTIkXn22Wfz3e9+N3fddVdJ3tNX/Z7Fyy67LJ06dcqDDz6YUaNGZeONN86VV16ZO+64o+Zo1o+q3oWZ1A1fmzVrlm233TZJ0qtXL+8fBAD4kikUi0txLgiwXM2ePTurrbZaZs2alRYtWpR6OqxE5s+fn5EjR2aPPfZIo0aNSj0dypA1SKlZg5SS9UepLdc1OGJEcvTRyfz5/3u/4NKoqKj6+dWvlmvgyBeX/xtIqVmDlJL1t3Lz73JZ2dhBCAAAANRv0KCqI0c7d176I0cbNKjqt5x3IwIAAJ+dgBAAAABYvOojRwcMWLp+AwZU9dt00xUzLwAAYJlVlHoCAAAAwBdc8+ZJ27ZVx4UuWPDp9RUVSbt2SbNmK35uX2KPPvporr322iWq7d+/f/r3779iJwQAQNkQEAIAAACfbNGi5LbbliwcTKrqbr01+cUvlv5o0jLy8ssvZ8SIEUtU27FjRwEhAADLjYAQAAAA+GTjxyfTpi1dn2nTkgkTkh13XDFzWgkMHjw4gwcPLvU0AAAoQ/4zPgAAAOCT3X571bGhH1VRkVRWJiecUPVnw4Z1r99+++c3RwAAYIkJCAEAAIDFq+940QYNks6dk6efTi65pOrPzp1rHydafczookWf/5wBAIBPJCAEAAAAFq++40UHDUqeeSbZbLOqz5ttVvX50ENr11UfMwoAAHyhCAgBAACAxas+JrRhw6qjREeMSK6/PmnWrHZd8+bJDTckw4fXPnLUMaMAAPCFIyAEAAAA6ld9vGiSbLBB1VGiH98l+HGDBv3vyNHEMaMAAPAFJCAEAAAA6vfhh1VB32GH1T5S9NNUHzk6eHBV/w8/XKHTBAAAlk5FqScAAAAAfEE1b548+mjSYBn+++LqI0cXLVq2/gAAwArjn9ABAACAxfus4Z5wEAAAvnD8UzoAAAAAAACUEQEhAAAAAAAAlBEBIQAAAAAAAJQRASEAAAAAAACUEQEhAAAAAAAAlBEBIQAAAAAAAJQRASEAAAAAAACUEQEhAAAAAAAAlBEBIQAAAAAAAJQRASEAAAAAAACUEQEhAAAAAAAAlBEBIQAAAAAAAJQRASEAAAAAAACUEQEhAAAAAAAAlBEBIQAAAAAAAJQRASEAAAAAAACUEQEhAAAAAAAAlBEBIQAAAAAAAJQRASEAAAAAAACUEQEhAAAAAAAAlBEBIQAAAAAAAJQRASEAAAAAAACUEQEhAAAAAAAAlBEBIQAAAAAAAJQRASEAAAAAAACUEQEhAAAAAAAAlBEBISuFq666Kuuvv34qKyvTpUuXPPLII59YP27cuHTp0iWVlZXp1KlThg0bVuv6/Pnzc84556Rz586prKzM1ltvnQceeOAz3xcAAAAAAKDUBIR86d122205/vjjc9ppp2XixInp2bNndt9990yZMqXe+smTJ2ePPfZIz549M3HixJx66qn53ve+lzvvvLOm5vTTT8+vfvWrXHHFFXn++edz9NFHZ8CAAZk4ceIy3xcAAAAAAOCLQEDIl94ll1ySI444IkOGDMmmm26aSy+9NO3bt8/VV19db/2wYcPSoUOHXHrppdl0000zZMiQHH744bn44otram666aaceuqp2WOPPdKpU6ccc8wx6devX37+858v830BAAAAAAC+CASEfKnNmzcvTz/9dPr27VurvW/fvhk/fny9fSZMmFCnvl+/fnnqqacyf/78JMncuXNTWVlZq6Zp06Z59NFHl/m+AAAAAAAAXwQVpZ4AfBbTp0/PwoULs84669RqX2eddfLmm2/W2+fNN9+st37BggWZPn162rRpk379+uWSSy5Jr1690rlz5zz00EP5/e9/n4ULFy7zfZOq4HHu3Lk1n2fPnp2k6p2H1eEkLA/V68m6olSsQUrNGqSUrD9KzRqklKw/Ss0apJSsv5Wb3ysrGwEhK4VCoVDrc7FYrNP2afUfbb/sssty5JFHZpNNNkmhUEjnzp1z2GGH5YYbbvhM973gggty9tln12kfNWpUmjVrtth+sKxGjx5d6ilQ5qxBSs0apJSsP0rNGqSUrD9KzRqklKy/ldMHH3xQ6inAciUg5EutZcuWadiwYZ1de9OmTauzu69a69at662vqKjIWmutlSRp1apV7rnnnsyZMyczZsxI27Ztc/LJJ2f99ddf5vsmySmnnJKhQ4fWfJ49e3bat2+fvn37pkWLFkv+4PAp5s+fn9GjR2e33XZLo0aNSj0dypA1SKlZg5SS9UepWYOUkvVHqVmDlJL1t3KrPg0OVhYCQr7UGjdunC5dumT06NEZMGBATfvo0aOzzz771Nune/fuuffee2u1jRo1Kl27dq3zP9yVlZVp165d5s+fnzvvvDPf/OY3l/m+SdKkSZM0adKkTnujRo38QwMrhLVFqVmDlJo1SClZf5SaNUgpWX+UmjVIKVl/Kye/U1Y2AkK+9IYOHZpDDjkkXbt2Tffu3XPNNddkypQpOfroo5NU7dp7/fXXc+ONNyZJjj766Pzyl7/M0KFDc+SRR2bChAm57rrrcsstt9SM+fjjj+f111/PNttsk9dffz1nnXVWFi1alJNOOmmJ7wsAAAAAAPBFJCDkS++AAw7IjBkzcs4552Tq1KnZYostMnLkyKy33npJkqlTp2bKlCk19euvv35GjhyZE044IVdeeWXatm2byy+/PPvtt19NzZw5c3L66adn0qRJWWWVVbLHHnvkpptuyuqrr77E9wUAAAAAAPgiEhCyUjj22GNz7LHH1ntt+PDhddp69+6dZ555ZrHj9e7dO88///xnui8AAAAAAMAXUYNSTwAAAAAAAAD4/AgIAQAAAAAAoIwICAEAAAAAAKCMCAgBAAAAAACgjAgIAQAAAAAAoIwICAEAAAAAAKCMCAgBAAAAAACgjAgIAQAAAAAAoIwICAEAAAAAAKCMCAgBAAAAAACgjAgIAQAAAAAAoIwICAEAAAAAAKCMCAgBAAAAAACgjAgIAQAAAAAAoIwICAEAAAAAAKCMCAgBAAAAAACgjAgIAQAAAAAAoIwICAEAAAAAAKCMCAgBAAAAAACgjAgIAQAAAAAAoIwICAEAAAAAAKCMCAgBAAAAAACgjAgIAQAAAAAAoIwICAEAAAAAAKCMCAgBAAAAAACgjAgIAQAAAAAAoIwICAEAAAAAAKCMCAgBAAAAAACgjAgIAQAAAAAAoIwICAEAAAAAAKCMCAgBAAAAAACgjAgIAQAAAAAAoIwICAEAAAAAAKCMCAgBAAAAAACgjAgIAQAAAAAAoIwICAEAAAAAAKCMCAgBAAAAAACgjAgIAQAAAAAAoIwICAEAAAAAAKCMCAgBAAAAAACgjAgIAQAAAAAAoIwICAEAAAAAAKCMCAgBAAAAAACgjAgIAQAAAAAAoIwICAEAAAAAAKCMCAgBAAAAAACgjAgIAQAAAAAAoIwICAEAAAAAAKCMCAgBAAAAAACgjAgIAQAAAAAAoIwICAEAAAAAAKCMCAgBAAAAAACgjAgIAQAAAAAAoIwICAEAAAAAAKCMCAgBAAAAAACgjAgIAQAAAAAAoIwICAEAAAAAAKCMCAgBAAAAAACgjAgIAQAAAAAAoIwICAEAAAAAAKCMCAgBAAAAAACgjAgIAQAAAAAAoIwICAEAAAAAAKCMCAgBAAAAAACgjAgIAQAAAAAAoIwICAEAAAAAAKCMCAgBAAAAAACgjAgIAQAAAAAAoIwICAEAAAAAAKCMCAgBAAAAAACgjAgIAQAAAAAAoIwICAEAAAAAAKCMCAgBAAAAAACgjAgIAQAAAAAAoIwICAEAAAAAAKCMCAgBAAAAAACgjAgIAQAAAAAAoIwICAEAAAAAAKCMCAgBAAAAAACgjAgIAQAAAAAAoIwICAEAAAAAAKCMCAhZKVx11VVZf/31U1lZmS5duuSRRx75xPpx48alS5cuqaysTKdOnTJs2LA6NZdeemk23njjNG3aNO3bt88JJ5yQOXPm1Fw/66yzUigUav20bt16uT8bAAAAAADA8lRR6gnAZ3Xbbbfl+OOPz1VXXZUdd9wxv/rVr7L77rvn+eefT4cOHerUT548OXvssUeOPPLI/OY3v8lf/vKXHHvssWnVqlX222+/JMlvf/vbnHzyybn++uuzww475F//+lcGDx6cJPnFL35RM9bmm2+eP/3pTzWfGzZsuGIfFgAAAAAA4DMSEPKld8kll+SII47IkCFDklTt/HvwwQdz9dVX54ILLqhTP2zYsHTo0CGXXnppkmTTTTfNU089lYsvvrgmIJwwYUJ23HHHHHjggUmSjh07ZuDAgXniiSdqjVVRUWHXIAAAAAAA8KXiiFG+1ObNm5enn346ffv2rdXet2/fjB8/vt4+EyZMqFPfr1+/PPXUU5k/f36SpEePHnn66adrAsFJkyZl5MiR+frXv16r30svvZS2bdtm/fXXz7e+9a1MmjRpeT0aAAAAAADACmEHIV9q06dPz8KFC7POOuvUal9nnXXy5ptv1tvnzTffrLd+wYIFmT59etq0aZNvfetbefvtt9OjR48Ui8UsWLAgxxxzTE4++eSaPtttt11uvPHGbLTRRnnrrbfyk5/8JDvssEP+8Y9/ZK211qr33nPnzs3cuXNrPs+ePTtJMn/+/JpwEpaH6vVkXVEq1iClZg1SStYfpWYNUkrWH6VmDVJK1t/Kze+VlY2AkJVCoVCo9blYLNZp+7T6j7aPHTs25513Xq666qpst912efnll/P9738/bdq0yRlnnJEk2X333Wv6b7nllunevXs6d+6cESNGZOjQofXe94ILLsjZZ59dp33UqFFp1qzZEjwpLJ3Ro0eXegqUOWuQUrMGKSXrj1KzBikl649SswYpJetv5fTBBx+UegqwXAkI+VJr2bJlGjZsWGe34LRp0+rsEqzWunXreusrKipqdv6dccYZOeSQQ2rea7jlllvm/fffz7e//e2cdtppadCg7um8zZs3z5ZbbpmXXnppsfM95ZRTaoWHs2fPTvv27dO3b9+0aNFiyR4alsD8+fMzevTo7LbbbmnUqFGpp0MZsgYpNWuQUrL+KDVrkFKy/ig1a5BSsv5WbtWnwcHKQkDIl1rjxo3TpUuXjB49OgMGDKhpHz16dPbZZ596+3Tv3j333ntvrbZRo0ala9euNf/D/cEHH9QJARs2bJhisViz2/Dj5s6dmxdeeCE9e/Zc7HybNGmSJk2a1Glv1KiRf2hghbC2KDVrkFKzBikl649SswYpJeuPUrMGKSXrb+Xkd8rKpu42KPiSGTp0aK699tpcf/31eeGFF3LCCSdkypQpOfroo5NU7do79NBDa+qPPvrovPbaaxk6dGheeOGFXH/99bnuuuty4okn1tTstddeufrqq3Prrbdm8uTJGT16dM4444zsvffeadiwYZLkxBNPzLhx4zJ58uQ8/vjj2X///TN79uwMGjTo8/0CAAAAAAAAloIdhHzpHXDAAZkxY0bOOeecTJ06NVtssUVGjhyZ9dZbL0kyderUTJkypaZ+/fXXz8iRI3PCCSfkyiuvTNu2bXP55Zdnv/32q6k5/fTTUygUcvrpp+f1119Pq1atstdee+W8886rqfnPf/6TgQMHZvr06WnVqlW23377PPbYYzX3BQAAAAAA+CISELJSOPbYY3PsscfWe2348OF12nr37p1nnnlmseNVVFTkzDPPzJlnnrnYmltvvXWp5wkAAAAAAFBqjhgFAAAAAACAMiIgBAAAAAAAgDIiIAQAAAAAAIAyIiAEAAAAAACAMiIgBAAAAAAAgDIiIAQAAAAAAIAyIiAEAAAAAACAMiIgBAAAAAAAgDIiIAQAAAAAAIAyIiAEAAAAAACAMiIgBAAAAAAAgDIiIAQAAAAAAIAyIiAEAAAAAACAMiIgBAAAAAAAgDIiIAQAAAAAAIAyIiAEAAAAAACAMiIgBAAAAAAAgDIiIAQAAAAAAIAyIiAEAAAAAACAMiIgBAAAAAAAgDIiIAQAAAAAAIAyIiAEAAAAAACAMiIgBAAAAAAAgDIiIAQAAAAAAIAyIiAEAAAAAABWmMGDB6dQKGTs2LHLPEbHjh1TKBRqtb366qspFArp06fPUo3Vp0+fFAqFvPrqq596jyQpFArZcsstl3bKrEBnnXVWCoVChg8fXuqpfGkJCAEAAAAAAJbC2LFjUygUMnjw4FJPZaW0PEJlPpmAEAAAAAAA+HQTJyb9+iXPPrtU3S644IK88MIL6dat2zLf+qGHHsoLL7ywzP0/6sYbb8wLL7yQdu3aLVH9Cy+8kN///vfL5d7wRVFR6gkAAAAAAABfArffnowalXTpkmyzzRJ3a9OmTdq0afOZbt25c+fP1P+jOnTosFT1m2yySWbPnr3c7g9fBHYQAgAAAAAAn+7uu/N0ksIFF2T77bdfbNlFF12UQqGQ0047Lcnij4ucMWNGTj311Gy++eZZZZVVstpqq2WjjTbKoYcemieeeKJW7eLeD1ht9uzZ+f73v5/27dunsrIym266aX7xi19k0aJFdWoX9w7Cxfn4OwgHDx6cnXbaKUkyYsSIFAqFmp+zzjorTz75ZAqFQnbcccfFjnn22WenUCjkJz/5yRLN4eMef/zxDBgwIOutt16aNGmS1q1bp1u3bjnllFPy3//+t6Zu+PDhNfN65ZVX8s1vfjMtW7ZMixYtsvvuu+f5559PkixYsCDnn39+Ntpoo1RWVmaDDTbIVVddtdj7T5gwIfvss09atWqVJk2apGPHjjn22GPzxhtvLLbPTTfdlB49eqRFixZp1qxZttpqq1xwwQWZM2dOrbpCoZARI0YkSXbaaada3299v7O//e1v2XvvvbPGGmukefPm6d27d8aPH1+n7qPfxZQpU3LggQemVatWadq0abp27Zp77713sXP/29/+loMOOijt2rVLkyZN0rZt2xx22GH1zqdYLObWW29Nr1690rp161RWVqZ9+/bZddddc+WVV9aqnT9/fn71q1+lW7duadmyZZo1a5aOHTtmzz33zK233rrY+SwPdhACAAAAAACfbPLk5MUX0yXJJqkKqF555ZV6d/bdfPPNSZIDDzxwscP997//zfbbb5+XX345G264Yfr165ckmTJlSm655ZZ06tRpiY8knTt3bnbeeee88sor2XnnnTNv3rw89NBDGTp0aP7617/mhhtuWOrH/SQ9evTIm2++mQcffDCdO3dOjx49aq5ts8022XbbbdOlS5eMHz8+//jHP7L55pvX6r9o0aLccMMNadiwYQ477LClvv/999+fvffeuyaE3GGHHfLuu+/mX//6V37605/mqKOOyiqrrFKrz+TJk9OtW7esvvrq6d27d1566aU88MADefrpp/PXv/41Rx99dB5++OF07949nTp1ypgxY3LcccelUaNGOfLII2uN9Zvf/CaDBw/OokWLssMOO6R9+/Z55plncvXVV+euu+7K2LFjs8kmm9Tqc9RRR+Waa65JZWVldt555zRr1ixjx47NqaeemnvvvTcPPfRQmjZtmiQZNGhQHn300bzyyivp169fWrduXTPOx5/rqaeeynHHHZd11103u+yyS15++eX8+c9/zi677JInn3wyW2yxRZ3v79VXX822226bysrK9OjRI2+99VYmTJiQ/v37549//GP69u1bq/7OO+/MgQcemHnz5qVLly7ZYYcd8sorr2T48OG59957M27cuFq/41NOOSUXXnhhVl111fTo0SOrr756pk6dmueeey4vv/xyjjvuuJraQw45JLfddltatmyZHXbYIc2aNcvrr7+eRx55JP/973/zrW99a0mWxLIpAiUza9asYpLirFmzSj0VVjLz5s0r3nPPPcV58+aVeiqUKWuQUrMGKSXrj1KzBikl649SswYppZV+/V1+ebHYoEGxmBTPSYpJiuecc06dsueff76YpLjNNtvUtA0aNKiYpDhmzJiathtuuKGYpPjd7363zhhvvfVW8W9/+1uttvXWW6/48Uhj8uTJxfz/XLbaaqvi22+/XXPt5ZdfLrZt27aYpPj73/++Vr/evXsXkxQnT578qfcoFovFJMUOHTrU+ne5Y8aMKSYpDho0qE59sVgsXnPNNcUkxeOPP77OtT/+8Y/FJMW99tqr3r6fpnfv3sVCoVB86qmn6lx7/PHHi7Nnz675XP09JykOHTq0uHDhwmKxWCwuWrSoOHjw4GKS4mabbVbcYostiv/+979r+v3pT38qJimut956tcafMmVKsWnTpsWKiorivffeW9O+cOHC4vHHH19MUtx2221r9bnjjjuKSYrt2rUrvvTSSzXts2bNKvbo0aOYpPjDH/6wVp/61sxHnXnmmTXPdeGFF9a6Vj2PQw45pFb7R7+L7373u8X58+fXXLv00kuLSYo9e/as1WfSpEnFZs2aFVdbbbXiuHHjal0bMWJEnef98MMPi02aNCl27NixOGPGjFr18+fPrzVG9frddtttix9++GGt2g8++KA4fvz4ep99eXHEKAAAAAAA8Ml+//uavzzo/4/6/O1vf1unrLrtoIMO+sThpk2bliTZeeed61xbe+2169359UkuvvjitGzZsuZz586dc8YZZyRJnWMdPw8HHnhgWrRokZtuuilz586tde3aa69Nkjo785bUtGnTstpqq6VLly51rnXr1i2rrrpqnfbOnTvnwgsvTIMGVbFQoVDI0KFDkyTPP/98Lr/88qy77ro19bvssku+8pWv5LXXXqt1jOa1116bDz/8MAMHDsyee+5Z096gQYP89Kc/Tdu2bfPkk0/mscceq7l2+eWXJ0nOOeecbLDBBjXtLVq0yFVXXZVCoZBhw4Zl3rx5S/1d9OjRIyeddFKtttNPPz1J8uc//7nePp06dcrPf/7zVFT875DN4447LmussUYee+yxWvO47LLL8sEHH+Siiy5Kr169ao1z6KGHpn///nnyySfzzDPPJKk66nbu3LnZeuuts+aaa9aqr6ioqDVG9d8DO+ywQyorK2vVNm3aNN27d1+i72BZCQgBAAAAAIDFmz07GTcu+f/3+XUqFrN9khdffLEmGKl26623pkGDBp96NGJ1uHXqqafmvvvuq/MeuqWx5pprZrfddqvTXn3E6fjx41MsFpd5/GXRvHnzHHTQQZkxY0buvvvumvZp06blD3/4Q9q2bZs99thjmcbu0qVLZs6cmSOOOCJ///vfl6hPnz59agViSVVQliSNGzdO79696/SpPj526tSpNW2PPPJIkvoD4CZNmuQb3/hGrbr58+fnscceS6FQqPfI2S233DJbbbVV3nvvvTz33HNL9Cwf9fHjQJNkrbXWylprrVVr3h/Vp0+fNGrUqFZbRUVFOnXqlPnz52fGjBk17aNHj06S7LPPPvWOVX287JNPPpmkKtxed911c//99+dnP/vZJ76TcZNNNknz5s1zww035Ne//nWt+34eBIQAAAAAAMDijRqVLFhQq6k6HvroLsLHHnssr7zySnr37l1rN1p9dtlll5xwwgn55z//mb322iurrbZatttuu5xxxhm1dqwtifXWW6/e9hYtWmT11VfPf//738yePXupxlwejj766CTJr3/965q24cOHZ/78+Tn88MPTsGHDZRr3/PPPz9Zbb53rr78+W265ZVq1apV99tknN9xwQ53ditXatWtXp6158+ZJktatW9fsLKzv+kfHrA68OnbsWO99qtur62bMmJF58+ZlnXXWqbNLbnF9lsbi1tkqq6yy2B2Jn9Qnqf281WuxdevWKRQKdX5OPPHEJMn06dNr+owYMSJrrLFGTjrppLRr1y6dOnXK4MGDM2rUqFr3a9GiRX79619n0aJF+fa3v51WrVpl0003zbHHHltrB+aKIiAEAAAAAAAW7957k4/tPjugYcNUFAq59dZbs+j/dxbefPPNST79eNFql1xySV544YVceOGF6dOnT/7xj3/kJz/5STbeeOPcc889y2Xqn/fOwY/aaqutsv3222fMmDF55ZVXkiTXXXddCoVCjjjiiGUet3379nnqqafy4IMP5rvf/W7atm2be++9N4cffni22WabvPvuu3X6FP7/WNj6fNK1Ze3z8etLco8VMY/P2mfhwoUpFAoZNGjQJ/5svvnmNX123nnnvPzyy/ntb3+bQw45JAsXLsyIESPSr1+/HHDAAbXGHzhwYCZNmpRf//rX2X///fPOO+/k6quvTvfu3escnbq8VXx6CQAAAAAAsNJ5/fXkrbc+uaZYTP7whzo7CFstXJjdKiryxzfeyNhrrknvLl1y+803p0njxtlvgw2Sjx49+sEHix1+4403zkknnZSTTjopc+bMyZVXXpkTTzwxRx11VPr3779EjzFlypR622fPnp1Zs2alefPmadGixRKNtbwdffTReeyxx3LdddelX79++de//pW+ffsudgfekqqoqEjfvn1rjticMmVKDjvssDz88MP56U9/mgsvvHA5zL6utm3b5sUXX8zkyZOz0UYb1bn+2muvJUnatGmTpOq4z8aNG+fNN9/Mhx9+mKZNm35qny+SddddN6+88kouv/zypVpDLVq0yIEHHlhzrOpjjz2Wb3zjG7n99tszePDg7L777jW1rVq1ypAhQzJkyJAUi8U8+OCDOeCAA/Kzn/0sgwcPzmabbbbcnyuxgxAAAAAAAMrTwIFJly6f/NO1azJrVr3dD/r/0PDmY47JQ9265a0ZM/L1efOyep8+tcf485+XaDqVlZX5wQ9+kDZt2mTatGmZNm3aEvWbMWNG/vSnP9Vpv+WWW5IkO+ywwzLtNPskjRs3TpIs+Fhw+nHf/OY3s8Yaa2T48OG5+uqrkyRHHnnkcp1LknTo0CE/+tGPkiR/+9vflvv41Xr27Jmk9tGy1ebNm5ff/e53teoaNWqU7bffPsViseb38VF///vf89xzz2XVVVfN1ltvXdO+pN/virbrrrsmyWfe0br99tvnkEMOSfLJv59CoZCvfe1r+frXv54kS/yOyWUhIAQAAAAAgHI0ZEhSWZl8Wni2mGM6+ydpnuTOJDf8f1utw0ULharxN9ywTt977rmn3vesTZw4MW+99VZWXXXVrLHGGp/+DP/vhz/8YWbMmFHzefLkyTn33HOTJMcee+wSj7Ok2rZtmyR58cUXP7GuadOmOfTQQzN16tTcdtttNe8L/Cx+8Ytf5K16dn4+8MADSarCwhXliCOOSNOmTXPLLbfk/vvvr2lftGhRTj311Lz++uvZdttts/3229dc++53v5skOfPMMzNp0qSa9vfeey/f+c53UiwWc9RRR9WEgsmSf78r2g9+8IM0bdo0J5xwQu6999461995551cddVV+fDDD5NU7eQcPnx4PvjYrtm5c+dmzJgxSf73+5k4cWLuuuuuzJ8/v1btu+++m8cff7xW7YrgiFEAAAAAAChHhx5atUNwwIDk5ZeT/3+X4JJqnmSfJDcnuTXJakm+Xn2xQYOqYPCuu5KLLkoefbRW37Fjx+ayyy5Lu3bt8pWvfCUtWrTIG2+8kUcffTSLFi3Kueeem0aNGi3RPLbffvvMmzcvG264YXbeeefMmzcvDz30UD744IMcfPDBS3xU6dLo2LFjttpqqzz11FPp1q1bNt988zRs2DB777139t5771q1Rx11VC677LIkyeDBg5f4uRbn7LPPzoknnpitt946G264YYrFYv7617/mxRdfTMuWLfPDH/7wM43/STp06JBrrrkmgwcPzl577ZUdd9wx7du3zzPPPJMXX3wx66yzTm688cZaffbff/98+9vfzjXXXJMtttgiO++8c5o1a5axY8fm7bffzvbbb5+zzz67Vp+99tor55xzTn7wgx9k9OjRadmyZZLkwgsvzFprrbXCnu/jNtxww/zmN7/JwQcfnL333jsbb7xxNt100xSLxbz22mt5/vnnM2/evBx44IFp2rRp3nnnnRx22GE57rjj0rVr16y77rp5//33M378+Lz99tvp1q1b9t133yRVR6vut99+WW211dK1a9e0bt06M2fOzCOPPJLZs2dnwIABtYLW5c0OQgAAAAAAKFebbVb1vsBDD12m7h/dMbhfkibVHwYNqhp3Me9PGzx4cH7wgx+kbdu2eeKJJ3LnnXdm8uTJ2WOPPTJmzJh8//vfX+I5NGnSJA8//HAGDhyYCRMm5MEHH0z79u1z8cUXZ/jw4cv0XEvizjvvTP/+/TNp0qTceOONue666/LMR9+9+P823XTTmh1xQ4YM+cz3veKKK/Ktb30rH3zwQf74xz/mgQceSMOGDXPiiSfmr3/9azp37vyZ7/FJDj744Pz5z3/OnnvumRdeeCF33HFHPvzwwxxzzDF5+umns8kmm9Tp86tf/So33nhjvvKVr2TcuHG59957s/baa+e8887Lww8/nGbNmtWq79KlS37zm99k8803z6hRo3Ldddfluuuuy3vvvbdCn60+++67b5577rkcddRRmT9/fv74xz9m7NixmTt3bg466KDcd999WW211ZIknTt3zsUXX5w+ffpkypQpueuuu/KXv/wlHTt2zOWXX56xY8fW7JTcfvvt85Of/CRdunTJiy++mN/97nd56qmnstVWW2XEiBG5/fbbV+hzFYrFxewNBla42bNnZ7XVVsusWbNK9pJcVk7z58/PyJEjs8cee3zm/yIJloU1SKlZg5SS9UepWYOUkvVHqVmDlNJKsf5GjEiOPjqZPz9ZuHDp+1dUVP386lfLHDh+UX2Wf5c7fvz47Ljjjundu3fGjh27YiYIS8kOQgAAAAAAoGrX39NPJ507Vx0RujQaNKjq9xl2I66szj///CTJd77znRLPBP5HQAgAAAAAAFSpPnJ0wICl6zdgQFW/TTddMfP6khk/fnyOOOKIbLfddrn//vvTpUuXmnfPwRdBRaknAAAAAAAAfIE0b560bVt1XOiCBZ9eX1GRtGuXfOw9cuXsX//6V66//vqsuuqq2WuvvfLLX/4yDRazK/PEE0/M9OnTl2jcFflORcqLgBAAAAAAAPifRYuS225bsnAwqaq79dbkF79Y+qNJV1KDBw/O4MGDl6j2jjvuyGuvvbZEtQJClhd/pwIAAAAAAP8zfnwybdrS9Zk2LZkwYcXMZyX36quvplgsLtEPLC8CQgAAAAAA4H9uv73q2NCPqqhIKiuTE06o+rNhw7rXb7/985sj8JkICAEAAAAAgCr1HS/aoEHSuXPy9NPJJZdU/dm5c+3jRKuPGV206POfM7DUBIQAAAAAAECV+o4XHTQoeeaZZLPNqj5vtlnV50MPrV3nmFH40hAQAgAAAAAAVaqPCW3YsOoo0REjkuuvT5o1q13XvHlyww3J8OG1jxx1zCh8KQgIAQAAAACA/x0vmiQbbFB1lOjHdwl+3KBB/ztyNHHMKHxJCAgBAAAAAIDkww+rgr7DDqt9pOinqT5ydPDgqv4ffrhCpwl8dhWlngAAAAAAAPAF0Lx58uijSYNl2FtUfeTookXL1h/4XPm7FAAAAAAAqPJZwz3hIHwp+DsVAAAAAAAAyoiAEAAAAAAAAMqIgBAAAAAAAADKiIAQAAAAAAAAyoiAEAAAAAAAAMqIgBAouUKh8Ik/ffr0qbd+jTXWyMyZM+sd86yzzkqhUMhPf/rTOtdmzpyZM844I9tss02aN2+epk2bpkOHDunVq1dOO+20PPvss7Xqhw8f/qlzHD58+PL5MgAAAAAAYAWrKPUEAKoNGjSo3vZNNtmk3vaZM2fmF7/4Rc4+++wlvsdrr72WXr16ZcqUKVl11VWzww47ZO2118706dPz1FNP5ZFHHsmMGTMybNiwOn07d+6cHj161DvuBhtssMRzAAAAAACAUhIQAiUxcWJy8snJhRf+r21pduE1aNAgFRUVufTSS3P88cdnjTXWWKJ+3/nOdzJlypTsueee+c1vfpPVVlut5tqCBQsyevTovPXWW/X27dGjh52CAAAAAAB86TliFCiJ229PRo2q+nNZNGrUKEOGDMns2bNzySWXLFGfDz/8MA888ECS5NJLL60VDiZJRUVFdt999wwePHjZJgUAAAAAAF8CAkKgJO6+u/afy+LUU09NkyZNctlll+Wdd9751Pp33303CxYsSJK0atVq2W8MAAAAAABfYgJC4HM3eXLy4otVf/3Pfy77OO3atcuRRx6Z9957Lz//+c8/tb5ly5aprKxMknrfMQgAAAAAAOVAQAh87u67L2nw///Xp1D4bGOdcsopqayszBVXXJEZM2Z8Ym3jxo1zyCGHJEl+9KMfZdttt82ZZ56ZBx54ILNmzfpsEwEAAAAAgC8JASHwufv97//31x8NCAuFQr0/M2fOXOxYbdu2zbe//e289957ufjiiz/13pdeemkOOeSQFAqFPPXUUznnnHOy++67Z6211spOO+2UUaNGLbbviBEj6p1f//79l+CpAQAAAADgi6Gi1BMAysvs2cm4ccmiRVWfq/9MkkGDBtXbp3Hjxp845sknn5xrrrkmv/zlL/ODH/wgLVu2XGxts2bNcuONN+a0007LHXfckUcffTRPPvlkZsyYkbFjx2bs2LH5+c9/nqFDh9bp27lz5/To0aNO+1e/+tVPnB8AAAAAAHyRCAiBz9WoUcmCBfVfGz58+DKN2aZNmxx99NG59NJL87Of/SwXXnjhp/bZeOONc9pppyVJFi1alAkTJuSUU07JI488kh/96EfZb7/9st5669Xq06NHj2WeIwAAAAAAfFE4YhT4XN17b1KxAv7ThB/96Edp2rRprrzyyrz99ttL1bdBgwbZcccd88ADD6R9+/ZZsGBBHnzwweU/SQAAAAAA+AKwgxBYLl5/PXnrrU+uKRaTP/xh8TsIn3669jsJ67POOvW3t27dOsccc0wuueSSXHTRRWnevPmnT/pjmjVrlm7duuXf//53pk+fvtT9AQAAAADgy0BACCwXAwcmjzzy6XWfFAB27frp/Xv1Wvy1H/3oRxk2bFiuuuqqHHrooZ8+WD1eeeWVJEnbtm2XqT8AAAAAAHzROWIUWC6GDEkqKz99B2CxuGzjFwpV4x9xxOJr1l577Rx77LH54IMPMmLEiDrXZ86cme222y5333135s+fX+va/Pnz85Of/CTPPvtsmjZtmq997WvLNlEAAAAAAPiCs4MQWC4OPbRqB+CAAcnLLyeLFi2/sRs0SDbcMLnrrmSzzZJBgxZfe9JJJ+Xqq6/O+++/X+/1J554Ivvuu29atGiRLl26pHXr1pk5c2aeffbZTJ06NQ0bNszVV1+d1q1bL78HAAAAAACALxA7CIHlZrPNkmeeqQoLl6dBg6rG3WyzT69t1apVjjvuuHqvrbbaahk/fnx+/OMfZ5tttsmkSZNy5513ZuzYsWnRokWGDBmSZ555JoM+KYEEAAAAAIAvOTsIgeWqefPkhhuSPn2So49O5s9PFi78tF51zx2tqKj6+dWv6gaOxU85p/TCCy/MhRdeWKe9UCike/fu6d69+6dNqJbBgwdn8ODBS9UHAAAAAAC+qOwgBFaIQYOSp59OOneuOiJ0aTRoUNVvRexGBAAAAACAcicgBFaY6iNHBwxYun4DBlT123TTFTMvAAAAAAAoZ44Y5XPzhz/8Yan77LbbbmnatOkKmA2fl+bNk7Ztq44LXbDg0+srKpJ27ZJmzVb83AAAAAAAoBwJCPnc9O/ff6nqC4VCXnrppXTq1GnFTIjPxaJFyW23LVk4mFTV3Xpr8otfLP3RpAAAAAAAwKfzr9/5XL355ptZtGjREv00s4VspTB+fDJt2tL1mTYtmTBhxcwHAAAAAADKnYCQz82gQYOW6rjQgw8+OC1atFii2quuuirrr79+Kisr06VLlzzyyCOfWD9u3Lh06dIllZWV6dSpU4YNG1an5tJLL83GG2+cpk2bpn379jnhhBMyZ86cz3TfcnT77VXHhn5URUVSWZmccELVnw0b1r1+++2f3xwBAAAAAKCcCAj53Nxwww1ZddVVl7j+6quvTsuWLT+17rbbbsvxxx+f0047LRMnTkzPnj2z++67Z8qUKfXWT548OXvssUd69uyZiRMn5tRTT833vve93HnnnTU1v/3tb3PyySfnzDPPzAsvvJDrrrsut912W0455ZRlvm85qu940QYNks6dk6efTi65pOrPzp1rHydafczookWf/5wBAAAAAGBlJyDkS++SSy7JEUcckSFDhmTTTTfNpZdemvbt2+fqq6+ut37YsGHp0KFDLr300my66aYZMmRIDj/88Fx88cU1NRMmTMiOO+6YAw88MB07dkzfvn0zcODAPPXUU8t833JU3/GigwYlzzyTbLZZ1efNNqv6fOihtescMwoAAAAAACuGgJCSmDNnTn72s59ljz32SNeuXfPVr3611s+SmjdvXp5++un07du3Vnvfvn0zfvz4evtMmDChTn2/fv3y1FNPZf78+UmSHj165Omnn84TTzyRJJk0aVJGjhyZr3/968t833JUfUxow4ZVR4mOGJFcf33y8ddLNm+e3HBDMnx47SNHHTMKAAAAAADLX8Wnl8Dyd/jhh2f06NHZf//9061btxQKhWUaZ/r06Vm4cGHWWWedWu3rrLNO3nzzzXr7vPnmm/XWL1iwINOnT0+bNm3yrW99K2+//XZ69OiRYrGYBQsW5JhjjsnJJ5+8zPdNkrlz52bu3Lk1n2fPnp0kmT9/fk04ubJYtCi59daKJIV07lzM7bcvyGabJZ/0mAcemGyzTfKNb1TkpZcKueWWYi66aEGt40dZMtXraWVbV3x5WIOUmjVIKVl/lJo1SClZf5SaNUgpWX8rN79XVjYCQkri/vvvz8iRI7Pjjjsul/E+HjAWi8VPDB3rq/9o+9ixY3PeeeflqquuynbbbZeXX3453//+99OmTZucccYZy3zfCy64IGeffXad9lGjRqXZx7fVfcnNmdMwa665Q7ba6r18+9t/y6uvLsyrry5Z33PPbZhrrtkyr7++au65Z3wqKxeu0LmuzEaPHl3qKVDmrEFKzRqklKw/Ss0apJSsP0rNGqSUrL+V0wcffFDqKcByJSCkJNq1a5dVV131M4/TsmXLNGzYsM6uvWnTptXZ3VetdevW9dZXVFRkrbXWSpKcccYZOeSQQzJkyJAkyZZbbpn3338/3/72t3Paaact032T5JRTTsnQoUNrPs+ePTvt27dP375906JFiyV/8C+J/v2TBg1WTdJ2qfvuu2/VLsQGDfot93mVg/nz52f06NHZbbfd0qhRo1JPhzJkDVJq1iClZP1RatYgpWT9UWrWIKVk/a3cqk+Dg5WFgJCS+PnPf54f/ehHGTZsWNZbb71lHqdx48bp0qVLRo8enQEDBtS0jx49Ovvss0+9fbp375577723VtuoUaPStWvXmv/h/uCDD9LgY+daNmzYMMViMcVicZnumyRNmjRJkyZN6rQ3atTIPzSwQlhblJo1SKlZg5SS9UepWYOUkvVHqVmDlJL1t3LyO2VlIyCkJLp27Zo5c+akU6dOadasWZ3/4/rOO+8s8VhDhw7NIYcckq5du6Z79+655pprMmXKlBx99NFJqnbtvf7667nxxhuTJEcffXR++ctfZujQoTnyyCMzYcKEXHfddbnllltqxtxrr71yySWX5Ctf+UrNEaNnnHFG9t577zRs2HCJ7gsAAAAAAPBFJCCkJAYOHJjXX389559/ftZZZ51PfG/fpznggAMyY8aMnHPOOZk6dWq22GKLjBw5smZn4tSpUzNlypSa+vXXXz8jR47MCSeckCuvvDJt27bN5Zdfnv3226+m5vTTT0+hUMjpp5+e119/Pa1atcpee+2V8847b4nvCwAAAAAA8EUkIKQkxo8fnwkTJmTrrbdeLuMde+yxOfbYY+u9Nnz48DptvXv3zjPPPLPY8SoqKnLmmWfmzDPPXOb7AgAAAAAAfBE1+PQSWP422WSTfPjhh6WeBgAAAAAAQNkREFISP/3pT/ODH/wgY8eOzYwZMzJ79uxaPwAAAAAAAKwYjhilJL72ta8lSXbZZZda7cViMYVCIQsXLizFtAAAAAAAAFZ6AkJKYsyYMaWeAgAAAAAAQFkSEFISvXv3LvUUAAAAAAAAypJ3EPK5+etf/5pFixYtcf0//vGPLFiwYAXOCAAAAAAAoPwICPncfOUrX8mMGTOWuL579+6ZMmXKCpwRAAAAAABA+XHEKJ+bYrGYM844I82aNVui+nnz5q3gGQEAAAAAAJQfASGfm169euXFF19c4vru3bunadOmK3BGAAAAAAAA5UdAyOdm7NixpZ4CAAAAAABA2fMOQgAAAAAAACgjAkIAAAAAAAAoIwJCAAAAAAAAKCMCQgAAAAAAACgjAkIAAAAAAAAoIxWlngDl6eH/Y+/Ow7Ss6v+Bv59hWATEXRAVRXDDXUhFXLAUl0xByyWTGRWLtFJIU/NrofmTNCXScksEdzS3tEygFAK3ErRyyV0xQxETUVFZZn5/TDMxzrAvD/C8Xtc11/Cc+5z7/jwzJ5J5zznnoYdy99135/XXX0+hUEjHjh3z1a9+Nfvss0+xSwMAAAAAAFitWUHICte/f//sv//+ue222/Lee+/l3XffzS233JL99tsv3/3ud4tdHgAAAAAAwGpNQMgKdc8992T48OG5/vrrM23atDz22GN5/PHH8+677+bXv/51rr322tx3333FLhMAAAAAAGC1JSBkhRo+fHgGDhyYysrKFAqFuvaysrKceOKJOf300zNs2LAiVggAAAAAALB6ExCyQk2aNCl9+vSZ7/UjjzwyEydOXIEVAQAAAAAAlBYBISvUtGnTsvHGG8/3+sYbb5z33ntvBVYEAAAAAABQWgSErFCzZs1Ks2bN5nu9vLw8s2bNWoEVAQAAAAAAlJbyYhdA6TnvvPPSsmXLRq/NnDlzBVcDAAAAAABQWgSErFD77LNPXnjhhYX2AQAAAAAAYPkQELJCjR07ttglAAAAAAAAlDRnEAIAAAAAAEAJERCywj3//PMZPnx4/vnPfyZJ/vnPf+bb3/52TjzxxDz00ENFrg4AAAAAAGD1ZotRVqgHH3wwhx9+eFq3bp2ZM2fmnnvuSd++fbPTTjuluro6Bx54YEaNGpUvfvGLxS4VAAAAAABgtWQFISvUBRdckDPPPDPvvfdehg8fnq9//es5+eSTM2bMmPzxj3/MD37wg/z0pz8tdpkAAAAAAACrLQEhK9Szzz6bysrKJMlRRx2VDz/8MEceeWTd9WOPPTZ///vfi1QdAAAAAADA6k9ASNGUlZWlRYsWWXvtteva1lxzzXzwwQfFKwoAAGA5ufzyy7PddtulefPmKRQK6dmzZ7FLWqlsvvnmKRQKxS5jqYwYMSKFQiGDBg1aYc/s2bNnCoVCXn/99SW+R6FQyOabb16vbezYsSkUCnW/5Luottxyy/Tu3XuRnvH666/73wIAQJEICFmhNt9887z88st1rx977LF06NCh7vWbb76ZjTbaqBilAQAALDd33313TjvttEyZMiWHHXZYKioqctBBBxW7LFgpFSNoBQAoNeXFLoDS8u1vfztz586te7399tvXu/6HP/whX/ziF1d0WQAAAMveU08lZ5+dXHxx7r333iTJnXfe6d88LFM33nhjZs6cmY033niJ7/H888+nadOmy6SeBx98MH/6058Wqe/GG2+c559/Pi1btlwmzwYAYNEJCFmh+vfvv8Dr/+///b8VVAkAAMBydscdyejRSdeu+de//pUk2WKLLYpcFKubeXflWVLbbLPNMqikRqdOnfLCCy8sUt+mTZsu02cDALDobDHKSmfq1KnFLgEAAGDp3XNPBiUpDB6chx9+OEnSsWPHFAqFFAqFjB07Nkny3nvv5cwzz8yWW26ZFi1aZN11181BBx2U0aNHN3rb2rPcZs2alQsuuCDbbLNNmjdvnt69e+fhhx9Os2bNcvnll9cbM3fu3Ky11lopFAo5//zz61179913U1ZWli984Qt1bZ9++mmGDRuWww8/PFtssUXWWGONrL322tlnn30ycuTIRuuqrKyse1+jRo3Kfvvtl7XXXjuFQiHTp09PksyZMyeDBw+ue69bbLFFzjvvvMyaNWvxv76f8/LLL2fQoEHp3r172rVrl2bNmmWTTTZJ37598+KLLzY6pvZrOXfu3FxyySXZaqut0rx582y66aY566yz8tlnnzU67u9//3sOPfTQrLXWWllrrbVywAEH5LHHHluq+u+6664UCoUcc8wx8+1zyimnpFAo5Ne//nVd2/zOIHzzzTdz6qmnZuutt07Lli2z7rrrZrvttsu3vvWtBgFeY+cDzmvKlCmprKxM27Zts8Yaa2TXXXfNjTfe2Gjf+Z1B2JjGziDs2bNnTjjhhCTJ+eefX/e/l0KhkBEjRuQ3v/lNCoVCjjvuuPne94QTTkihUMjNN9+8SHUAAJQiKwhZoVq2bJk33ngjG2ywQZLkoIMOyvDhw+vOHXznnXfSvn37etuQAgAArHJeey154YXsnKQiyYPrr593pk3LkUcemdatWydJ2rVrl7feeiv77LNPXn311XTo0CG9e/fOu+++mz/+8Y8ZNWpUhgwZkgEDBjS4fVVVVXr37p0///nP2XfffbPjjjtmvfXWS/fu3dO8efP84x//qNf/qaeeyowZM5IkDz/8cH784x/XXRs3blyqq6uz77771rW9/vrr6devX9q2bZttttkmu+22W95+++08+uijGT9+fP75z3/O93y4W2+9Ndddd126deuWgw8+OK+88koKhUKS5Nhjj82dd96Z1q1b56CDDkp1dXWGDBmSp556KtXV1Uv+9U5y3XXX5eKLL06XLl3SrVu3tGjRIs8991xuuumm/Pa3v8348eOz4447Njr2uOOOy+9+97vstttu2XrrrTN+/PhccskleeuttxqETE888US++MUvZubMmdl5552zzTbb5Jlnnsm+++6bysrKJa6/NnC877778tFHH9XNk1pz5szJb37zmzRr1ixf/epXF3ivf/3rX9l1110zbdq07LjjjvnKV76STz/9NG+88UZ+/etfp3v37tl6660Xqa7//Oc/2WOPPfLZZ5+lZ8+eef/99/Pwww+noqIir732Wr25tCwcdNBBmTNnTh555JHstNNO2Xnnneuude7cObvvvnvatWuXu+66K1dccUXWXXfdeuNnzJiR3/zmN1l77bUX+nUCAChlAkJWqE8//bTeP/oeeeSRfPLJJ/X6LO0/CgEAAIrud79LysrSu6oqvQuF9Fx77bwzbVouvfTSeiu1vvKVr+TVV1/N8ccfn2HDhtWdAzdhwoQceOCBOfPMM/OlL32pQbD15ptvpnnz5nnhhRcanD232267Zfz48Xn99dez5ZZbJkndasXtttsujz/+eD799NO0aNGi3rV5V3FtsMEGGTVqVPbff/+Ulf1v86HXXnstX/ziF/OTn/wklZWVja46+/Wvf52RI0fm6KOPrtd+22235c4778wWW2yRP//5z3V1v/baa9lnn33qtmFdUr17987JJ5+cTp061WsfPnx4TjzxxJx++ul56KGHGox744030rJlyzzzzDN17+e1115L165dc8stt+T888+vu2dVVVUqKyszc+bMDB48OGeffXbdfc4777xceOGFS1x/8+bNc+SRR+b666/PPffck+OPP77e9dGjR2fatGnp3bt31llnnQXe67rrrsu0adNy2WWXZeDAgQ3e75w5cxa5rvvvvz8HHHBA7rnnnrRq1SpJ8te//jVf/OIXc8EFF+Twww+vF+ItrbPPPjvt2rXLI488kt69ezcaRJ944om56KKLctNNN+W0006rd+3WW2/Nxx9/nO9+97t1cxwAgIZsMcpKp/Y3SwEAAFZZv/3t//5cKCTTpjXo8uqrr+Z3v/td2rRpk8svv7wuHEySvfbaK/3798/cuXNz5ZVXNvqIwYMHNwgHk2TvvfdOkvz5z3+uaxs3blzWXnvtfO9738tnn32Wxx9/vN61srKyunFJst5666VXr171wsGkZovUc889N1VVVbn//vsbrevLX/5yg3AwSa666qokyU9+8pN6dXfs2DHnnXdeo/daHHvssUeDcDCp2W6yR48eGTt2bD744INGx15xxRX1ws6OHTvmG9/4RpJk/Pjxde1jx47NP//5z2y11VY566yz6t3jxz/+8VKfB1i7beYtt9zS4Nqtt95ar8+C1B7d8cUvfrHBtc0226zRr9P8FAqFXHHFFXXhYJJ84QtfyKmnnpqqqqq67+uKdPLJJ6esrCzXXXddg2u1bf369VvRZQEArFIEhAAAALAszZiRjBuXVFXVvK6qSv57Bt+8JkyYkCQ55JBDsvbaaze4XruCbN6AqlahUMhXvvKVRh9fu1XouHHj/vv4qkyYMCF77713XWBUu2pw2rRpefbZZ7PzzjtnrbXWarTGCy+8MN/+9rdzwgknpLKyMr/5zW+SJC+99FKjzz/ssMMatM2ePTtPPPFEysrKGt328dhjj230Xovro48+ym233ZazzjorJ598ciorK1NZWZkpU6akuro6r7zySoMxTZs2rbd6stZWW22VpOb8vVq137Ovfe1rDX65tby8fKm3tOzZs2c23njj/PGPf6wL+ZJk5syZ+e1vf5s2bdrk0EMPXeh9unbtmiQ59dRT8/DDDy/WisHP22WXXRrdjrT2e1b7NVmRNt988xx44IF55pln6oXdTz31VCZOnJjdd999vtvJAgBQwxajrFC1B4vP7zUAAMAqb/ToZBECmX//+99J0ug2nfO21/ab14YbbpjmzZs3Om6PPfZIeXl53QrCp556KtOnT89+++2Xzp07Z5NNNqkLCGvPH/x8QPbBBx/kiCOOaHRLzloffvhho+2NraJ77733MmvWrGy00UZp1qxZg+trrrlm1l577UxvJEhdVA899FCOOeaYvPvuu4tV80YbbZQmTZo0aK89A/Czzz6ra6v9XsxvpeDSriAsKyvLMccck8suuyy33357vvvd7yZJ3bmEJ5xwwiJtm1lZWZnRo0fnjjvuyBe/+MW0bNmy7kzIE088MRtuuOEi17TZZps12r6g+bkifOtb38of/vCH/PrXv84ee+yRpGZ726RmhSEAAAtmBSErVHV1dbbaaqusu+66WXfddfPRRx9ll112qXu9zTbbFLtEAACApXP//Un5ov8+7vx+abK2vbHrCwqJ1lhjjWy55ZZ544038vrrr9etJKwNAffdd9+6cwg/f63WWWedlYceeij77LNPxo4dm2nTpmXOnDmprq7OqFGjksz//PjGaqvtu7x+QfSjjz7KUUcdlXfffTfnnXdennvuuXz88cepqqpKdXV13Wq3xmpenJqW9/tI/reFaO2WovP+eVG2F02SJk2a5Pbbb8+kSZPy4x//ON26dcvjjz+ec845J1tuuWW9VXerqkMPPTSbbLJJbr/99nz44Yf55JNPcuutt2bNNddsdItbAADqs4KQFWr48OHFLgEAAGDJvPVW8s47C+5TXZ3cd9/8VxD+4x/Jf/6TJGk/a1aS5LVJk5JJk/7Xp23bZOON8/rrryepWeG2uLbffvs8//zzGTt2bMaOHZt11lknO+20U5KaMPCWW27J448/nrFjxzY4fzBJ7rnnnjRp0iT33Xdfg61HX3311cWuZ/3110+zZs3y9ttvZ9asWQ1WEX744YdLtXpw/Pjxee+993LkkUfmggsuaHB9SWpuTPv27ZMkb7zxRqPXJ0+evNTP2GWXXbLtttvm8ccfz6uvvpp11lkno0aNykYbbZT99ttvse+1yy67ZNCgQZkxY0bOP//8DBkyJKeddlqeeOKJRbrH/N5rbXvt12RFa9KkSfr165dBgwbltttuS/PmzfPBBx/km9/8Zt3qTwAA5k9AyApVUVFR7BIAAACWzLHHJo2cB9jAglaXzXM+317//fz7UaMyfdSorF17YZ99knHjcvPNNydJg/BuUWy//fb5zW9+k4ceeijjx4/Pvvvum7Kymk2EalcL3nXXXXnmmWey8847NzgD8f3338+aa67Z6LmEd9xxx2LX07Rp0+y2226ZMGFC7rrrrgZnDo4cOXKx7zmv999/P0my6aabNrj28ssvZ9K8AexS2Guvmu/aXXfdlZ/85Cf1VhLOmTMnd9111zJ5znHHHZf/+7//y6233poNN9wws2bNyrHHHlv3PVwSbdq0yUUXXZSf//zn+cc//rHI455++um8+OKLdWcy1rrtttuSJD169FjimuanNkBe2NmJ/fr1y09+8pP8+te/rtty1/aiAACLxhajrHC/+c1vctxxx+Woo47KtddeW+xyAAAAFk2/fkmLFgsOAJOaVYSLYIskX07yYZLTksxOau5/0kl57LHHctVVV6VJkyY55ZRTFrvUbbbZJs2aNctvfvObTJ8+vd4WorXnEF533XWNnj+YJFtttVWmT5+e22+/vV77z3/+8zz88MOLXU9Sc2ZckvzoRz/KlClT6trfeOON/OQnP1mie9aqDa/uvvvuemcQTp8+PSeddFJmz569VPevtd9++2WrrbbKP//5z1x66aX1rl144YXzXW23uL7+9a8nSW655ZbF3l40SW666aY888wzDdoffPDBVFdXL9ZZiVVVVfne976XmTNn1rVNnDgxv/rVr1JWVlb3fV2WalclvvDCCwvst/HGG+fQQw/Nk08+mUceeSQ77bRTunXrtszrAQBYHQkIWaGuvfbaHH300XnyySfzwgsv5Nvf/nbOOeecYpcFAACwcH37JhMnJltumSzFSq55XZOkY5Ibk2xZXp5j99sv+994Y/bee+98/PHHueSSS7Ljjjsu9n2bN2+ebt265dNPP03S8IzBfffdt+7avvvu22B87b/TjjnmmOyzzz75+te/nu222y5nnHFGBgwYsNj1JDUBV58+ffLyyy9n6623Tp8+fdK7d+9st9122WGHHRYrtPq8bt265YADDsjkyZOz1VZbpU+fPunTp086duyYf//73zn88MOX+N7zKisry4gRI7LGGmvkBz/4QXbdddd8/etfz4477piLLroo/fr1WybP6dixY/bcc8/885//zLhx47LNNttk1113XeTxd911V3bYYYd07tw5ffr0yde//vXsueee6dOnT5o0aZKLLrpoke916KGH5vnnn0+nTp1y9NFH56CDDkr37t3z4Ycf5oc//GG6du26JG9xgfbYY49suOGGufPOO9OzZ8+ceOKJ6devXx599NEGfecNKL/5zW8u81oAAFZXAkJWqCuuuCLnnntuXnjhhfztb3/LsGHD8stf/rLYZQEAACyaLl1qzgvs23eZ3G7jJH9N8v3ttkt5hw65+09/ysSJE/OlL30po0aNysCBA5f43vvss0+SZJ111mkQMtYGhoVCoa7fvI477rj8/ve/zx577JGnn346f/jDH9K+ffs89NBDOWyebVIXR6FQyO23357/9//+XzbYYIM88MADefrpp/Pd7343d999d73tOpfEb3/725x77rnZYIMN8oc//CETJ07MMccck8cff7zBFqpLo3v37nn00Udz8MEH5+WXX87vfve7bLDBBnn44YeX6Xab864YrF1RuKgGDhyYU089NWuuuWbGjx+fe+65J1OnTs2xxx6bv/71rzniiCMW+V7rrbdeHnvssey///55+OGHM3bs2HTp0iXDhw9f6pWf89OiRYv8/ve/zwEHHJCnn346I0aMyLBhw/Liiy826LvvvvumSZMmWWONNRZrlSUAQKkrVFcv4t4nsAy0atUq//jHP7LFFlskSebOnZs11lgjkydPTrt27Ypc3Yo3Y8aMrLXWWvnggw/Spk2bYpfDamT27Nl54IEHcsghh6Rp06bFLocSZA5SbOYgxWT+lZAbbkj6909mz07mzl388eXlNR/XXLPMAsfEHKS4VvT8u/XWW3PccceloqIiI0aMWO7PY+Xn70CKyfxbvflZLqsbKwhZoT755JO0bt267nWTJk3SvHnzemcZAAAArBIqKmq2HO3UafG3HC0rqxm3DFcjQqmZPXt2LrnkkiTJqaeeWuRqAABWLeXFLoDSc91119ULCefMmZMRI0Zk/fXXr2v73ve+V4zSAAAAFk/tlqMVFclddy36uD59khtvTFq2XH61wWrqvvvuy7333pu//OUvefbZZ9OnT5984QtfKHZZAACrFAEhK1SHDh3y61//ul5bu3btctNNN9W9LhQKAkIAAGDV0apV0r59zXahc+YsvH95ebLxxsLBBZgwYUKuu+66Rerbu3fv9O7de/kWtITOOOOMTJs2bZH62h5z0U2aNCnDhw/POuusk+OOOy6//OUvi10SAMAqR0DICvX6668XuwQAAIBlq6oquf32RQsHk5p+I0cmP//54m9NWiJefvnl3HDDDYvUd/PNN19pA8I777wzb7zxxiL1FRAuukGDBmXQoEHFLgMAYJUmIAQAAICl8eijydSpizdm6tTksceSHj2WT02ruMrKylRWVha7jKXml2QBAFhZ+VVFVqhDDjkkH3zwQd3r//f//l+mT59e9/q9995Lly5dilAZAADAErrjjpptQ+dVXp60aJEMGFDzuUmThtfvuGPF1QgAADAPASEr1KhRo/LZZ5/Vvb744ovzn//8p+71nDlz8sILLxSjNFitNGvWLL17906zZs1SKBTStGnTrL/++tlhhx1SWVmZu+66K3Ma2QKrUCgs1sfmm2++2LVVVlYu9L7z/qb14vYHAFihGttetKws6dQpmTgxGTKk5nOnTvW3E63dZrSqasXXDAAAlDxbjLJCVVdXL/A1sGwdf/zxKSsrS1VVVT744IO8+OKLufHGG3PDDTekc+fOueWWW7LbbrvV9a+oqGhwjwkTJuSVV17JTjvtlJ133rnetfXXX3+Ja+vRo0c6d+7c6LXWrVsvdX8AgBWise1FKyqSX/4yadmy5nWXLsmkScl3vpPMe86cbUYBAIAiERACrC6eeio5++zk4ovrmoYNG5amTZvW6/bKK6/khz/8Ye64447st99+eeSRR+qCvxHz/sDqvyorK/PKK6+kd+/eGTRo0DIrt1+/fot1rszi9gcAWCFqtwlt0iRp2jS55pqkb9+G/Vq1SoYPT3r2TPr3T2bPTubOrRkvIAQAAFYwW4yyQtVuB/j5NmAZuOOOZPTohZ5l06lTp9x+++056aSTMnPmzJx44okrqEAAgNVM7faiSdK5c81Woo2Fg/OqqPjflqOJbUYBAICisIKQFaq6ujqVlZVp3rx5kuTTTz9N//7906pVqySpdz4hsJjuuaf+54W47LLLMnLkyDz11FOZMGFC9tprr+VYHADAauiTT2qCvi9/uf6Wogsz75ajL7xQc5///psIAABgRRAQskJ9/nyzb3zjGw369F3Yb9wCDb32Ws0Pl5Lkn/9cpCFrrbVWDj744Nx55515+OGHBYQAAIurVatkwoSkbAk256ndcrSqasnGAwAALAUBISvU8OHDi10CrJ5+97uaHyxVVSWFQlJdvUjDdt5559x55515/vnnl3OBAACrqaUN94SDAABAEfiXCMDq4Le//d+fF+Ncz/XXXz9J8v777y/rihbqhBNOqDuXdN6PoUOHLpP+AAAAAAA0zgpCgFXdjBnJuHE1qweT/31eBNX/XWlYWIxQcVnp0aNHOnfu3KC9S5cuy6Q/AAAAAACNExACrOpGj07mzFmiodOmTUuSrLvuusuyokXSr1+/VFZWLrf+AAAAAAA0zhajAKu6++9Pypfs9z2efvrpJFbhAQAAAACUEisIAVZWb72VvPPOgvtUVyf33Tf/FYSTJiVNmzZ66YMPP8yDDzyQJNlvv/2WplIAAAAAAFYhAkKAldWxxybjxy+83wLOD2y6xx7zvfb9JB8n+cKaa6Z79+6LXx8AAAAAAKskW4wCrKz69UtatFhgAJikZhXhYng1ydFJhiVplWTYWWctYYEAAAAAAKyKrCAEWFn17Zt065b06ZO8/HJSVbXYt6j87+eqJDOSvJjkn0mqk2zZtGluvfnm7HDUUcuqYgAAAAAAVgECQoCVWZcuNecIfuc7yYgRiz38hv9+Lk/SJkn7JH2THLbffjns3ntT3qbNMisVAAAAAIBVg4AQYGXXqlUyfHjSs2fSv38ye3Yyd+4ChzS66Wh5ec3HNdfUrE5cRCNGjMiIJQgnl9X9lvXzAQAAAABKnTMIAVYVFRXJxIlJp05J2WL+9V1WVjNu0qTFCgcBAAAAAFj9CAgBViW1W4726bN44/r0qRm37bbLpy4AAAAAAFYZthgFWNW0apW0b1+zXeicOQvvX16ebLxx0rLlMi9lwoQJue666xapb+/evdO7d+9lXgMAAAAAAItHQAiwqqmqSm6/fdHCwaSm38iRyc9/vvhbky7Eyy+/nBtuuGGR+m6++eYCQgAAAACAlYCAEGBV8+ijydSpizdm6tTksceSHj2WaSmVlZWprKxcpvcEAAAAAGD5cgYhwKrmjjtqtg2dV3l50qJFMmBA0qJFqps0aXj9jjtWXI0AAAAAAKy0BIQAq5LGthctK0s6dUomTkyGDKn5vMUWqS4U/tendpvRqqoVXzMAAAAAACsVASHAqqSx7UUrKpJJk5IuXWped+mSOX/5Sybvt1/9frXbjAIAAAAAUNIEhACrktptQps0qdlS9IYbkuuvT1q2rN+vVas8/b3vZc5119X0q91y1DajAAAAAAAlT0AIsKqo3V40STp3rtlKtG/fBQ6p7tu3pl+nTjUNthkFAAAAACh5AkKAVcUnn9QEfSecUH9L0YXp0qWmf2VlzfhPPlmuZQIAAAAAsHITELJauPLKK9OxY8e0aNEiXbt2zfjx4xfYf9y4cenatWtatGiRLbbYIldffXW96z179kyhUGjw8eUvf7muz6BBgxpcb9eu3XJ5f5AkadUqmTCh8S1FF2Xs8OE141u1Wj71AQAAAACwShAQssq7/fbbc/rpp+fcc8/NU089lb333jsHH3xwJk+e3Gj/1157LYccckj23nvvPPXUU/nhD3+Y733ve7nrrrvq+tx9992ZMmVK3cczzzyTJk2a5Gtf+1q9e2233Xb1+v3jH/9Yru8VUraUf20v7XgAAAAAAFZ55cUuAJbWkCFDctJJJ6Vfv35JkqFDh2bUqFG56qqrMnjw4Ab9r7766nTo0CFDhw5Nkmy77bZ58sknc+mll+bII49Mkqy77rr1xowcOTItW7ZsEBCWl5dbNQgAAAAAAKxSLCVhlTZr1qxMnDgxvXr1qtfeq1evPProo42Oeeyxxxr0P/DAA/Pkk09m9uzZjY4ZNmxYjjnmmLT63NaML730Utq3b5+OHTvmmGOOyauvvroU7wYAAAAAAGD5s4KQVdq0adMyd+7ctG3btl5727Zt8/bbbzc65u233260/5w5czJt2rRstNFG9a795S9/yTPPPJNhw4bVa999991z4403Zquttso777yTCy+8MHvuuWeeffbZrLfeeo0++7PPPstnn31W93rGjBlJktmzZ883nIQlUTufzCuKxRyk2MxBisn8o9jMQYrJ/KPYzEGKyfxbvfm+sroRELJaKBQK9V5XV1c3aFtY/8bak5rVg9tvv3122223eu0HH3xw3Z932GGHdO/ePZ06dcoNN9yQgQMHNvrcwYMH5/zzz2/QPnr06LRs2XK+9cKSGjNmTLFLoMSZgxSbOUgxmX8UmzlIMZl/FJs5SDGZf6unmTNnFrsEWKYEhKzS1l9//TRp0qTBasGpU6c2WCVYq127do32Ly8vb7Dyb+bMmRk5cmQuuOCChdbSqlWr7LDDDnnppZfm2+ecc86pFx7OmDEjm266aXr16pU2bdos9BmwqGbPnp0xY8bkgAMOSNOmTYtdDiXIHKTYzEGKyfyj2MxBisn8o9jMQYrJ/Fu91e4GB6sLASGrtGbNmqVr164ZM2ZM+vTpU9c+ZsyYHH744Y2O6d69e+6///56baNHj063bt0a/B/3HXfckc8++yzf+MY3FlrLZ599lueffz577733fPs0b948zZs3b9DetGlT/9HAcmFuUWzmIMVmDlJM5h/FZg5STOYfxWYOUkzm3+rJ95TVTVmxC4ClNXDgwFx33XW5/vrr8/zzz2fAgAGZPHly+vfvn6Rm1V7fvn3r+vfv3z9vvPFGBg4cmOeffz7XX399hg0bljPOOKPBvYcNG5bevXs3eqbgGWeckXHjxuW1117LE088ka9+9auZMWNGKioqlt+bBQAAAAAAWEpWELLKO/roo/Pee+/lggsuyJQpU7L99tvngQceyGabbZYkmTJlSiZPnlzXv2PHjnnggQcyYMCA/OpXv0r79u1z+eWX58gjj6x33xdffDETJkzI6NGjG33uv/71rxx77LGZNm1aNthgg+yxxx55/PHH654LAAAAAACwMhIQslo45ZRTcsoppzR6bcSIEQ3a9t1330yaNGmB99xqq61SXV093+sjR45crBoBAAAAAABWBrYYBQAAAAAAgBIiIAQAAAAAAIASIiAEAAAAAACAEiIgBAAAAAAAgBIiIAQAAAAAAIASIiAEAAAAAACAEiIgBFhJFQqFFAqFrLPOOpk+fXqjfQYNGpRCoZCf/vSnDa599NFH+fGPf5ydd945rVq1yhprrJEOHTpkn332ybnnnpunn366Xv8RI0bUPbP2o1mzZtlkk01y7LHHZtKkScvhXQIAAAAAsKKVF7sAABZs+vTp+fnPf57zzz9/kce88cYbGTBgQN59992sueaa2XPPPbPhhhtm2rRpefLJJzN+/Pi89957ufrqqxuM7dSpU/baa68kNSHjk08+mZEjR+auu+7KnXfemcMOO2yZvTcAAAAAAFY8ASHASuSpp5Kzz04uvrjmdVlZWcrLyzN06NCcfvrpWWeddRbpPqeddlrefffdHHLIIbn11luz1lpr1V2bM2dOxowZk3feeafRsXvttVdGjBhR93r27Nk55ZRTct1116V///456KCD0qxZsyV+jwAAAAAAFJctRgFWInfckYweXfM5SZo2bZp+/fplxowZGTJkyCLd45NPPsno0aOTJJdddlm9cDBJysvLc/DBB6eysnKR7te0adMMHTo0rVu3zpQpU/KXv/xlkd8PAAAAAAArHwEhwErknnvqf06SH/7wh2nevHl+8Ytf5D//+c9C7/H+++9nzpw5SZINNthgmdTVunXrfPTRR0mSf/7zn432WdB5iNOnT895553nPEQAAAAAgJWAgBBgJfHaa8kLL9T8ed4MbuONN87JJ5+cDz/8MJdddtlC77P++uunRYsWSZJrr712mddZuzpxUb3xxhvZaaedcuGFF+bVV1/NnnvumSOOOCLbbrttnn322Vx00UWNnoWY1JyHWFFRkYqKihx22GEpLy/PyJEjs8cee+S+++5bFm8HAAAAAKDkCAgBVhK/+11S9t+/lQuF+tfOOeectGjRIldccUXee++9Bd6nWbNmOe6445LUrD78whe+kB//+Md58MEH88EHHyxyPU89lRx4YPK5xX35wx/+kPfff3+R7/Od73wnkydPzqGHHpo333wzY8aMyS233JJRo0blnXfeyQMPPJA99tij0bG15yGOGDEid955Z1566aX069cvs2fPTv/+/TNr1qxFrgMAAAAAgBoCQoCVxG9/+78/fz4gbN++fb75zW/mww8/zKWXXrrQe1122WXp2bNnCoVCnnzyyVxwwQU5+OCDs95662W//fZbpFWANechfpxLLvlTXdsmm2ySjz76aLHOQ3zwwQeTJEOHDnUeIgAAAADASkBACLASmDEjGTcuqaqqeV37eV5nn312WrRokV/+8peZNm3aAu/XsmXLnH766fn73/+eCy+8MAcddFDWW2+9zJ07N2PHjs2BBx4435Dvhhtu+O9ZgoUkrXPbbfsnSQqFQu67776in4fYqlWrbLXVVkmSN998c5ncEwAAAACglAgIAVYCo0cn/83R6pk3KNxoo43Sv3//fPTRR/nZz362SPfdeuutc+655+YPf/hDpk6dmgkTJmTvvfdOkpx11ll54403Gozp1KlTjjyyIklFkn5Jzk1Ss3XpLrvsssTnIc7vnMEl8eGHHyZJmjdvvszuCQAAAABQKgSEACuB++9Pyssbts+dW//1WWedlTXWWCO/+tWv8u677y7WM8rKytKjR488+OCD2XTTTTNnzpyMGjWqQb+99tor++47ImVlI5L8OoXChfWuL+55iMcff3xd7Ut6HuK8nnvuubz66qtJkh133HGJ7gEAAAAAUMoa+XE0AMvKW28l77yz4D7V1cl9981/BeHEifOeSdguRxzx7dxyy5B8//uXZI01WiVJFidra9myZXbbbbe8+eab892q9PPnIVZX/+917XmIl19+eS699NIMHjx4gc8bOnRoPv3009x888158skn8+STTyZJmjRpkr333jvnnHNOevXqtdC6P/744zz++OM59dRTM3fu3Oy///7p3Lnzwt8wAAAAAAD1WEEIsBwde2zSteuCP7p1W3DA161b/f633HJWkpa56aYrc+21NenjyJGLV9crr7ySpCbs+7zZs5f9eYg33nhjnn/++SU+D7FQKKR169bZf//988ILL6Rbt2656aabFu9NAwAAAACQREAIsFz165e0aDHvCsDGzbtCb+E2THJKkplJbkiSfOEL/7s6ffr09OjRI48//nhmz55db+Ts2bNz4YUX5umnn84aa6yRgw46qMHd33pr5ToPsaKiIhUVFenXr1/OPffcPPjgg3niiSfSrl27RXouAAAAAAD12WIUYDnq27dmBWCfPsnLLze+Gm/J/CDJVUk+TpLsumv9q3/961/z17/+NVdeeWW6du2adu3aZfr06Xn66aczZcqUNGnSJFdddVWjIdu//lVzHuLnQ8LGzkO85ppr8qtf/SpnnHHGYlU/73mI22yzTd58882MGjUq3/zmN+v122uvvTJixIjFujcAAAAAAAtmBSHActalSzJpUk1YuOxskO23P7XRK2uttVb+/Oc/5+ijj85OO+2UV199NXfddVcefnhsmjVrk969++WWWyZlhx0qMmlS6j5ef71m/OTJCz4Psbb/v/9dcx7ixx9/nO9//5JMmVLTb0nOQ0yy0K1KAQAAAABYNqwgBFgBWrVKhg9PevZM+vevOefv8yvyGmq472h5ec3HNdckfftenOTiBn0KhUL22GOP/Oc//8khhxySpk2bJkn22ScZPz55443k3nsbe15lkspGw8Fa3bp9vuWsJFfnppuuTFKTgI4cmQwevLD39j8LOg8RAAAAAIBlzwpCgBWooqJmFV6nTknZYv4NXFZWM25JVyMW6zzE3XffPffcc88SnYcIAAAAAMCyZwUhwApWu+VoRUVy112LPq5Pn+TGG5OWLZfsucU6D/Evf/lLjjjiiLRp02axz0MEAAAAAGDZs4IQoAhatUrat6/ZLnRRlJcnG2+85OFgrWKch/joo4/mRz/6UXbeeee68xDHjh2bNm3apF+/fpk0aVIqKiqWZUEAAAAAACyAFYQARVBVldx+exZ43t+85sypOdvv5z9f/K1JP29Fn4fYvXv3dO/efbFqrKysTGVl5WKNAQAAAABg0VhBCFAEjz6aTJ3a2JXC5z6aJlk/yQ6ZOrUygwfflTmNpIqFQqHeR7NmzdK7d+80a9aswbVCoZDNN998Cc5DrKxX25w5hXz6aSEVFf+77+uvv/6/3pWVjT573o95+wMAAAAAsGJYQQhQBHfcUbP6bt6sb97XZWUVqa5OqqurknyQ5MUkN+b//u+GjBjRObfcckt22223urGf36KzqqoqY8aMydtvv52ddtopO++8c73r66+/fpIlPQ+xRzbbrHP22qvhFqmtW7du2LtHj3Tu3LnROzXWHwAAAACA5UtACLCCfX570Z3zVH6as3PVxhfnt2/UtP3jHyPSp0/y8ss1/Wu8kubNf5iXX74j++23Xx555JG64G/EiBH1njF79uwceOCBefvtt9O7d+8MGjRovvXMex7iomx5WlbWL4cfXplf/GLR3m+/fv1sFwoAAAAAsBKxxSjACvb57UWPyh05MKPzm6/dUddWu7Kvb995R3bKZ5/dnkMPPSkzZ87MiSeeuEzqWdzzEKuqas5D/F9wCQAAAADAqkRACLCC3fHfHLBJk6RFi+SUdvckSZr+7p56/Vq1SoYPT0aMqOnXpElN+8YbX5ZWrVrlqaeeyoQJE5a6nvmfhzh/U6cmjz221I8GAAAAAKAIBIQAK1Dtar0k6dw5+ftvX8tab79Q0/DPfzY6pqIimTgx6dSp5vU996yVgw46OEny8MMPL3VNtechzqu8vCaUHDCgfjg57/U77ggAAAAAAKsgASHACvTJJzVB3wkn1GwhuuULv0vK/vtXcaEw33G1W45WVtaM3267nZMkzz///FLV09j2omVlNc+YODEZMqR+OFlrzhzbjAIAAAAArKoEhAArUKtWyYQJyfXXJy1bJvntb/93cQEBYe3Y4cNrxrdvv36S5P3331+qehrbXrSioiaM7NKl5nVtOPm/kPCEJIVMnVpIkyaFFAo1H0OHDm30GSeccEJdn3k/5tcfAAAAAIDlq3zhXQBYlmoXDGbGjGTcuP8tw1vE5XhlZUl1dXWSpLCQUHFh5j0PsWnT5Jprkr59G/Zr1SrZa6/klVeSQqFHks6prk623TbZbbeaPl1qE8XP6dGjRzp37tygfX79AQAAAABYvgSEAMUyenT9vT0Xw7Rp05Ik66677hI//vPnId599/9WDS7IT37SLzfeWJkXX0zee69mNWTZAtaj9+vXL5WVlUtcJwAAAAAAy5YtRgGK5f77k/Il+z2Np59+OsnSrcL7/HmIi3qrjTeufx7iJ58scQkAAAAAABSBFYQAy9pbbyXvvLPgPtXVyX33zX8F4cSJ8z2T8IMPP8yDDzyQJNlvv/2WuMza8xAXtPpvQWOHD69Zhbgk4wEAAAAAKB4BIcCyduyxyfjxC++3oPMDu3Wb76XvJ/k4yRfWXDPdu3df7PLmtbThnnAQAAAAAGDV40e7AMtav35JixYLDgCTmlWEi+HVJEcnGZakVZJhZ521hAUCAAAAAFDKrCAEWNb69q1ZAdinT/LyyzX7cC6myv9+rkoyI8mLSf6ZpDrJlk2b5tabb84ORx21rCoGAAAAAKCECAgBlocuXZJJk5LvfCcZMWKxh9/w38/lSdokaZ+kb5LD9tsvh917b8rbtFlmpQIAAAAAUFoEhADLS6tWyfDhSc+eSf/+yezZydy5CxzS6Kaj5eU1H9dcU7M6cRGddtppGTVqVJo2bbpYZc/PiBEjMmIxws7F7Q8AAAAAwIrhDEKA5a2iIpk4MenUKSlbzL92y8pqxk2atFjhIAAAAAAAzI+AEGBFqN1ytE+fxRvXp0/NuG23XT51AQAAAABQcmwxCrCitGqVtG9fs13onDkL719enmy8cdKy5TIvZcKECbnuuusWqW/v3r3Tu3fvZV4DAAAAAADFISAEWFGqqpLbb1+0cDCp6TdyZPLzny/+1qQL8fLLL+eGG25YpL6bb765gBAAAAAAYDUiIARYUR59NJk6dfHGTJ2aPPZY0qPHMi2lsrIylZWVy/SeAAAAAACsGpxBCLCi3HFHzbah8yovT1q0SAYMqPncpEnD63fcseJqBAAAAABgtScgBFgRGttetKws6dQpmTgxGTKk5nOnTvW3E63dZrSqasXXDAAAAADAaklACLAiNLa9aEVFMmlS0qVLzesuXWpe9+1bv1/tNqMAAAAAALAMCAgBVoTabUKbNKnZSvSGG5Lrr09atqzfr1WrZPjwZMSI+luO2mYUAAAAAIBlREAIsLzVbi+aJJ0712wl+vlVgp9XUfG/LUcT24wCAAAAALDMCAgBlrdPPqkJ+k44of6WogtTu+VoZWXN+E8+Wa5lAgAAAABQGsqLXQDAaq9Vq2TChKRsCX4no3bL0aqqJRsPAAAAAACf46fNACvC0oZ7wkEAAAAAAJYRP3EGAAAAAACAEiIgBAAAAAAAgBIiIAQAAAAAAIASIiAEAAAAAACAEiIgBAAAAAAAgBIiIAQAAAAAAIASIiAEAAAAAACAEiIgBAAAAAAAgBIiIAQAAAAAAIASIiAEAAAAAACAEiIgBAAAAAAAgBIiIAQAAAAAAIASIiAEAAAAAACAEiIgBAAAAAAAgBIiIAQAAAAAAIASIiAEAAAAAACAEiIgBAAAAAAAgBIiIAQAAAAAAIASIiAEAAAAAACAEiIgBAAAAAAAgBIiIAQAAAAAAIASIiAEAAAAAACAEiIgBAAAAAAAgBIiIAQAAAAAAIASIiBktXDllVemY8eOadGiRbp27Zrx48cvsP+4cePStWvXtGjRIltssUWuvvrqetd79uyZQqHQ4OPLX/7yUj2X5aux79m8Hz179my0/zrrrJPp06c3es9BgwalUCjkpz/9aYNr06dPz3nnnZedd945rVq1yhprrJEOHTpkn332ybnnnpunn366Xv8RI0YstMYRI0Ysmy8GAAAAAADMR3mxC4Cldfvtt+f000/PlVdemR49euSaa67JwQcfnOeeey4dOnRo0P+1117LIYcckpNPPjk333xzHnnkkZxyyinZYIMNcuSRRyZJ7r777syaNatuzHvvvZeddtopX/va15b4uaw4FRUVjbZvs802jbZPnz49P//5z3P++ecv8jPeeOON7LPPPpk8eXLWXHPN7Lnnntlwww0zbdq0PPnkkxk/fnzee++9BuFzknTq1Cl77bVXo/ft3LnzItcAAAAAAABLQkDIKm/IkCE56aST0q9fvyTJ0KFDM2rUqFx11VUZPHhwg/5XX311OnTokKFDhyZJtt122zz55JO59NJL6wLCddddt96YkSNHpmXLlvUCwsV9LsvHU08lZ5+dXHzx/9oWZxVeWVlZysvLM3To0Jx++ulZZ511Fmncd77znUyePDmHHnpobr755qy11lp11+bMmZMxY8bknXfeaXTsXnvtZaUgAAAAAABFY4tRVmmzZs3KxIkT06tXr3rtvXr1yqOPPtromMcee6xB/wMPPDBPPvlkZs+e3eiYYcOG5ZhjjkmrVq2W+LksH3fckYweXfN5STRt2jT9+vXLjBkzMmTIkEUa88knn+TBBx9MUhMMzxsOJkl5eXkOPvjgVFZWLllRAAAAAACwHFlByCpt2rRpmTt3btq2bVuvvW3btnn77bcbHfP222832n/OnDmZNm1aNtpoo3rX/vKXv+SZZ57JsGHDluq5SfLZZ5/ls88+q3s9Y8aMJMns2bPnG06yYHffXZ6kkLvvrq5rW9yv5Zlnnplhw4blF7/4Rb7zne/UW0E6d+7cus+19506dWrmzJmTJFl77bUX+Xm196qqqlru3+/a+5tXFIs5SLGZgxST+UexmYMUk/lHsZmDFJP5t3rzfWV1IyBktVAoFOq9rq6ubtC2sP6NtSc1qwe333777Lbbbkv93MGDBzd6zt3o0aPTsmXL+Y6jce+80zIvvnhAkuSFF/73dX/ggQcW+R5VVVX529/+li996Ut54IEH8p3vfCff+MY36q6/9NJL/73/C3X3nT17dpo1a5ZZs2Zl4MCBOeKIIxbpWX/729+SJP/6178Wq8alMWbMmBXyHJgfc5BiMwcpJvOPYjMHKSbzj2IzBykm82/1NHPmzGKXAMuUgJBV2vrrr58mTZo0WLU3derUBqv7arVr167R/uXl5VlvvfXqtc+cOTMjR47MBRdcsNTPTZJzzjknAwcOrHs9Y8aMbLrppunVq1fatGkz/zdKo371q7KUlVWnqqqQQqE6/815c8ghhyzyPcrKynLIIYdk5513zjbbbJNRo0bliiuuqJsLTz75ZJJk6623rnff448/PsOGDcuNN96YZ599NgcddFD22GOP7LHHHg22HK01bdq0JMkmm2yyWDUuidmzZ2fMmDE54IAD0rRp0+X6LGiMOUixmYMUk/lHsZmDFJP5R7GZgxST+bd6q90NDlYXAkJWac2aNUvXrl0zZsyY9OnTp659zJgxOfzwwxsd071799x///312kaPHp1u3bo1+D/uO+64I5999lm9FWVL+twkad68eZo3b96gvWnTpv6jYQn87nf/+3OhUKgLCJs1a9Zo//fffz9rr712g/amTZtms802yze/+c1cfvnl+cUvfpHBgwcnSZo0aVL3ed7v0eWXX55Zs2bl5ptvzsSJEzNx4sS6fnvvvXfOOeecBmdU1t7rpptuyk033dSgjsMPPzz33nvvIr33RWVuUWzmIMVmDlJM5h/FZg5STOYfxWYOUkzm3+rJ95TVjYCQVd7AgQNz/PHHp1u3bunevXuuvfbaTJ48Of37909Ss2rvrbfeyo033pgk6d+/f375y19m4MCBOfnkk/PYY49l2LBhue222xrce9iwYendu3eDlYWL8lyWrxkzknHjkqqqmte1n5OkoqKi0THzCw5rnX322bn22mvzy1/+Mt///vez/vrrz7dvy5Ytc+ONN+bcc8/NnXfemQkTJuSvf/1r3nvvvYwdOzZjx47NZZddVm/FaK1OnTplr732atC+6667LrA+AAAAAABYFgSErPKOPvrovPfee7ngggsyZcqUbL/99nnggQey2WabJUmmTJmSyZMn1/Xv2LFjHnjggQwYMCC/+tWv0r59+1x++eU58sgj6933xRdfzIQJEzJ69Oglei7L1+jRyZw5jV8bMWLEEt1zo402Sv/+/TN06ND87Gc/y8UXX7zQMVtvvXXOPffcJDXnGT722GM555xzMn78+Jx11lk58sgjG8yJvfbaa4lrBAAAAACApSUgZLVwyimn5JRTTmn0WmNBzL777ptJkyYt8J5bbbVVqmv3rFyC57J83X9/Ul4+/5BwSZ111lm55ppr8qtf/SpnnHHGYo0tKytLjx498uCDD2abbbbJm2++mVGjRuWb3/zmsi0SAAAAAACWgoAQWKm89VbyzjsL7lNdndx33/zDwYkTk0Jhwfdo27bx9nbt2uXb3/52hgwZkksuuSStWrVaeNGf07Jly+y222558803M23atMUeDwAAAAAAy5OAEFipHHtsMn78wvstKADs1m3h4/fZZ/7XzjrrrFx99dW58sor07dv34XfrBGvvPJKkqR9+/ZLNB4AAAAAAJaXsmIXADCvfv2SFi0WvgJwIbu/zlehUHP/k06af58NN9wwp5xySmbOnJkbbrihwfXp06dn9913zz333JPZs2fXuzZ79uxceOGFefrpp7PGGmvkoIMOWrJCAQAAAABgObGCEFip9O1bswKwT5/k5ZeTqqpld++ysmTLLZO77066dEkqKubf9wc/+EGuuuqqfPzxx41e/8tf/pIjjjgibdq0SdeuXdOuXbtMnz49Tz/9dKZMmZImTZrkqquuSrt27ZbdGwAAAAAAgGXACkJgpdOlSzJpUk1YuCxVVNTct0uXhffdYIMNcuqppzZ6ba211sqjjz6aH/3oR9l5553z6quv5q677srYsWPTpk2b9OvXL5MmTUrFghJIAAAAAAAoEisIgZVSq1bJ8OFJz55J//7J7NnJ3LkLG9Vw39Hy8pqPa65pGDhWL2Sf0osvvjgXX3xxg/ZCoZDu3bune/fuCyuonsrKylRWVi7WGAAAAAAAWNasIARWahUVycSJSadONVuELo6ysppxy2M1IgAAAAAArKoEhMBKr3bL0T59Fm9cnz4147bddvnUBQAAAAAAqyIBIbBKaNUqad++ZrvQRVFenmy8cdKy5fKtCwAAAAAAVjUCQmCVUFWV3H57MmfOovWfMycZObJmHAAAAAAA8D8CQmCV8OijydSpizdm6tTksceWTz0AAAAAALCqEhACq4Q77mi4vWh5edKiRTJgQM3nJk0aXr/jjhVXIwAAAAAArAoEhMBKr7HtRcvKkk6dkokTkyFDaj536lTTXss2owAAAAAA0JCAEFjpNba9aEVFMmlS0qVLzesuXWpe9+1bv59tRgEAAAAAoD4BIbDSq90mtEmTmq1Eb7ghuf76pGXL+v1atUqGD09GjKi/5ahtRgEAAAAA4H8EhMBKrXZ70STp3LlmK9HPrxL8vIqK/205mthmFAAAAAAA5iUgBFZqn3xSE/SdcEL9LUUXpnbL0crKmvGffLJcywQAAAAAgFVGebELAFiQVq2SCROSsiX4dYbaLUerqpZsPAAAAAAArI78yBxY6S1tuCccBAAAAACA//FjcwAAAAAAACghAkIAAAAAAAAoIQJCAAAAAAAAKCECQgAAAAAAACghAkIAAAAAAAAoIQJCAAAAAAAAKCECQgAAAAAAACghAkIAAAAAAAAoIQJCAAAAAAAAKCECQgAAAAAAACghAkIAAAAAAAAoIQJCAAAAAAAAKCECQgAAAAAAACghAkIAAAAAAAAoIQJCAAAAAAAAKCECQgAAAAAAACghAkIAAAAAAAAoIQJCAAAAAAAAKCECQgAAAAAAACghAkIAAAAAAAAoIQJCAAAAAAAAKCECQgAAAAAAACghAkIAAAAAAAAoIQJCAAAAAAAAKCECQgAAAAAAACghAkIAAAAAAAAoIQJCAAAAAAAAKCECQgAAAAAAACghAkIAAAAAAAAoIQJCAAAAAAAAKCECQgAAAAAAACghAkIAAAAAAAAoIQJCAAAAAAAAKCECQgAAAAAAACghAkIAAAAAAAAoIQJCAAAAAAAAKCECQgAAAAAAACghAkIAAAAAAAAoIQJCAAAAAAAAKCECQgAAAAAAACghAkIAAAAAAAAoIQJCAAAAAAAAKCECQgAAAAAAACghAkIAAAAAAAAoIQJCAAAAAAAAKCECQgAAAAAAACghAkIAAAAAAAAoIQJCAAAAAAAAKCECQgAAAAAAACghAkIAAAAAAAAoIQJCAAAAAAAAKCECQgAAAAAAACghAkIAAAAAAAAoIQJCAAAAAAAAKCECQgAAAAAAACghAkIAAAAAAAAoIQJCAAAAAAAAKCECQgAAAAAAACghAkIAAAAAAAAoIQJCAAAAAAAAKCECQgAAAAAAACghAkIAAAAAAAAoIQJCVgtXXnllOnbsmBYtWqRr164ZP378AvuPGzcuXbt2TYsWLbLFFlvk6quvbtBn+vTpOfXUU7PRRhulRYsW2XbbbfPAAw/UXR80aFAKhUK9j3bt2i3z9wYAAAAAALAslRe7AFhat99+e04//fRceeWV6dGjR6655pocfPDBee6559KhQ4cG/V977bUccsghOfnkk3PzzTfnkUceySmnnJINNtggRx55ZJJk1qxZOeCAA7LhhhvmzjvvzCabbJI333wza665Zr17bbfddvnjH/9Y97pJkybL980CAAAAAAAsJQEhq7whQ4bkpJNOSr9+/ZIkQ4cOzahRo3LVVVdl8ODBDfpfffXV6dChQ4YOHZok2XbbbfPkk0/m0ksvrQsIr7/++vznP//Jo48+mqZNmyZJNttsswb3Ki8vt2oQAAAAAABYpdhilFXarFmzMnHixPTq1atee69evfLoo482Ouaxxx5r0P/AAw/Mk08+mdmzZydJ7rvvvnTv3j2nnnpq2rZtm+233z4XXXRR5s6dW2/cSy+9lPbt26djx4455phj8uqrry7DdwcAAAAAALDsWUHIKm3atGmZO3du2rZtW6+9bdu2efvttxsd8/bbbzfaf86cOZk2bVo22mijvPrqq3nooYdy3HHH5YEHHshLL72UU089NXPmzMmPfvSjJMnuu++eG2+8MVtttVXeeeedXHjhhdlzzz3z7LPPZr311mv02Z999lk+++yzutczZsxIksyePbsunIRloXY+mVcUizlIsZmDFJP5R7GZgxST+UexmYMUk/m3evN9ZXUjIGS1UCgU6r2urq5u0Law/vO2V1VVZcMNN8y1116bJk2apGvXrvn3v/+dn/3sZ3UB4cEHH1w3focddkj37t3TqVOn3HDDDRk4cGCjzx08eHDOP//8Bu2jR49Oy5YtF+GdwuIZM2ZMsUugxJmDFJs5SDGZfxSbOUgxmX8UmzlIMZl/q6eZM2cWuwRYpgSErNLWX3/9NGnSpMFqwalTpzZYJVirXbt2jfYvLy+vW/m30UYbpWnTpmnSpEldn2233TZvv/12Zs2alWbNmjW4b6tWrbLDDjvkpZdemm+955xzTr3wcMaMGdl0003Tq1evtGnTZuFvGBbR7NmzM2bMmBxwwAF152jCimQOUmzmIMVk/lFs5iDFZP5RbOYgxWT+rd5qd4OD1YWAkFVas2bN0rVr14wZMyZ9+vSpax8zZkwOP/zwRsd07949999/f7220aNHp1u3bnX/x92jR4/ceuutqaqqSllZzVGdL774YjbaaKNGw8GkZvvQ559/Pnvvvfd8623evHmaN2/eoL1p06b+o4Hlwtyi2MxBis0cpJjMP4rNHKSYzD+KzRykmMy/1ZPvKaubsmIXAEtr4MCBue6663L99dfn+eefz4ABAzJ58uT0798/Sc2qvb59+9b179+/f954440MHDgwzz//fK6//voMGzYsZ5xxRl2fb3/723nvvfdy2mmn5cUXX8zvf//7XHTRRTn11FPr+pxxxhkZN25cXnvttTzxxBP56le/mhkzZqSiomLFvXkAAAAAAIDFZAUhq7yjjz467733Xi644IJMmTIl22+/fR544IFsttlmSZIpU6Zk8uTJdf07duyYBx54IAMGDMivfvWrtG/fPpdffnmOPPLIuj6bbrppRo8enQEDBmTHHXfMxhtvnNNOOy1nnXVWXZ9//etfOfbYYzNt2rRssMEG2WOPPfL444/XPRcAAAAAAGBlJCBktXDKKafklFNOafTaiBEjGrTtu+++mTRp0gLv2b179zz++OPzvT5y5MjFqhEAAAAAAGBlYItRAAAAAAAAKCECQgAAAAAAACghAkIAAAAAAAAoIQJCAAAAAAAAKCECQgAAAAAAACghAkIAAAAAAAAoIQJCAAAAAAAAKCECQgAAAAAAACghAkIAAAAAAAAoIQJCAAAAAAAAKCECQgAAAAAAACghAkIAAAAAAAAoIQJCAAAAAAAAKCECQgAAAAAAACghAkIAAAAAAAAoIQJCAAAAAAAAKCECQgAAAAAAACghAkIAAAAAAAAoIQJCAAAAAAAAKCECQgAAAAAAACghAkIAAAAAAAAoIQJCAAAAAAAAKCECQgAAAAAAACghAkIAAAAAAAAoIQJCAAAAAAAAKCECQgAAAAAAACghAkIAAAAAAAAoIQJCAAAAAAAAKCECQgAAAAAAACghAkIAAAAAAAAoIQJCAAAAAAAAKCECQgAAAAAAACghAkIAAAAAAAAoIQJCAAAAAAAAKCECQgAAAAAAACghAkIAAAAAAAAoIQJCAAAAAAAAKCECQgAAAAAAACghAkIAAAAAAAAoIQJCAAAAAAAAKCECQgAAAAAAACghAkIAAAAAAAAoIQJCAAAAAAAAKCECQgAAAAAAACghAkIAAAAAAAAoIQJCAAAAAAAAKCECQgAAAAAAACghAkIAAAAAAAAoIQJCAAAAAAAAKCECQgAAAAAAACghAkIAAAAAAAAoIQJCAAAAAAAAKCECQgAAAAAAACghAkIAAAAAAAAoIQJCAAAAAAAAKCECQgAAAAAAACghAkIAAAAAAAAoIQJCAAAAAAAAKCECQgAAAAAAACghAkIAAAAAAAAoIQJCAAAAAAAAKCECQgAAAAAAACghAkIAAAAAAAAoIQJCAAAAAAAAKCECQgAAAAAAACghAkIAAAAAAAAoIQJCAAAAAAAAKCECQgAAAAAAACghAkIAAAAAAAAoIQJCAAAAAAAAKCECQgAAAAAAACghAkIAAAAAAAAoIQJCAAAAAAAAKCECQgAAAAAAACghAkIAAAAAAAAoIQJCAAAAAAAAKCECQgAAAAAAACghAkIAAAAAAAAoIQJCAAAAAAAAKCECQgAAAAAAACghAkKA1VTv3r3TrFmzFAqFFAqFNG3aNOuvv3522GGHVFZW5q677sqcOXMajKvtv6gfm2+++WLXVllZudD7vv7660vcHwAAAACA+SsvdgGwLFx55ZX52c9+lilTpmS77bbL0KFDs/fee8+3/7hx4zJw4MA8++yzad++fX7wgx+kf//+9fpMnz495557bu6+++68//776dixYy677LIccsghS/xcKIaKiookSVVVVT744IO8+OKLufHGG3PDDTekc+fOueWWW7Lbbrs16D+vCRMm5JVXXslOO+2UnXfeud619ddff4lr69GjRzp37tzotdatWy91fwAAAAAAGhIQssq7/fbbc/rpp+fKK69Mjx49cs011+Tggw/Oc889lw4dOjTo/9prr+WQQw7JySefnJtvvjmPPPJITjnllGywwQY58sgjkySzZs3KAQcckA033DB33nlnNtlkk7z55ptZc801l/i5sEI89VRy9tnJhRfWNY0YMaJBt1deeSU//OEPc8cdd2S//fbLI488Uhf8Nda/srIyr7zySnr37p1BgwYts3L79euXysrK5dYfAAAAAICGbDHKKm/IkCE56aST0q9fv2y77bYZOnRoNt1001x11VWN9r/66qvToUOHDB06NNtuu2369euXE088MZdeemldn+uvvz7/+c9/cu+996ZHjx7ZbLPNstdee2WnnXZa4ufCCnHHHcno0Sm7884FduvUqVNuv/32nHTSSZk5c2ZOPPHEFVQgAAAAAADFJiBklTZr1qxMnDgxvXr1qtfeq1evPProo42Oeeyxxxr0P/DAA/Pkk09m9uzZSZL77rsv3bt3z6mnnpq2bdtm++23z0UXXZS5c+cu8XNhhbjnniRJ2W9/u0jdL7vssrRq1SpPPfVUJkyYsDwrAwAAAABgJWGLUVZp06ZNy9y5c9O2bdt67W3bts3bb7/d6Ji333670f5z5szJtGnTstFGG+XVV1/NQw89lOOOOy4PPPBAXnrppZx66qmZM2dOfvSjHy3Rc5Pks88+y2effVb3esaMGUmS2bNn14WTsMReey1NX3ghSVL47+ckC5xbLVu2zIEHHpi77747f/zjH7P77rs32q+qqipJMnfu3GUyVxf3fsv6+Sx/td8n3y+KxRykmMw/is0cpJjMP4rNHKSYzL/Vm+8rqxsBIauFQqFQ73V1dXWDtoX1n7e9qqoqG264Ya699to0adIkXbt2zb///e/87Gc/y49+9KMlfu7gwYNz/vnnN2gfPXp0WrZsOd9xsCg6/u532aFQSKG6OtWFQvLfef3AAw8scNwaa6yRJHnooYeyyy67NNrnX//6V5LkpZdeWuj9FkXt/f72t78t0v0Wtz8rjzFjxhS7BEqcOUgxmX8UmzlIMZl/FJs5SDGZf6unmTNnFrsEWKYEhKzS1l9//TRp0qTBqr2pU6c2WN1Xq127do32Ly8vz3rrrZck2WijjdK0adM0adKkrs+2226bt99+O7NmzVqi5ybJOeeck4EDB9a9njFjRjbddNP06tUrbdq0WbQ3DfPR5Be/SGqDwXkCwkMOOWSB4956663ccsstadmy5Xz73nXXXUmSLbfccqH3WxS197viiityxRVXNLh+6aWX5nvf+94S96f4Zs+enTFjxuSAAw5I06ZNi10OJcgcpJjMP4rNHKSYzD+KzRykmMy/1VvtbnCwuhAQskpr1qxZunbtmjFjxqRPnz517WPGjMnhhx/e6Jju3bvn/vvvr9c2evTodOvWre7/uHv06JFbb701VVVVKSurOarzxRdfzEYbbZRmzZolyWI/N0maN2+e5s2bN2hv2rSp/2hg6cyYkYwfn/x3K87Cfz8nWejcqp3jZWVl8+1b26dJkybLZK7W3q9Hjx7p3Llzg+s77LBDvecsbn9WHv5+o9jMQYrJ/KPYzEGKyfyj2MxBisn8Wz35nrK6ERCyyhs4cGCOP/74dOvWLd27d8+1116byZMnp3///klqVu299dZbufHGG5Mk/fv3zy9/+csMHDgwJ598ch577LEMGzYst912W909v/3tb+eKK67Iaaedlu9+97t56aWXctFFF9VbobSw58IKNXp0MmfOEg2dNm1akmTdddddlhUtkn79+qWysnK59QcAAAAAoCEBIau8o48+Ou+9914uuOCCTJkyJdtvv30eeOCBbLbZZkmSKVOmZPLkyXX9O3bsmAceeCADBgzIr371q7Rv3z6XX355jjzyyLo+m266aUaPHp0BAwZkxx13zMYbb5zTTjstZ5111iI/F1ao++9PysuXKCR8+umnkyRdunRZxkUBAAAAALAyEhCyWjjllFNyyimnNHptxIgRDdr23XffTJo0aYH37N69ex5//PElfi4sE2+9lbzzzoL7VFcn9903/3Bw4sSaMwkb8cGHH+bBBx5Ikuy3335LUykAAAAAAKsIASHAyuzYY2vOFlyY+QSASZJu3eZ76ftJPk7yhTXXTPfu3Re7PAAAAAAAVj1lxS4AgAXo1y9p0WLBAWBSs4pwMbya5Ogkw5K0SjJsnu1zAQAAAABYvVlBCLAy69u3ZgVgnz7Jyy8nVVWLfYvK/36uSjIjyYtJ/pmkOsmWTZvm1ptvzg5HHbWsKgYAAAAAYCUnIARY2XXpkkyalHznO0kjZ2ouzA3//VyepE2S9kn6Jjlsv/1y2L33prxNm2VWKgAAAAAAKz8BIcCqoFWrZPjwpGfPpH//ZPbsZO7cBQ5pdNPR8vKaj2uuqVmduIhGjBiREUsQTi6r+y3r5wMAAAAAlDJnEAKsSioqkokTk06dkrLF/Cu8rKxm3KRJixUOAgAAAACwehEQAqxqarcc7dNn8cb16VMzbtttl09dAAAAAACsEmwxCrAqatUqad++ZrvQOXMW3r+8PNl446Rly2VeyoQJE3LdddctUt/evXund+/ey7wGAAAAAAAWnYAQYFVUVZXcfvuihYNJTb+RI5Of/3zxtyZdiJdffjk33HDDIvXdfPPNBYQAAAAAAEUmIARYFT36aDJ16nwvVycpfL5x6tTksceSHj2WaSmVlZWprKxcpvcEAAAAAGD5cQYhwKrojjtqtg2dV3l50qJFMmBA0rx5qj6/UrC8vGYcAAAAAAAlTUAIsKppbHvRsrKkU6dk4sRkyJDMeeKJfNyuXarnDQlrtxmtqlrxNQMAAAAAsNIQEAKsahrbXrSiIpk0KenSpeZ1ly4ZN2RIqr/xjfr9arcZBQAAAACgZAkIAVY1tduENmlSs6XoDTck11+ftGxZr9vcFi0y97rrkhEjavo1aVJ/PAAAAAAAJUlACLAqqd1eNEk6d67ZUrRv3wWPqaio6depU81r24wCAAAAAJQ0ASHAquSTT2qCvhNOqL+l6MJ06VLTv7KyZvwnnyzXMgEAAAAAWHmVF7sAABZDq1bJhAlJ2RL8fkerVsnw4TWrB5dkPAAAAAAAqwU/IQZY1SxtuCccBAAAAAAoaX5KDAAAAAAAACVEQAgAAAAAAAAlREAIAAAAAAAAJURACAAAAAAAACVEQAgAAAAAAAAlREAIAAAAAAAAJURACAAAAAAAACVEQAgAAAAAAAAlREAIAAAAAAAAJURACAAAAAAAACVEQAgAAAAAAAAlREAIAAAAAAAAJURACAAAAAAAACVEQAgAAAAAAAAlREAIAAAAAAAAJURACAAAAAAAACVEQAgAAAAAAAAlREAIAAAAAAAAJURACAAAAAAAACVEQAgAAAAAAAAlpLzYBUApq66uTpLMmDGjyJWwupk9e3ZmzpyZGTNmpGnTpsUuhxJkDlJs5iDFZP5RbOYgxWT+UWzmIMVk/q3ean+GW/szXVjVCQihiD788MMkyaabblrkSgAAAAAAWJgPP/wwa621VrHLgKVWqBZ3Q9FUVVXl3//+d9Zcc80UCoVil8NqZMaMGdl0003z5ptvpk2bNsUuhxJkDlJs5iDFZP5RbOYgxWT+UWzmIMVk/q3eqqur8+GHH6Z9+/YpK3N6G6s+KwihiMrKyrLJJpsUuwxWY23atPEfpBSVOUixmYMUk/lHsZmDFJP5R7GZgxST+bf6snKQ1YmYGwAAAAAAAEqIgBAAAAAAAABKiIAQYDXUvHnz/PjHP07z5s2LXQolyhyk2MxBisn8o9jMQYrJ/KPYzEGKyfwDViWF6urq6mIXAQAAAAAAAKwYVhACAAAAAABACREQAgAAAAAAQAkREAIAAAAAAEAJERACAAAAAABACREQAqxGBg8enC984QtZc801s+GGG6Z379554YUXil0WJWrw4MEpFAo5/fTTi10KJeStt97KN77xjay33npp2bJldt5550ycOLHYZVEi5syZk//7v/9Lx44ds8Yaa2SLLbbIBRdckKqqqmKXxmroz3/+c77yla+kffv2KRQKuffee+tdr66uzqBBg9K+ffusscYa6dmzZ5599tniFMtqaUFzcPbs2TnrrLOyww47pFWrVmnfvn369u2bf//738UrmNXOwv4enNe3vvWtFAqFDB06dIXVx+ptUebf888/n8MOOyxrrbVW1lxzzeyxxx6ZPHnyii8WYD4EhACrkXHjxuXUU0/N448/njFjxmTOnDnp1atXPv7442KXRon561//mmuvvTY77rhjsUuhhLz//vvp0aNHmjZtmj/84Q957rnnctlll2XttdcudmmUiIsvvjhXX311fvnLX+b555/PJZdckp/97Ge54ooril0aq6GPP/44O+20U375y182ev2SSy7JkCFD8stf/jJ//etf065duxxwwAH58MMPV3ClrK4WNAdnzpyZSZMm5bzzzsukSZNy991358UXX8xhhx1WhEpZXS3s78Fa9957b5544om0b99+BVVGKVjY/HvllVey1157ZZtttsnYsWPzt7/9Leedd15atGixgisFmL9CdXV1dbGLAGD5ePfdd7Phhhtm3Lhx2WeffYpdDiXio48+yq677porr7wyF154YXbeeWe/qcsKcfbZZ+eRRx7J+PHji10KJerQQw9N27ZtM2zYsLq2I488Mi1btsxNN91UxMpY3RUKhdxzzz3p3bt3kprVg+3bt8/pp5+es846K0ny2WefpW3btrn44ovzrW99q4jVsjr6/BxszF//+tfstttueeONN9KhQ4cVVxwlYX5z8K233sruu++eUaNG5ctf/nJOP/10O5ywzDU2/4455pg0bdrUfwMCKzUrCAFWYx988EGSZN111y1yJZSSU089NV/+8pez//77F7sUSsx9992Xbt265Wtf+1o23HDD7LLLLvn1r39d7LIoIXvttVf+9Kc/5cUXX0yS/O1vf8uECRNyyCGHFLkySs1rr72Wt99+O7169apra968efbdd988+uijRayMUvbBBx+kUChY2c8KU1VVleOPPz5nnnlmtttuu2KXQwmpqqrK73//+2y11VY58MADs+GGG2b33Xdf4Da4AMUgIARYTVVXV2fgwIHZa6+9sv322xe7HErEyJEjM2nSpAwePLjYpVCCXn311Vx11VXZcsstM2rUqPTv3z/f+973cuONNxa7NErEWWedlWOPPTbbbLNNmjZtml122SWnn356jj322GKXRol5++23kyRt27at1962bdu6a7Aiffrppzn77LPz9a9/PW3atCl2OZSIiy++OOXl5fne975X7FIoMVOnTs1HH32Un/70pznooIMyevTo9OnTJ0cccUTGjRtX7PIA6pQXuwAAlo/vfOc7+fvf/54JEyYUuxRKxJtvvpnTTjsto0ePdq4CRVFVVZVu3brloosuSpLssssuefbZZ3PVVVelb9++Ra6OUnD77bfn5ptvzq233prtttsuTz/9dE4//fS0b98+FRUVxS6PElQoFOq9rq6ubtAGy9vs2bNzzDHHpKqqKldeeWWxy6FETJw4Mb/4xS8yadIkf++xwlVVVSVJDj/88AwYMCBJsvPOO+fRRx/N1VdfnX333beY5QHUsYIQYDX03e9+N/fdd18efvjhbLLJJsUuhxIxceLETJ06NV27dk15eXnKy8szbty4XH755SkvL8/cuXOLXSKruY022ihdunSp17bttttm8uTJRaqIUnPmmWfm7LPPzjHHHJMddtghxx9/fAYMGGBVNStcu3btkqTBasGpU6c2WFUIy9Ps2bNz1FFH5bXXXsuYMWOsHmSFGT9+fKZOnZoOHTrU/dvkjTfeyPe///1svvnmxS6P1dz666+f8vJy/zYBVnpWEAKsRqqrq/Pd734399xzT8aOHZuOHTsWuyRKyJe+9KX84x//qNd2wgknZJtttslZZ52VJk2aFKkySkWPHj3ywgsv1Gt78cUXs9lmmxWpIkrNzJkzU1ZW/3cwmzRpUvdb5LCidOzYMe3atcuYMWOyyy67JElmzZqVcePG5eKLLy5ydZSK2nDwpZdeysMPP5z11luv2CVRQo4//vgGZ6IfeOCBOf7443PCCScUqSpKRbNmzfKFL3zBv02AlZ6AEGA1cuqpp+bWW2/Nb3/726y55pp1vzW+1lprZY011ihydazu1lxzzQbnXbZq1SrrrbeeczBZIQYMGJA999wzF110UY466qj85S9/ybXXXptrr7222KVRIr7yla/k//2//5cOHTpku+22y1NPPZUhQ4bkxBNPLHZprIY++uijvPzyy3WvX3vttTz99NNZd91106FDh5x++um56KKLsuWWW2bLLbfMRRddlJYtW+brX/96EatmdbKgOdi+fft89atfzaRJk/K73/0uc+fOrfu3ybrrrptmzZoVq2xWIwv7e/DzoXTTpk3Trl27bL311iu6VFZDC5t/Z555Zo4++ujss88+2W+//fLggw/m/vvvz9ixY4tXNMDnFKqrq6uLXQQAy8b8zlYYPnx4KisrV2wxkKRnz57ZeeedM3To0GKXQon43e9+l3POOScvvfRSOnbsmIEDB+bkk08udlmUiA8//DDnnXde7rnnnkydOjXt27fPsccemx/96Ed+GM4yN3bs2Oy3334N2isqKjJixIhUV1fn/PPPzzXXXJP3338/u+++e371q1/5pR2WmQXNwUGDBs13N5OHH344PXv2XM7VUQoW9vfg522++eY5/fTTc/rppy//4ljtLcr8u/766zN48OD861//ytZbb53zzz8/hx9++AquFGD+BIQAAAAAAABQQsoW3gUAAAAAAABYXQgIAQAAAAAAoIQICAEAAAAAAKCECAgBAAAAAACghAgIAQAAAAAAoIQICAEAAAAAAKCECAgBAAAAAACghAgIAQAAlrNBgwZl5513LnYZK6XKysr07t17md1v7NixKRQKmT59+jK757zOO++8fPOb31ykvmeccUa+973vLZc6AAAAloaAEAAAYCkUCoUFflRWVuaMM87In/70p6LVeNddd6Vnz55Za6210rp16+y444654IIL8p///KdoNS0ve+65Z6ZMmZK11lorSTJixIisvfbay+Te77zzTn7xi1/khz/84SL1/8EPfpDhw4fntddeWybPBwAAWFYEhAAAAEthypQpdR9Dhw5NmzZt6rX94he/SOvWrbPeeusVpb5zzz03Rx99dL7whS/kD3/4Q5555plcdtll+dvf/pabbrqpKDUtT82aNUu7du1SKBSW+b2HDRuW7t27Z/PNN1+k/htuuGF69eqVq6++epnXAgAAsDQEhAAAAEuhXbt2dR9rrbVWCoVCg7bPbzFau63mRRddlLZt22bttdfO+eefnzlz5uTMM8/Muuuum0022STXX399vWe99dZbOfroo7POOutkvfXWy+GHH57XX399vrX95S9/yUUXXZTLLrssP/vZz7Lnnntm8803zwEHHJC77rorFRUVdX2vuuqqdOrUKc2aNcvWW2/dIDwsFAq55pprcuihh6Zly5bZdttt89hjj+Xll19Oz54906pVq3Tv3j2vvPJK3Zja933NNddk0003TcuWLfO1r31tgdt/VldX55JLLskWW2yRNdZYIzvttFPuvPPOumv7779/DjrooFRXVydJpk+fng4dOuTcc89NUn+L0bFjx+aEE07IBx98ULeic9CgQbnggguyww47NHh2165d86Mf/Wi+tY0cOTKHHXZYvbY777wzO+ywQ9ZYY42st9562X///fPxxx/XXT/ssMNy2223zfeeAAAAxSAgBAAAKIKHHnoo//73v/PnP/85Q4YMyaBBg3LooYdmnXXWyRNPPJH+/funf//+efPNN5MkM2fOzH777ZfWrVvnz3/+cyZMmJDWrVvnoIMOyqxZsxp9xi233JLWrVvnlFNOafR67dab99xzT0477bR8//vfzzPPPJNvfetbOeGEE/Lwww/X6/+Tn/wkffv2zdNPP51tttkmX//61/Otb30r55xzTp588skkyXe+8516Y15++eXccccduf/++/Pggw/m6aefzqmnnjrfr8v//d//Zfjw4bnqqqvy7LPPZsCAAfnGN76RcePGpVAo5IYbbshf/vKXXH755UmS/v37p23bthk0aFCDe+25554NVnWeccYZOfHEE/Pcc8/lr3/9a13fv//973nqqadSWVnZaF3vv/9+nnnmmXTr1q2ubcqUKTn22GNz4okn5vnnn8/YsWNzxBFH1IWXSbLbbrvlzTffzBtvvDHf9wwAALCilRe7AAAAgFK07rrr5vLLL09ZWVm23nrrXHLJJZk5c2bd+XbnnHNOfvrTn+aRRx7JMccck5EjR6asrCzXXXdd3faZw4cPz9prr52xY8emV69eDZ7x0ksvZYsttkjTpk0XWMull16aysrKuiBx4MCBefzxx3PppZdmv/32q+t3wgkn5KijjkqSnHXWWenevXvOO++8HHjggUmS0047LSeccEK9e3/66ae54YYbsskmmyRJrrjiinz5y1/OZZddlnbt2tXr+/HHH2fIkCF56KGH0r179yTJFltskQkTJuSaa67Jvvvum4033jjXXHNNjj/++Lzzzju5//7789RTTzX6Hps1a1ZvVWet1q1b58ADD8zw4cPzhS98oe5rue+++2aLLbZo9Gv0xhtvpLq6Ou3bt69rmzJlSubMmZMjjjgim222WZI0WJm48cYbJ0lef/31uj4AAADFZgUhAABAEWy33XYpK/vfP8natm1bL1xq0qRJ1ltvvUydOjVJMnHixLz88stZc80107p167Ru3TrrrrtuPv3003rbes6rurp6kc7ie/7559OjR496bT169Mjzzz9fr23HHXesV29SPxBr27ZtPv3008yYMaOurUOHDnXhYJJ07949VVVVeeGFFxrU8dxzz+XTTz/NAQccUPceW7dunRtvvLHee/za176WI444IoMHD85ll12WrbbaaqHv8fNOPvnk3Hbbbfn0008ze/bs3HLLLTnxxBPn2/+TTz5JkrRo0aKubaeddsqXvvSl7LDDDvna176WX//613n//ffrjVtjjTWS1KwABQAAWFlYQQgAAFAEn1/xVigUGm2rqqpKklRVVaVr16655ZZbGtxrgw02aPQZW221VSZMmJDZs2cvdBXh54PExsLFee9Re62xttqaF/ScxoLL2nG///3v61be1WrevHndn2fOnJmJEyemSZMmeemll+b/phbgK1/5Spo3b5577rknzZs3z2effZYjjzxyvv3XX3/9JDVbjdZ+vZs0aZIxY8bk0UcfzejRo3PFFVfk3HPPzRNPPJGOHTsmSf7zn/8kmf/3CAAAoBisIAQAAFgF7LrrrnnppZey4YYbpnPnzvU+1lprrUbHfP3rX89HH32UK6+8stHr06dPT5Jsu+22mTBhQr1rjz76aLbddtulrnvy5Mn597//Xff6scceS1lZWaOr/rp06ZLmzZtn8uTJDd7jpptuWtfv+9//fsrKyvKHP/whl19+eR566KH5Pr9Zs2aZO3dug/by8vJUVFRk+PDhGT58eI455pi0bNlyvvfp1KlT2rRpk+eee65ee6FQSI8ePXL++efnqaeeSrNmzXLPPffUXX/mmWfStGnTbLfddvO9NwAAwIpmBSEAAMAq4LjjjsvPfvazHH744bnggguyySabZPLkybn77rtz5pln1tvGs9buu++eH/zgB/n+97+ft956K3369En79u3z8ssv5+qrr85ee+2V0047LWeeeWaOOuqo7LrrrvnSl76U+++/P3fffXf++Mc/LnXdLVq0SEVFRS699NLMmDEj3/ve93LUUUc1OH8wSdZcc82cccYZGTBgQKqqqrLXXntlxowZefTRR9O6detUVFTk97//fa6//vo89thj2XXXXXP22WenoqIif//737POOus0uOfmm2+ejz76KH/605+y0047pWXLlnVBYL9+/epC0EceeWSB76OsrCz7779/JkyYkN69eydJnnjiifzpT39Kr169suGGG+aJJ57Iu+++Wy9YHT9+fPbee++6rUYBAABWBlYQAgAArAJatmyZP//5z+nQoUOOOOKIbLvttjnxxBPzySefpE2bNvMdd/HFF+fWW2/NE088kQMPPDDbbbddBg4cmB133DEVFRVJkt69e+cXv/hFfvazn2W77bbLNddck+HDh6dnz55LXXfnzp1zxBFH5JBDDkmvXr2y/fbbz3dFY5L85Cc/yY9+9KMMHjw42267bQ488MDcf//96dixY959992cdNJJGTRoUHbdddckyY9//OO0b98+/fv3b/R+e+65Z/r375+jjz46G2ywQS655JK6a1tuuWX23HPPbL311tl9990X+l6++c1vZuTIkXVbobZp0yZ//vOfc8ghh2SrrbbK//3f/+Wyyy7LwQcfXDfmtttuy8knn7xIXysAAIAVpVBdXV1d7CIAAABY/QwaNCj33ntvnn766WKX0qjq6upss802+da3vpWBAwcuUv899tgjp59+eo499tiF9v/973+fM888M3//+99TXm4DHwAAYOVhBSEAAAAlZ+rUqRkyZEjeeuutnHDCCYs0plAo5Nprr82cOXMWqf/HH3+c4cOHCwcBAICVjn+lAAAAUHLatm2b9ddfP9dee22jZxfOz0477ZSddtppkfoeddRRS1oeAADAcmWLUQAAAAAAACghthgFAAAAAACAEiIgBAAAAAAAgBIiIAQAAAAAAIASIiAEAAAAAACAEiIgBAAAAAAAgBIiIAQAAAAAAIASIiAEAAAAAACAEiIgBAAAAAAAgBIiIAQAAAAAAIASIiAEAAAAAACAEiIgBAAAAAAAgBIiIAQAAAAAAIASIiAEAAAAAACAEiIgBAAAAAAAgBIiIAQAAAAAAIASIiAEAAAAAACAEiIgBAAAAAAAgBIiIAQAAAAAAIASIiAEAAAAAACAEiIgBAAAAAAAgBIiIAQAAAAAAIASIiAEAAAAAACAEiIgBAAAAAAAgBIiIAQAAAAAAIASIiAEAAAAAACAEiIgBAAAAAAAgBIiIAQAAAAAAIASIiAEAAAAAACAEiIgBAAAAAAAgBIiIAQAAAAAAIASIiAEAAAAAACAEiIgBAAAAAAAgBIiIAQAAAAAAIASIiAEAAAAAACAEiIgBAAAAAAAgBIiIAQAAAAAAIASIiAEAAAAAACAEiIgBAAAAAAAgBIiIAQAAAAAAIASIiAEAAAAAACAEiIgBAAAAAAAgBIiIAQAAAAAAIASIiAEAAAAAACAEiIgBAAAAAAAgBIiIAQAAAAAAIASIiAEAAAAAACAEiIgBAAAAAAAgBIiIAQAAAAAAIASIiAEAAAAAACAEiIgBAAAAAAAgBIiIAQAAAAAAIASIiAEAAAAAACAEiIgBAAAAAAAgBIiIAQAAAAAAIASIiAEAAAAAACAEiIg5P+3ZwcCAAAAAIL8rQe5NAIAAAAAAGBEEAIAAAAAAMCIIAQAAAAAAIARQQgAAAAAAAAjghAAAAAAAABGBCEAAAAAAACMCEIAAAAAAAAYEYQAAAAAAAAwIggBAAAAAABgRBACAAAAAADAiCAEAAAAAACAkQBSLPonyvN7JgAAAABJRU5ErkJggg==;" parent="1" vertex="1">
          <mxGeometry y="150" width="666" height="370" as="geometry" />
        </mxCell>
        <mxCell id="MZmvUF6CTI4PCr-1MxXH-42" value="" style="ellipse;whiteSpace=wrap;html=1;aspect=fixed;fillColor=#ffcccc;strokeColor=#36393d;" parent="1" vertex="1">
          <mxGeometry x="2050" y="860" width="20" height="20" as="geometry" />
        </mxCell>
        <mxCell id="MZmvUF6CTI4PCr-1MxXH-44" value="" style="ellipse;whiteSpace=wrap;html=1;aspect=fixed;fillColor=#ffcccc;strokeColor=#36393d;" parent="1" vertex="1">
          <mxGeometry x="2030" y="830" width="20" height="20" as="geometry" />
        </mxCell>
        <mxCell id="MZmvUF6CTI4PCr-1MxXH-45" value="" style="ellipse;whiteSpace=wrap;html=1;aspect=fixed;fillColor=#ffcccc;strokeColor=#36393d;" parent="1" vertex="1">
          <mxGeometry x="2050" y="790" width="20" height="20" as="geometry" />
        </mxCell>
        <mxCell id="MZmvUF6CTI4PCr-1MxXH-46" value="" style="ellipse;whiteSpace=wrap;html=1;aspect=fixed;fillColor=#ffcccc;strokeColor=#36393d;" parent="1" vertex="1">
          <mxGeometry x="2040" y="890" width="20" height="20" as="geometry" />
        </mxCell>
        <mxCell id="MZmvUF6CTI4PCr-1MxXH-47" value="" style="endArrow=none;html=1;rounded=0;entryX=-0.165;entryY=0.323;entryDx=0;entryDy=0;entryPerimeter=0;" parent="1" target="MZmvUF6CTI4PCr-1MxXH-42" edge="1">
          <mxGeometry width="50" height="50" relative="1" as="geometry">
            <mxPoint x="1900" y="830" as="sourcePoint" />
            <mxPoint x="1820" y="660" as="targetPoint" />
          </mxGeometry>
        </mxCell>
        <mxCell id="MZmvUF6CTI4PCr-1MxXH-48" value="" style="ellipse;whiteSpace=wrap;html=1;aspect=fixed;fillColor=#d5e8d4;strokeColor=#82b366;" parent="1" vertex="1">
          <mxGeometry x="1960" y="840" width="20" height="20" as="geometry" />
        </mxCell>
        <mxCell id="MZmvUF6CTI4PCr-1MxXH-50" value="$$yaw_1$$" style="endArrow=none;html=1;rounded=0;entryX=0;entryY=0.5;entryDx=0;entryDy=0;fillColor=#f9f7ed;strokeColor=#36393d;dashed=1;labelBackgroundColor=none;" parent="1" target="MZmvUF6CTI4PCr-1MxXH-44" edge="1">
          <mxGeometry x="0.6" y="16" width="50" height="50" relative="1" as="geometry">
            <mxPoint x="1870" y="820" as="sourcePoint" />
            <mxPoint x="2057" y="876" as="targetPoint" />
            <mxPoint as="offset" />
          </mxGeometry>
        </mxCell>
        <mxCell id="MZmvUF6CTI4PCr-1MxXH-51" value="$$yaw_2$$" style="endArrow=none;html=1;rounded=0;entryX=-0.116;entryY=0.306;entryDx=0;entryDy=0;fillColor=#f9f7ed;strokeColor=#36393d;dashed=1;entryPerimeter=0;" parent="1" target="MZmvUF6CTI4PCr-1MxXH-46" edge="1">
          <mxGeometry x="0.1054" y="-31" width="50" height="50" relative="1" as="geometry">
            <mxPoint x="1870" y="820" as="sourcePoint" />
            <mxPoint x="2040" y="850" as="targetPoint" />
            <mxPoint as="offset" />
          </mxGeometry>
        </mxCell>
        <mxCell id="MZmvUF6CTI4PCr-1MxXH-55" value="$$ d = min(d_1, ..., d_K) $$" style="text;html=1;strokeColor=none;fillColor=none;align=center;verticalAlign=middle;whiteSpace=wrap;rounded=0;" parent="1" vertex="1">
          <mxGeometry x="1960" y="930" width="150" height="30" as="geometry" />
        </mxCell>
        <mxCell id="MZmvUF6CTI4PCr-1MxXH-56" value="" style="ellipse;whiteSpace=wrap;html=1;aspect=fixed;fillColor=#ffcccc;strokeColor=#36393d;" parent="1" vertex="1">
          <mxGeometry x="1970" y="760" width="20" height="20" as="geometry" />
        </mxCell>
        <mxCell id="MZmvUF6CTI4PCr-1MxXH-58" value="" style="endArrow=classic;html=1;rounded=0;entryX=0;entryY=0;entryDx=0;entryDy=0;" parent="1" target="MZmvUF6CTI4PCr-1MxXH-48" edge="1">
          <mxGeometry width="50" height="50" relative="1" as="geometry">
            <mxPoint x="1910" y="800" as="sourcePoint" />
            <mxPoint x="1890" y="850" as="targetPoint" />
          </mxGeometry>
        </mxCell>
        <mxCell id="MZmvUF6CTI4PCr-1MxXH-59" value="" style="ellipse;whiteSpace=wrap;html=1;aspect=fixed;fillColor=#dae8fc;strokeColor=#6c8ebf;" parent="1" vertex="1">
          <mxGeometry x="1900" y="790" width="20" height="20" as="geometry" />
        </mxCell>
        <mxCell id="knneP4lm7KSKpU0izsp5-6" value="" style="whiteSpace=wrap;html=1;aspect=fixed;" parent="1" vertex="1">
          <mxGeometry x="1160" y="894" width="40" height="40" as="geometry" />
        </mxCell>
        <mxCell id="knneP4lm7KSKpU0izsp5-7" value="" style="whiteSpace=wrap;html=1;aspect=fixed;" parent="1" vertex="1">
          <mxGeometry x="1200" y="894" width="40" height="40" as="geometry" />
        </mxCell>
        <mxCell id="knneP4lm7KSKpU0izsp5-8" value="$$L_{sm}$$" style="whiteSpace=wrap;html=1;aspect=fixed;fillColor=#dae8fc;strokeColor=#6c8ebf;" parent="1" vertex="1">
          <mxGeometry x="1240" y="894" width="40" height="40" as="geometry" />
        </mxCell>
        <mxCell id="knneP4lm7KSKpU0izsp5-9" value="" style="whiteSpace=wrap;html=1;aspect=fixed;" parent="1" vertex="1">
          <mxGeometry x="1280" y="894" width="40" height="40" as="geometry" />
        </mxCell>
        <mxCell id="knneP4lm7KSKpU0izsp5-10" value="" style="whiteSpace=wrap;html=1;aspect=fixed;" parent="1" vertex="1">
          <mxGeometry x="1320" y="894" width="40" height="40" as="geometry" />
        </mxCell>
        <mxCell id="knneP4lm7KSKpU0izsp5-11" value="" style="whiteSpace=wrap;html=1;aspect=fixed;" parent="1" vertex="1">
          <mxGeometry x="1360" y="894" width="40" height="40" as="geometry" />
        </mxCell>
        <mxCell id="knneP4lm7KSKpU0izsp5-12" value="" style="ellipse;whiteSpace=wrap;html=1;aspect=fixed;fillColor=#ffcccc;strokeColor=#36393d;" parent="1" vertex="1">
          <mxGeometry x="1326" y="727" width="20" height="20" as="geometry" />
        </mxCell>
        <mxCell id="knneP4lm7KSKpU0izsp5-13" value="" style="ellipse;whiteSpace=wrap;html=1;aspect=fixed;fillColor=#dae8fc;strokeColor=#6c8ebf;" parent="1" vertex="1">
          <mxGeometry x="1356" y="797" width="20" height="20" as="geometry" />
        </mxCell>
        <mxCell id="knneP4lm7KSKpU0izsp5-14" value="" style="endArrow=classic;html=1;rounded=0;exitX=0.5;exitY=0;exitDx=0;exitDy=0;" parent="1" source="knneP4lm7KSKpU0izsp5-13" edge="1">
          <mxGeometry width="50" height="50" relative="1" as="geometry">
            <mxPoint x="1426" y="517" as="sourcePoint" />
            <mxPoint x="1377" y="755" as="targetPoint" />
          </mxGeometry>
        </mxCell>
        <mxCell id="knneP4lm7KSKpU0izsp5-16" value="$$NN$$" style="endArrow=none;dashed=1;html=1;rounded=0;exitX=1;exitY=0;exitDx=0;exitDy=0;labelBackgroundColor=none;" parent="1" source="knneP4lm7KSKpU0izsp5-12" edge="1">
          <mxGeometry x="-0.146" y="12" width="50" height="50" relative="1" as="geometry">
            <mxPoint x="1215" y="735" as="sourcePoint" />
            <mxPoint x="1375" y="752" as="targetPoint" />
            <mxPoint as="offset" />
          </mxGeometry>
        </mxCell>
        <mxCell id="knneP4lm7KSKpU0izsp5-17" value="" style="ellipse;whiteSpace=wrap;html=1;aspect=fixed;fillColor=#dae8fc;strokeColor=#6c8ebf;" parent="1" vertex="1">
          <mxGeometry x="1296" y="683" width="20" height="20" as="geometry" />
        </mxCell>
        <mxCell id="knneP4lm7KSKpU0izsp5-18" value="" style="ellipse;whiteSpace=wrap;html=1;aspect=fixed;fillColor=#dae8fc;strokeColor=#6c8ebf;" parent="1" vertex="1">
          <mxGeometry x="1219" y="683" width="20" height="20" as="geometry" />
        </mxCell>
        <mxCell id="knneP4lm7KSKpU0izsp5-19" value="" style="endArrow=classic;html=1;rounded=0;exitX=0.5;exitY=1;exitDx=0;exitDy=0;entryX=0;entryY=0;entryDx=0;entryDy=0;" parent="1" source="knneP4lm7KSKpU0izsp5-17" target="knneP4lm7KSKpU0izsp5-12" edge="1">
          <mxGeometry width="50" height="50" relative="1" as="geometry">
            <mxPoint x="1376" y="807" as="sourcePoint" />
            <mxPoint x="1318" y="756" as="targetPoint" />
          </mxGeometry>
        </mxCell>
        <mxCell id="knneP4lm7KSKpU0izsp5-21" value="" style="endArrow=classic;html=1;rounded=0;exitX=0.5;exitY=1;exitDx=0;exitDy=0;entryX=0;entryY=0.5;entryDx=0;entryDy=0;" parent="1" source="knneP4lm7KSKpU0izsp5-18" target="knneP4lm7KSKpU0izsp5-12" edge="1">
          <mxGeometry width="50" height="50" relative="1" as="geometry">
            <mxPoint x="1273" y="713" as="sourcePoint" />
            <mxPoint x="1276" y="792" as="targetPoint" />
          </mxGeometry>
        </mxCell>
        <mxCell id="knneP4lm7KSKpU0izsp5-31" value="$$NN$$" style="edgeStyle=orthogonalEdgeStyle;rounded=0;orthogonalLoop=1;jettySize=auto;html=1;dashed=1;labelBackgroundColor=none;" parent="1" edge="1">
          <mxGeometry x="-0.2632" y="-26" relative="1" as="geometry">
            <mxPoint x="1296" y="693" as="sourcePoint" />
            <mxPoint x="1239" y="693" as="targetPoint" />
            <mxPoint as="offset" />
          </mxGeometry>
        </mxCell>
      </root>
    </mxGraphModel>
  </diagram>
</mxfile>
